<?xml version="1.0" standalone="no"?>
<!DOCTYPE svg PUBLIC "-//W3C//DTD SVG 1.1//EN" "http://www.w3.org/Graphics/SVG/1.1/DTD/svg11.dtd" >
<svg>
<metadata>
Created by FontForge 20100429 at Sat Feb 15 16:27:26 2014
 By www-data
Copyright (c) 2011 by vernon adams (vern@newtypography.co.uk), with Reserved Font Names "Bowlby" "Bowlby One" and "Bowlby One SC". This Font Software is licensed under the SIL Open Font License, Version 1.1. This license is available with a FAQ at: http://scripts.sil.org/OFL
</metadata>
<defs>
<font id="BowlbyOne" horiz-adv-x="1645" >
  <font-face 
    font-family="Bowlby One"
    font-weight="400"
    font-stretch="normal"
    units-per-em="2048"
    panose-1="2 0 5 5 6 0 0 2 0 4"
    ascent="1638"
    descent="-410"
    x-height="1196"
    cap-height="1512"
    bbox="-337 -932 2672 2276"
    underline-thickness="102"
    underline-position="-103"
    stemh="387"
    stemv="507"
    unicode-range="U+0020-FB02"
  />
<missing-glyph horiz-adv-x="732" 
 />
    <glyph glyph-name=".notdef" horiz-adv-x="732" 
 />
    <glyph glyph-name="NULL" horiz-adv-x="0" 
 />
    <glyph glyph-name="CR" horiz-adv-x="682" 
 />
    <glyph glyph-name="space" unicode=" " horiz-adv-x="716" 
 />
    <glyph glyph-name="exclam" unicode="!" horiz-adv-x="792" 
d="M622 562c-2 -16 -43 -19 -94 -19h-60c-7 0 -13 1 -20 1c-14 0 -28 -1 -41 -1h-40c-26 0 -56 -1 -84 -1h-31c-5 0 -10 -1 -15 -1h-39c-46 21 -31 123 -37 182l-10 130c-3 42 -8 88 -10 130l-27 396c0 36 -7 79 -7 121c0 14 162 16 161 16h56l64 5c75 6 158 6 245 7
c39 0 71 -4 73 -22l-14 -188c-21 -251 -42 -506 -70 -756zM655 153c0 -57 0 -112 4 -164c-13 -12 -113 -14 -196 -17h-20c-79 0 -142 -4 -202 -4h-8c-27 -1 -52 -2 -79 -2l-10 15l-17 16c0 101 14 331 19 331c457 0 510 0 510 -17c0 -2 -1 -3 -1 -4v-2c-1 -5 -1 -14 -1 -20
c1 -45 1 -87 1 -132z" />
    <glyph glyph-name="quotedbl" unicode="&#x22;" horiz-adv-x="1285" 
d="M484 876c-90 -1 -178 -2 -267 -5c-8 8 -17 14 -24 21c0 49 2 90 5 139l5 253c0 10 -1 21 -1 31c0 14 1 27 4 39v-1c2 24 2 46 2 70v21c0 10 -2 22 -2 33c0 22 3 47 9 53c14 0 23 -1 37 -1h131c9 0 39 2 72 2c53 0 121 -3 135 -14c0 -1 -1 -3 -1 -4
c0 -194 14 -399 14 -596c0 -37 -15 -42 -60 -42h-40c-6 0 -12 1 -19 1zM1141 912c0 -12 -1 -24 -3 -28l-123 -4c-62 0 -130 -2 -193 -5l-65 -3c-12 16 -21 33 -21 66v64c0 6 1 17 1 22l9 270v-1c2 30 2 62 2 94v80c0 5 -1 10 -1 15c0 18 0 42 5 49h58c106 0 318 0 318 2v-7
v1c-2 0 -3 -5 -3 -8c11 -205 15 -398 16 -607zM1136 884l16 -10s0 -11 -16 -11v20h-1z" />
    <glyph glyph-name="numbersign" unicode="#" horiz-adv-x="1548" 
d="M1179 1183l-11 -75c4 0 23 -1 30 -1h33c13 0 34 0 46 1h21c7 0 14 1 19 1c7 -5 8 -31 8 -56c0 -6 -1 -11 -1 -16v-92c0 -19 2 -39 2 -55v-16c0 -19 -54 -22 -99 -22c-35 0 -61 3 -75 3h-14l-14 -101c0 -5 -2 -11 -2 -17v1l-10 -87h128c8 0 15 0 21 1c3 -1 6 -2 7 -4v-151
c0 -9 1 -19 1 -27v-69c-1 -3 -5 -7 -7 -7c-56 0 -116 4 -178 4c-9 -63 -20 -143 -26 -209c-6 -61 21 -218 -103 -218c-20 0 -51 -3 -90 -3c-48 0 -102 7 -113 20c5 32 8 67 12 101l6 49c9 73 23 175 34 249c-63 -10 -64 -1 -127 -16l-39 -325c-5 -42 -8 -82 -58 -82
c-74 0 -152 4 -221 4c-5 7 -10 12 -14 15l2 1l-10 16c6 48 12 89 19 135l35 243h-49c-96 0 -103 0 -103 61v140c0 11 -2 23 -2 34c0 23 8 42 54 42c11 0 23 -1 33 -1h108l24 189h-46c-50 0 -105 1 -105 20c0 77 3 160 3 237c0 15 55 18 98 18c28 0 50 -2 63 -2h5
c24 0 38 113 55 221l26 183c14 10 120 10 193 10h13c31 0 52 -1 61 -13c-12 -64 -21 -130 -28 -193l-3 -26c-7 -60 -21 -136 -30 -192h147c15 122 26 364 59 416h242c5 0 11 -2 13 -4c-11 -97 -29 -237 -43 -335zM717 908l-23 -40c-9 -46 -15 -95 -22 -140l-14 -72
c1 -33 12 -48 39 -53h9c2 0 5 1 7 1l133 6c19 1 34 11 38 33l36 209c-4 32 -20 50 -51 50h-21c-36 0 -80 5 -119 6h-12zM344 -17l-15 -5c0 6 2 9 6 9c2 0 5 -2 9 -4z" />
    <glyph glyph-name="dollar" unicode="$" horiz-adv-x="1444" 
d="M613 1120c3 -79 129 -106 220 -126l153 -34h-1c102 -27 232 -68 314 -117l-1 1c126 -95 189 -234 189 -391c0 -336 -299 -459 -579 -513l3 -174c0 -5 1 -11 1 -17c-1 -11 -9 -18 -23 -18c-102 0 -200 2 -300 6l-28 26c1 24 1 36 1 61c0 119 -27 127 -94 138
c-296 50 -417 252 -440 491c2 13 25 16 50 16c15 0 32 -2 48 -2h478c37 -16 -4 -164 152 -164c78 0 151 40 151 125c0 56 -57 84 -104 87c-18 1 -61 20 -116 35l-38 10c-111 29 -265 68 -348 109c-170 76 -238 217 -238 373c0 370 289 462 516 512c-3 41 -5 98 -5 157
c0 20 2 42 6 50c28 -1 50 -2 78 -2c73 0 138 3 208 3c19 0 22 -39 22 -83c0 -45 -4 -89 -4 -128c262 -19 539 -104 539 -460l-1 -2c-4 0 -5 1 -6 1c-57 0 -122 -1 -178 -3l-60 -2c-79 -3 -158 -5 -237 -5c-50 0 -51 6 -61 43c-14 50 -47 88 -130 89l-26 -6
c-51 -12 -109 -27 -111 -86z" />
    <glyph glyph-name="percent" unicode="%" horiz-adv-x="2153" 
d="M1285 457c13 133 30 289 134 375c99 82 193 124 314 124c82 0 197 -23 281 -77h-1c65 -51 118 -146 139 -210h-1c21 -63 29 -130 29 -215c0 -343 -205 -516 -464 -516c-361 0 -432 271 -432 492c0 9 0 18 1 27zM21 1056l1 4c11 124 37 273 126 370c94 74 205 123 329 123
c342 0 430 -251 430 -475c0 -280 -112 -537 -459 -537c-354 0 -430 260 -430 498c0 6 1 12 3 17zM1018 368l-219 -441c-8 -15 -54 -18 -113 -18c-39 0 -76 1 -105 2h-8c-1 0 -4 1 -5 1l-19 51l664 1207l179 324v-1c13 27 25 49 40 71c54 0 156 0 204 7l-19 -40v1l-171 -333
v1l-94 -185v2l-88 -166c-54 -101 -107 -202 -155 -306v1zM1636 1571l12 20l16 -12l-3 -5l2 4c-3 -3 -13 -5 -27 -7zM1732 745l-5 -1c-124 -5 -123 -215 -123 -300v-36c3 -101 8 -268 133 -268c103 0 120 121 120 210v29c0 11 -1 21 -1 31v100c0 7 1 15 1 23
c0 88 -20 212 -125 212zM470 1347c-131 -5 -132 -209 -132 -304c0 -84 -8 -303 135 -303c107 0 114 151 114 221v41c0 7 -1 14 -1 21v86c0 7 1 15 1 22c0 99 -10 216 -117 216z" />
    <glyph glyph-name="ampersand" unicode="&#x26;" horiz-adv-x="1815" 
d="M1682 788h2c26 0 66 0 93 2c5 -3 10 -10 14 -19l-5 -35c-13 -145 -79 -308 -202 -431l195 -202c16 -17 32 -35 47 -55l20 -19c18 -17 35 -38 36 -48c0 -13 -29 -16 -60 -16c-17 0 -34 1 -47 1h-259c-74 0 -139 1 -214 4c-20 11 -40 25 -59 44l-39 33l-53 -27
c-101 -38 -240 -82 -357 -89l-89 -3c-404 0 -688 191 -688 442c0 222 174 358 400 441c-133 86 -246 223 -246 364c0 88 40 174 102 232c75 70 261 144 487 144c169 0 373 -26 502 -116c93 -66 126 -161 126 -245c0 -165 -128 -285 -305 -414c19 -19 59 -58 82 -77v1
l108 -103c30 41 46 74 54 99c11 34 -9 89 71 95c43 1 83 1 124 1c26 0 53 -1 80 -2h-1c27 -2 54 -2 81 -2zM750 201c88 0 177 35 262 80c-54 43 -75 74 -97 96l-151 144c-17 -1 -20 18 -29 28l-9 9c-28 27 -60 53 -81 54c-69 -33 -143 -133 -143 -216
c0 -135 141 -195 248 -195zM762 975l-1 1c8 -5 17 -8 26 -8c7 0 15 0 26 5c66 51 154 120 154 210c0 112 -118 143 -195 143c-89 0 -177 -56 -177 -157c9 -89 100 -153 167 -194z" />
    <glyph glyph-name="quotesingle" unicode="'" horiz-adv-x="803" 
d="M608 918c0 -43 -95 -48 -211 -48h-111c-14 0 -26 1 -39 1h-25c-18 11 -24 17 -24 38c0 35 3 69 4 106l7 215c2 64 4 129 5 194v37c0 6 -1 12 -1 18c0 21 2 44 7 50h66c103 0 207 -1 312 -3h-3c3 -1 4 -3 4 -10l3 -185c2 -137 6 -277 6 -413z" />
    <glyph glyph-name="parenleft" unicode="(" horiz-adv-x="832" 
d="M792 -321l-10 -15h-50c-119 0 -227 8 -336 8c-30 17 -86 190 -117 291l-19 50c-67 176 -108 395 -120 603c33 298 196 892 243 903c4 2 9 4 14 4c131 7 247 9 389 9c4 -3 8 -7 10 -13l-54 -205c-63 -221 -127 -505 -127 -708c9 -220 63 -479 133 -712l57 -200
c-4 -6 -8 -10 -13 -15zM805 -306l4 6l-3 -10z" />
    <glyph glyph-name="parenright" unicode=")" horiz-adv-x="835" 
d="M658 263c-27 -102 -162 -536 -204 -577c-53 -3 -115 -6 -169 -6h-32c-10 0 -20 1 -30 1h-61c-37 0 -71 0 -102 -3c2 7 5 15 8 22l2 6s0 1 1 2l5 11c66 223 156 567 156 875c0 217 -66 485 -127 701l-64 226c6 9 12 16 20 22h318c20 0 42 1 63 1c9 0 18 -7 28 -22v2
l55 -151c89 -245 184 -509 185 -776c-3 -108 -21 -222 -52 -334zM459 -334l-6 11v-15h-4l-4 18l10 4l17 5c0 -14 -5 -23 -15 -26c0 1 1 2 2 3zM59 -331l-11 10c2 0 5 0 11 -1h1c-1 -3 -1 -6 -1 -9zM453 -338c1 0 2 1 3 1c-1 0 -2 -1 -3 -1z" />
    <glyph glyph-name="asterisk" unicode="*" horiz-adv-x="930" 
d="M262 834l-57 37l-8 2c6 25 47 92 71 130l22 45c-19 0 -87 -2 -97 -2h-14c-76 0 -90 -6 -90 121c0 42 6 77 19 89c47 0 149 -3 200 -6l-56 87c-20 31 -47 79 -52 107c2 4 23 12 39 18c16 13 98 76 134 76c3 0 31 -57 56 -102l61 -112l17 67l-1 -2l18 42v-1l10 19
c13 24 34 73 50 88l13 -6c49 -23 150 -70 150 -84c0 -17 -7 -28 -20 -48l-4 -6c-19 -26 -45 -65 -82 -147l66 6c30 6 59 6 90 6h13c45 0 50 -3 50 -34c0 -19 1 -56 -6 -93v-58c0 -3 -124 -4 -206 -4l42 -65h-1c12 -22 21 -37 29 -60l14 -23c6 -8 19 -30 24 -45l-129 -83l1 2
l-39 -21l1 1c-11 8 -80 129 -106 178l-42 -81v1c-21 -42 -52 -104 -60 -104c-11 0 -76 27 -106 57zM758 878l23 13c12 -15 19 -33 19 -47l-41 8v17c0 1 -1 8 -1 9zM195 874l2 -1c-1 -1 -1 -2 -1 -2c0 1 -1 2 -1 3zM193 875l2 -1c-1 0 -2 0 -2 1z" />
    <glyph glyph-name="plus" unicode="+" horiz-adv-x="1271" 
d="M1135 390h-269c-24 0 -57 1 -78 1c4 -100 4 -222 4 -321v-50c0 -28 -32 -33 -76 -33c-25 0 -56 1 -87 1h-50c-25 0 -76 -1 -76 -2l-5 386c-5 0 -22 -1 -28 -1h-102c-7 0 -14 1 -22 1s-15 -1 -22 -1h-136c-10 0 -24 1 -39 1h-37c-12 7 -15 41 -15 75c0 5 1 10 1 15v69
c0 11 -1 22 -1 33v64c0 41 2 53 37 53c113 0 242 1 354 2v66c0 88 3 167 3 255v33c0 30 2 41 39 41c6 0 12 -1 19 -1h109c15 0 33 2 60 2c33 0 70 -3 78 -12c0 -133 -3 -258 -3 -393c120 0 247 2 387 2c9 -4 9 -22 9 -51v-122c0 -12 -1 -25 -1 -38v-35c0 -15 0 -31 -1 -39
h-4c-17 -1 -31 -1 -48 -1z" />
    <glyph glyph-name="comma" unicode="," horiz-adv-x="735" 
d="M526 -49c-18 -58 -41 -119 -62 -176l-3 -10c-15 -12 -109 -15 -203 -15c-15 0 -29 1 -42 1h-189c-3 2 -12 11 -14 14l-4 6c8 25 14 74 26 128l8 35c43 187 101 457 126 483c18 2 38 2 56 2h158c12 0 37 0 55 1h-1c30 1 63 2 97 2c72 0 137 -3 137 -11v-4
c-29 -86 -57 -169 -83 -256l-13 -43c-8 -32 -20 -62 -30 -94z" />
    <glyph glyph-name="hyphen" unicode="-" horiz-adv-x="859" 
d="M811 393c-1 -11 -3 -18 -7 -18c-245 0 -485 -20 -731 -20c-8 7 -15 14 -23 24c0 9 1 17 1 28v30c0 42 2 87 2 130v15c0 19 -2 41 -2 66c0 42 2 84 11 84h221c22 0 46 -1 71 -1c98 0 210 3 304 3h34c13 0 25 -1 38 -1h68c13 -14 14 -104 14 -169v-14c0 -15 -1 -29 -1 -42
v-115z" />
    <glyph glyph-name="period" unicode="." horiz-adv-x="775" 
d="M655 102v-69c0 -4 1 -9 1 -13c0 -20 0 -38 -3 -38s-6 1 -7 1c-164 -9 -321 -18 -493 -18l-23 36c-1 9 -1 16 -1 24c0 33 3 66 3 104v54c0 85 2 221 14 234c117 -1 233 -2 354 -2h46c7 0 15 1 23 1c39 0 80 -1 80 -9l3 -153c1 -46 0 -102 3 -152z" />
    <glyph glyph-name="slash" unicode="/" horiz-adv-x="804" 
d="M192 -70h-43c-38 -5 -73 -5 -108 -5h-51c-10 22 -21 42 -28 61c8 26 19 69 28 78l60 165l465 1247l34 87c10 3 43 5 80 5c33 0 67 -1 93 -2h-1c18 -1 37 -1 47 -1h26c3 0 6 1 10 1c21 0 42 -1 42 -11c-7 -32 -19 -79 -35 -123l-29 -77l-180 -534l-22 -63
c-78 -223 -151 -459 -235 -677l-18 -47h2c-19 -54 -32 -100 -137 -104z" />
    <glyph glyph-name="zero" unicode="0" horiz-adv-x="1462" 
d="M748 1237c-201 0 -205 -290 -205 -503c0 -156 0 -464 184 -464c191 0 194 261 194 416v19c4 61 4 125 4 192c0 129 -12 340 -177 340zM1368 348c-107 -285 -355 -404 -647 -407c-428 0 -620 265 -671 563c-13 64 -15 123 -19 174l-5 66c0 560 314 787 711 827h14
c586 0 689 -476 689 -844c0 -122 -23 -252 -72 -379z" />
    <glyph glyph-name="one" unicode="1" horiz-adv-x="1579" 
d="M1122 610c0 -203 9 -405 9 -621c-15 -14 -73 -23 -129 -23c-32 0 -63 2 -86 2h-17c-14 0 -27 -1 -41 -1h-41c-21 0 -42 -1 -63 -1c-65 0 -134 1 -200 3l-16 25c-7 10 -10 14 -10 36c0 237 5 451 8 676l4 274c-107 -73 -215 -128 -320 -161c-5 1 -7 3 -8 9v106
c0 15 -1 30 -1 45c0 128 0 263 2 263c16 8 50 27 67 35c21 10 52 20 66 30h-1c6 3 21 9 28 13h-1c81 39 243 117 300 205c106 0 202 -6 308 -6c42 0 92 0 136 4c3 -6 3 -25 3 -56v-57c0 -102 -2 -195 -2 -294c0 -172 1 -336 5 -506z" />
    <glyph glyph-name="two" unicode="2" horiz-adv-x="1458" 
d="M1409 -24l-76 2c-125 0 -245 7 -336 7c-305 0 -594 -7 -899 -20l-13 17c-14 10 -17 52 -17 94c0 59 1 118 2 163v7c1 41 2 80 2 125c0 11 55 52 159 121l173 115c109 75 189 132 274 209c66 60 164 162 164 268c0 71 -47 113 -114 113c-136 0 -101 -147 -141 -169
c-31 -1 -60 -1 -93 -1h-303c-15 0 -30 1 -45 1h-39c-18 0 -35 2 -39 9c4 57 7 116 27 178c71 264 378 349 653 349c346 0 671 -133 671 -465c0 -302 -251 -493 -505 -658l-14 -11c-6 -5 -56 -52 -56 -52c160 0 336 9 488 9c88 0 104 -69 104 -168c0 -63 -5 -134 -5 -196v-20
c0 -15 -2 -25 -22 -27z" />
    <glyph glyph-name="three" unicode="3" horiz-adv-x="1454" 
d="M871 -52c-62 -7 -118 -8 -165 -8c-238 0 -430 40 -573 180c-79 69 -104 199 -109 326c0 7 4 13 11 13c78 0 169 3 248 4l247 4c10 0 16 -6 17 -13c12 -88 52 -157 149 -157c91 0 139 58 139 137c0 160 -134 175 -239 175c-9 -2 -18 -2 -24 -2c-64 0 -68 28 -68 101
c0 116 1 192 37 192h38c8 0 14 -1 21 -1h21c112 0 198 37 198 184c0 71 -43 126 -118 126c-102 0 -111 -61 -123 -117l1 1l-4 -11c-5 -20 -11 -41 -22 -49c-132 0 -259 2 -391 6h-37c-6 0 -11 -1 -17 -1c-29 0 -54 4 -59 19c7 57 5 116 25 171c14 39 61 165 180 241v-1
c153 88 360 98 540 98c242 0 580 -134 580 -430c0 -207 -153 -286 -313 -338c257 -80 347 -186 347 -361c0 -362 -297 -455 -537 -489z" />
    <glyph glyph-name="four" unicode="4" horiz-adv-x="1433" 
d="M1421 619c23 0 31 -5 33 -36l-4 -4c0 -28 6 -137 6 -252c0 -78 -1 -106 -14 -106h-58c-8 0 -15 -1 -23 -1h-85c2 -62 3 -145 3 -207c0 -26 -1 -42 -20 -44c-67 1 -134 2 -202 2h-37c-97 0 -190 0 -291 -6l-1 1v-2v1l-8 12c-1 2 -3 6 -7 10l-9 11c0 67 2 123 2 178v36
c0 34 -28 43 -69 43c-47 0 -118 -15 -158 -31l-286 -3c-38 -1 -79 -5 -120 -4c-28 0 -58 -1 -76 27c0 162 1 246 6 361c82 205 175 352 296 535v-1c9 12 18 30 26 43l206 321c14 14 92 8 121 11h-1l90 3c114 4 221 7 333 7h185l17 -5h-1s0 -1 1 -1v-48
c0 -195 -7 -384 -7 -578c0 -25 1 -69 1 -96v-24c0 -14 -2 -39 -2 -55c0 -49 11 -99 66 -99h65c7 0 14 1 22 1zM1454 583l9 10l5 -12h-14v2zM1471 575l-3 6h7c0 -3 -1 -6 -4 -6zM420 559h32c89 0 183 5 280 5c31 14 43 28 47 54v21c0 8 -1 15 -1 22v50c0 20 3 72 3 134
c0 143 -6 336 -69 341c-14 -8 -27 -19 -34 -29l-51 -91l-80 -144l-56 -98l-106 -190l13 -27v-26z" />
    <glyph glyph-name="five" unicode="5" horiz-adv-x="1469" 
d="M631 624v-1c-6 -28 2 -47 -26 -50c-71 3 -139 3 -207 3h-196h-34c-39 0 -37 66 -37 97v42c0 4 1 9 1 14l-3 220c-1 67 -2 133 -2 198v192c0 28 0 54 2 83v36c0 28 4 61 18 82c49 -2 88 -2 136 -2l984 -9c5 0 10 1 15 1c18 0 39 -4 45 -14v-195c0 -150 1 -158 -25 -158
h-19c-216 0 -441 -1 -657 -4c-10 -35 -7 -80 -9 -115l-7 -96c0 -8 -1 -34 -1 -40c97 65 218 99 315 99c299 0 488 -204 488 -482c0 -439 -355 -585 -678 -585c-204 0 -448 47 -579 215c-41 62 -65 152 -79 241c5 12 45 16 85 16c8 0 16 -1 23 -1h167c89 0 164 -5 275 -5
c25 -17 7 -110 95 -110c112 0 124 117 124 195c0 94 -9 206 -119 206c-58 0 -84 -26 -95 -73zM632 625l17 -9l-18 7c0 1 1 1 1 2z" />
    <glyph glyph-name="six" unicode="6" horiz-adv-x="1457" 
d="M779 720c-161 0 -195 -125 -195 -256c0 -72 24 -157 97 -203l12 15c3 -1 5 -1 10 -1l-4 -20l15 -5l-1 1c22 -7 48 -16 59 -16c161 0 199 137 199 255c-5 139 -46 227 -192 230zM882 1119c-10 0 -20 -1 -21 -4l-2 60c-14 23 -39 34 -81 34c-146 0 -176 -172 -176 -292v-29
c0 -9 1 -46 1 -47c93 110 217 147 320 147c291 0 512 -202 512 -476c0 -395 -352 -548 -633 -566c-140 2 -378 26 -493 127v-1c-108 109 -187 238 -226 378c-22 98 -30 211 -30 298c0 473 287 807 735 830c421 -11 551 -234 579 -437c-72 -17 -478 -22 -485 -22z" />
    <glyph glyph-name="seven" unicode="7" horiz-adv-x="1462" 
d="M804 -17c-5 -14 -14 -15 -27 -15c-29 0 -60 1 -90 1h-49c-16 0 -32 1 -50 1h-89c-21 0 -42 -1 -65 -1c-110 0 -241 3 -241 20c0 20 15 36 26 63l422 842c33 65 77 154 113 219h-70c-79 0 -208 -2 -319 -4h-240c-20 0 -28 2 -49 32v280c0 15 -4 38 -4 64c0 28 3 62 27 62
c358 0 712 -7 1064 -14l207 -4c20 -1 24 -88 24 -146v-47c0 -422 -38 -214 -590 -1353z" />
    <glyph glyph-name="eight" unicode="8" horiz-adv-x="1451" 
d="M1388 209c-50 -111 -184 -202 -332 -238c-115 -28 -247 -30 -353 -30c-514 0 -640 228 -666 450c14 149 84 280 270 373c-152 70 -223 186 -223 327c0 357 354 477 639 477c323 0 663 -127 663 -480c0 -150 -88 -256 -246 -312c86 -43 164 -83 205 -134
c59 -74 86 -158 86 -249c0 -66 -17 -129 -43 -184zM732 646c-112 0 -186 -96 -186 -210c13 -114 73 -194 187 -194c117 0 183 78 183 187c0 135 -57 217 -184 217zM728 1262c-111 0 -155 -116 -155 -191c0 -95 32 -190 163 -190c117 0 158 96 158 193
c0 109 -39 188 -166 188z" />
    <glyph glyph-name="nine" unicode="9" horiz-adv-x="1456" 
d="M623 363l2 -6c10 -32 27 -59 89 -59c145 0 159 159 167 272v21c0 8 1 34 1 37c-91 -59 -198 -81 -281 -84c-259 0 -537 151 -551 458c28 370 368 558 676 558c188 0 390 -40 526 -200v1c135 -170 178 -352 178 -569c0 -213 -35 -423 -156 -601
c-153 -225 -452 -260 -653 -260c-135 0 -256 30 -364 118c-106 78 -139 209 -144 329l9 12c5 6 13 14 20 20l461 -7c12 -5 20 -40 20 -40zM707 1261c-153 0 -202 -136 -202 -256c8 -136 67 -218 201 -218c152 0 186 121 186 230c0 121 -31 244 -185 244z" />
    <glyph glyph-name="colon" unicode=":" horiz-adv-x="771" 
d="M645 218l2 -94v-72c0 -21 0 -43 1 -64c-17 -19 -206 -23 -325 -23c-24 0 -45 1 -63 1h-39c-25 0 -49 0 -74 -1c-8 13 -23 25 -23 37v33c0 117 4 248 11 373c0 10 118 11 198 11c21 0 40 -1 56 -1h152c44 0 93 -3 104 -12v-188zM652 795l-7 -47c7 -29 9 -47 9 -75
c0 -17 -2 -32 -12 -32c-165 -9 -327 -15 -490 -15l-23 36c-1 20 -1 35 -1 55v20c0 25 2 43 2 70v60c0 79 2 197 15 211c38 -1 72 -1 110 -1c25 0 48 1 72 1h69c37 0 76 1 115 1c55 0 135 0 135 -11c1 -31 2 -63 2 -94c0 -12 -1 -23 -1 -35v-8z" />
    <glyph glyph-name="semicolon" unicode=";" horiz-adv-x="733" 
d="M527 -15l-14 -49l-22 -55v1c-11 -29 -24 -57 -35 -86v1c-8 -13 -112 -16 -220 -16c-55 0 -111 2 -159 2h-50c-5 4 -14 14 -18 18c0 1 1 2 1 3l6 32c8 41 15 81 26 123c0 7 83 479 123 479h30c10 0 21 -1 31 -1h62c94 0 137 3 250 3c63 0 132 -2 132 -11v-12
c-34 -94 -64 -186 -96 -285zM673 615l-4 1l-2 -2c-53 -3 -115 -4 -168 -6l-326 -13c-25 35 -28 44 -28 76v13c0 1 1 4 1 5l3 93v-1c4 38 2 259 18 278h37c25 0 50 1 74 1h74c39 0 79 1 120 1c83 0 194 0 194 -3c4 -141 7 -272 7 -409v-34z" />
    <glyph glyph-name="less" unicode="&#x3c;" horiz-adv-x="1271" 
d="M1191 -10v-2c0 -13 -2 -26 -11 -26c-3 0 -5 1 -6 1l-5 1l-951 374l-7 3c-9 3 -17 7 -25 9h1c-47 15 -98 33 -98 102v58c0 7 1 14 1 21v46c0 5 -1 10 -1 17c0 35 7 71 30 99l923 348c44 18 89 35 134 50h4c13 0 15 -29 15 -69v-12c0 -76 0 -180 -13 -203l-718 -283
l683 -261c40 -15 52 -18 52 -128c0 -53 -4 -112 -8 -145zM1175 1091v21l7 1l3 -19z" />
    <glyph glyph-name="equal" unicode="=" horiz-adv-x="1273" 
d="M1175 124l-285 -4c-269 0 -510 -11 -772 -15l-21 26c-2 32 -3 60 -3 96c0 11 0 22 1 34v19c0 7 1 14 1 20v25c0 5 -1 10 -1 15v15c0 27 3 56 12 76c1 0 2 -1 2 -1c1 0 0 1 2 1h22c254 -16 504 -28 758 -28l38 1c79 2 165 1 249 7c8 -14 9 -77 9 -135v-103
c0 -5 1 -9 1 -13c0 -18 -2 -36 -13 -36zM1185 786v-125c-1 0 -1 0 -1 1l-286 -10c-263 -12 -518 -17 -780 -29l-21 27v6c-1 19 -2 36 -2 57v84c0 9 1 19 1 28v24c0 5 -1 10 -1 14v12c0 32 2 58 12 58h102c321 0 629 -4 969 -4c6 -14 7 -86 7 -143zM1195 650l-10 -11v22
c5 -7 10 -11 10 -11z" />
    <glyph glyph-name="greater" unicode="&#x3e;" horiz-adv-x="1269" 
d="M1196 404l-11 -10l-3 -3h3c-229 -91 -507 -203 -691 -283l-137 -57c-80 -33 -156 -65 -237 -93l-31 34c0 80 3 165 10 248c13 29 242 118 431 188l33 13h-1c81 29 201 75 239 91c-239 97 -460 198 -694 280c-3 6 -4 19 -4 31c0 4 1 7 1 10v30c0 19 -1 183 -3 200
c4 -3 6 -3 9 -3l414 -160l88 -33h-1l24 -9l429 -165l122 -50c10 -22 12 -143 12 -209c0 -29 0 -48 -2 -50zM98 1085l6 -2c-1 0 -1 -1 -2 -1s-3 1 -4 3z" />
    <glyph glyph-name="question" unicode="?" horiz-adv-x="1121" 
d="M1043 1354l12 -25c16 -38 35 -82 39 -128v-5c2 -16 5 -35 11 -55c-3 -63 -19 -145 -60 -205c-136 -164 -332 -207 -339 -350c7 -29 9 -71 9 -93h6l-13 -5c-3 -1 -11 -3 -19 -3l-120 -2c-119 0 -250 -4 -367 -8c-9 5 -11 39 -11 61c0 37 0 62 11 100
c46 164 265 244 296 412c-11 82 -76 93 -137 93l-5 -1c-96 -3 -182 -26 -271 -60l-33 27v16c1 119 2 232 2 357c0 63 238 81 381 88l39 2c157 0 287 -22 398 -73l45 -23l-1 1c50 -32 96 -72 128 -122zM710 46v-60c-62 -8 -133 -2 -199 -6l-54 -3c-34 -2 -67 -6 -103 -7
l-75 -3c-24 -1 -48 -2 -71 -2c-27 39 -22 46 -22 77v56c0 6 1 12 1 19v83c0 7 -1 14 -1 21c0 44 3 100 18 121l86 -3c370 -13 416 4 417 -63l2 -198c0 -12 1 -22 1 -32zM709 -36v21h2h-2l1 1h1h1l-1 -1l13 2c0 -11 -8 -23 -15 -23z" />
    <glyph glyph-name="at" unicode="@" horiz-adv-x="1671" 
d="M445 647v35c0 202 149 415 404 415c80 0 155 -27 206 -76l72 -107l10 36c11 41 27 95 38 138l84 -3l-68 -382c-6 -23 -15 -79 -15 -123c0 -72 19 -135 110 -135c153 65 200 242 200 382c0 430 -288 567 -594 567c-341 0 -657 -230 -657 -678c0 -362 315 -598 654 -598
c85 0 162 7 236 28c6 -20 6 -25 11 -40l23 -71c-100 -34 -211 -47 -332 -47c-397 0 -748 318 -748 743c0 495 392 791 794 791c382 0 745 -222 745 -603c0 -294 -190 -569 -373 -590c-70 5 -133 54 -177 170h-33c-71 -89 -148 -150 -290 -150c-161 0 -300 132 -300 298z
M1021 879c-37 48 -86 71 -145 71c-154 0 -238 -119 -256 -247c0 -138 72 -213 157 -216c174 0 281 134 281 271c0 50 -14 90 -37 121z" />
    <glyph glyph-name="A" unicode="A" horiz-adv-x="1639" 
d="M1550 -24c-21 0 -41 -1 -62 -1h-61c-32 0 -65 -1 -97 -1c-83 0 -161 1 -243 7h2c-3 1 -5 6 -7 12l-5 21c-6 65 -34 167 -47 199l-428 -4c-19 -74 -41 -154 -59 -228c-9 -9 -52 -10 -95 -10c-8 0 -17 1 -25 1h-58c-87 0 -173 -6 -260 -6h-30c-11 0 -19 -1 -28 -1h-70
c-5 5 -10 11 -15 18c81 285 179 575 271 858l23 71h-1l27 83c54 167 115 333 165 503c1 4 2 7 5 9h166c119 0 238 5 355 5l96 -5c19 0 50 5 79 5c30 0 60 -4 60 -24c168 -471 305 -936 455 -1392l14 -50c3 -12 4 -21 20 -57c-2 -15 -27 -13 -88 -13h-59zM866 1146l-4 9
c-6 17 -9 34 -42 48c-29 -7 -122 -429 -161 -602l-11 -66h59c11 0 25 -1 41 -1c94 0 239 1 239 1s-15 119 -23 175l-38 171c-20 88 -42 176 -60 265z" />
    <glyph glyph-name="B" unicode="B" horiz-adv-x="1571" 
d="M1329 62c-121 -71 -254 -90 -387 -90c-100 0 -199 4 -298 4c-174 0 -335 -4 -512 -9c-18 37 -21 89 -22 153c-3 115 -6 233 -6 348c0 218 1 429 5 648c0 6 -1 13 -1 20v62c0 95 2 196 5 296l-2 2l54 3c112 6 223 14 339 14h466c135 0 284 -28 397 -99
c76 -64 126 -184 126 -291c0 -171 -100 -270 -264 -356c199 -54 308 -178 308 -353c0 -173 -87 -282 -208 -352zM698 652l-18 -56c-4 -59 -7 -122 -7 -183c0 -50 0 -119 21 -134h37c127 0 259 20 259 194c0 170 -155 175 -263 179h-29zM966 1041c0 145 -136 176 -236 176
c-50 0 -78 -18 -78 -60c0 -69 2 -152 5 -219l2 -53c1 -25 15 -40 44 -45l49 6c92 11 214 41 214 195z" />
    <glyph glyph-name="C" unicode="C" horiz-adv-x="1556" 
d="M1521 1033l9 -94c-13 -12 -110 -16 -215 -16c-48 0 -112 2 -159 2h-13c-33 0 -62 2 -87 2c-8 0 -17 -1 -24 -1h-20c-64 0 -12 217 -156 217c-183 0 -182 -226 -182 -390v-24c0 -28 -4 -60 -4 -101c0 -116 19 -277 156 -282c92 0 105 85 127 152v-1c6 22 13 43 21 55h38
c14 0 30 -1 46 -1h162c16 0 33 1 49 1c32 0 63 -1 95 -1h58c19 0 39 -1 59 -1h40c8 -1 14 -10 17 -21l-3 -33c-31 -408 -390 -561 -723 -561c-651 0 -763 504 -763 862c0 3 2 10 2 19c14 107 28 221 81 334c148 294 448 388 727 388c438 0 635 -218 662 -505z" />
    <glyph glyph-name="D" unicode="D" horiz-adv-x="1648" 
d="M878 -27h-25c-92 0 -177 3 -266 3c-151 0 -302 -4 -453 -9c-16 30 -19 58 -19 85c0 12 1 24 1 36v156c0 76 2 153 2 222v366c-1 63 -2 123 -2 188v164c0 7 1 15 1 23v286c0 12 226 19 283 19h114c70 0 124 3 187 3c208 0 512 -19 687 -162l9 -7l-1 1
c37 -35 229 -218 229 -588c0 -503 -354 -778 -743 -782zM931 1173c-77 51 -163 37 -245 43c-10 -15 -19 -29 -24 -40l-18 -37v-56c0 -150 4 -321 8 -469l6 -289c4 -22 16 -33 40 -37c56 1 113 4 159 14c191 68 197 365 197 479c0 123 -4 304 -123 392z" />
    <glyph glyph-name="E" unicode="E" horiz-adv-x="1306" 
d="M1267 1224c-1 -22 0 -44 -2 -67c-5 -16 -30 -16 -59 -16h-7c-164 0 -340 3 -504 8c-1 -18 -5 -46 -6 -65l-5 -38c-5 -37 -6 -82 -7 -132l310 7c40 1 77 2 116 2h16c72 0 99 0 99 -24c0 -3 -1 -6 -1 -8v-24c0 -103 5 -163 5 -257l-1 -1v1c-162 -8 -325 -15 -486 -15h-47
v-242c186 0 361 17 543 17c23 0 48 -3 57 -13c-1 -26 -1 -49 -1 -74c0 -67 -1 -135 5 -187v1c1 -27 2 -55 2 -86c0 -15 -5 -26 -22 -29c-111 0 -221 3 -332 3c-128 0 -265 -4 -390 -7l-164 -4c-86 -2 -172 -5 -258 -6l-3 2h1c-4 5 -14 14 -19 19v35c0 367 6 736 6 1069
l1 145c0 76 -6 249 -5 263c1 0 3 -1 7 -3c353 6 788 13 1145 14c2 -1 5 -4 6 -6v-282z" />
    <glyph glyph-name="F" unicode="F" horiz-adv-x="1265" 
d="M1269 1370c0 -83 -1 -164 -4 -244c-105 -9 -213 -10 -320 -10l-231 -1v-29c0 -28 -2 -57 -2 -88c0 -25 -1 -24 3 -68c155 13 262 21 414 21c44 0 89 -8 104 -18v-335c0 -47 -21 -55 -53 -55h-13c-12 0 -37 2 -54 2c-127 -7 -270 -12 -397 -15c0 -135 7 -272 7 -398
c0 -11 -1 -23 -1 -34v-94c0 -21 -2 -30 -18 -32c-198 0 -383 -5 -572 -5c-1 3 -2 6 -5 11l-10 16c-2 33 -4 101 -4 112l6 1391c0 11 70 13 136 13c8 0 16 -1 25 -1h68c163 0 325 5 483 5c116 0 220 -4 343 -4h34c4 0 10 1 15 1c41 0 47 -22 47 -48c0 -31 -1 -62 -1 -93z" />
    <glyph glyph-name="G" unicode="G" horiz-adv-x="1681" 
d="M1614 54l-3 -8h1c-1 -2 0 -3 -1 -5c-68 -51 -389 -96 -530 -96c-9 0 -19 0 -27 1l-51 -3c-32 -2 -60 -5 -92 -5c-565 0 -859 298 -859 810c0 666 535 791 877 791c80 0 253 -15 374 -55h-1c131 -54 235 -162 265 -291v1c8 -54 11 -111 19 -163c-5 -13 -25 -15 -43 -15
c-173 0 -338 9 -508 9c-5 3 -7 15 -10 27v-3l-2 9c-11 44 -28 99 -129 99c-247 0 -229 -340 -229 -465v-23c0 -128 -4 -337 241 -337c74 0 136 5 208 29l5 158l-72 6l-10 -5h-104c-3 0 -8 -1 -12 -1l-25 26c-2 17 -2 37 -2 54v224c0 12 7 22 24 34h67c69 0 141 -1 195 -2h10
c49 -1 96 -2 149 -2h60c7 0 15 1 23 1c79 0 180 -2 203 -23c0 -256 -12 -521 -12 -759v-14c0 -2 1 -3 1 -4z" />
    <glyph glyph-name="H" unicode="H" horiz-adv-x="1654" 
d="M1562 497v-48c0 -24 1 -58 2 -84v-23c0 -10 0 -18 -1 -26c0 -97 1 -229 2 -330c-11 -15 -94 -19 -175 -19c-199 0 -282 1 -419 6c-7 8 -13 17 -19 25v160c0 118 2 200 2 307c0 61 -5 61 -71 61h-14c-49 0 -95 0 -150 -9v-140c0 -149 -2 -255 -2 -387
c-13 -14 -136 -16 -251 -16h-48c-118 0 -206 0 -299 6h2c-15 5 -19 69 -19 142c0 77 6 158 6 221c0 309 7 619 10 896v48c3 50 -2 188 12 218h5c33 -1 62 -2 97 -2h112c40 0 88 2 121 2h38c187 0 212 -25 212 -100c0 -36 -3 -76 -3 -125v-47c0 -58 -6 -128 -6 -198
c0 -10 0 -22 3 -58h62c8 0 16 -1 25 -1h80c27 0 57 2 90 7v237c0 24 1 49 1 74v69c0 5 -1 11 -1 16v51c0 82 5 85 34 85c7 0 13 -1 20 -1h65c6 0 21 0 38 1h-1c41 2 108 5 179 5c123 0 258 -7 258 -41v-71c0 -8 1 -17 1 -24c0 -17 -1 -35 -1 -52v-155c0 -220 5 -428 5 -638
c0 -15 -1 -29 -2 -42z" />
    <glyph glyph-name="I" unicode="I" horiz-adv-x="842" 
d="M716 1488v-304v-58c0 -279 7 -541 7 -814c0 -6 1 -11 3 -15v-2c2 -4 3 -8 3 -13c0 -48 3 -101 4 -147l4 -144c-3 -7 -11 -14 -18 -17h-34c-195 0 -379 -9 -560 -9c-8 4 -18 10 -26 15c0 6 1 9 1 17l3 110c2 96 -2 187 11 282c0 288 4 582 12 877c-2 42 -3 86 -3 127v33
c-3 23 -4 48 -4 72c0 5 2 10 5 14c148 -9 284 -13 440 -13c56 0 106 1 156 6c1 -2 2 -7 3 -17h-7z" />
    <glyph glyph-name="J" unicode="J" horiz-adv-x="1383" 
d="M1297 1401l-2 -51c-7 -190 -7 -370 -7 -564v-110c0 -74 0 -141 -1 -211c-4 -417 -407 -523 -656 -523c-94 0 -188 6 -284 35c-148 38 -357 171 -357 447v26c0 4 -1 8 -1 12c0 19 2 39 12 39c39 0 84 -4 129 -4c22 0 58 0 83 1c10 -1 25 -2 37 -2h35c5 0 10 1 13 1l170 -3
h-1c96 -9 -1 -148 130 -148c88 0 94 103 94 176v26h-3l-4 142c-4 149 -4 302 -5 456c0 117 1 232 5 349l-1 1c0 7 1 9 6 12l13 2c16 0 32 -1 49 -1h366c24 0 48 1 73 1h98c4 0 9 -3 12 -9c-2 -22 -2 -47 -2 -67v-16c0 -5 -1 -11 -1 -17z" />
    <glyph glyph-name="K" unicode="K" horiz-adv-x="1646" 
d="M1222 788l23 -37c17 -21 32 -43 43 -60l336 -572l24 -39c18 -30 44 -73 44 -88c0 -5 -3 -9 -6 -13h-6c-28 1 -53 2 -83 2c-26 0 -70 -1 -98 -2h-449l-320 625c-13 -125 -20 -302 -24 -378v-13c0 -48 2 -168 2 -227c-10 -15 -56 -18 -105 -18c-7 0 -14 1 -21 1h-54
c-96 0 -209 -2 -283 -2h-92c-27 0 -32 6 -40 21l-3 3v152c0 56 2 105 2 157v565l3 495c0 26 -3 62 -3 86c0 30 1 56 11 68c27 1 42 1 71 1c52 0 107 0 162 -1l141 -2c13 1 44 3 80 3c50 0 113 -6 127 -20c-4 -195 -5 -386 -5 -580l35 -6c25 66 69 142 100 208l11 24
c29 64 58 117 86 188c22 56 57 137 90 178c70 1 129 1 200 1c141 0 270 -7 406 -7c-130 -235 -260 -474 -405 -713z" />
    <glyph glyph-name="L" unicode="L" horiz-adv-x="1265" 
d="M1269 380c-5 -15 -6 -38 -6 -56v-23c0 -25 0 -53 7 -76c0 -82 0 -154 -1 -236v3c-6 -26 -760 -26 -987 -26c-51 0 -97 1 -149 2c-14 26 -16 59 -16 99c0 20 2 44 2 65v227c0 48 1 119 1 190v188c0 99 1 200 1 303c0 50 0 84 -2 158v11c0 42 -3 94 -3 144
c0 70 7 140 21 165c20 -1 32 -1 55 -1h48c56 0 110 2 168 2c149 0 292 -6 316 -36c0 -116 -8 -227 -8 -349l-3 -293c0 -4 -1 -8 -1 -12l-4 -416l40 -23c132 8 203 11 412 11c61 0 108 -3 110 -17c-1 -2 -1 -4 -1 -4z" />
    <glyph glyph-name="M" unicode="M" horiz-adv-x="2193" 
d="M1908 -33c-97 -1 -190 -1 -286 -1c-34 30 -35 155 -35 268c0 128 2 224 2 314v81c0 47 0 107 -1 158l-38 7c-45 -165 -89 -370 -127 -539l-9 -40c-17 -75 -32 -156 -50 -231c-12 -14 -60 -14 -106 -14h-13c-38 0 -75 3 -112 3c-20 0 -42 -1 -61 -1h-47
c-25 0 -52 -1 -79 -1c-32 0 -70 -3 -79 21l1 -1l-91 397c-12 50 -32 100 -34 150l-75 324l-37 -2c-7 -165 -12 -342 -12 -514c0 -96 0 -261 1 -364c0 -1 0 -2 -1 -2h-73c-8 0 -16 1 -25 1c-120 0 -236 -3 -355 -3c-17 0 -34 0 -36 -1c0 2 2 9 4 17v6c0 1 1 3 1 4
c-3 43 -5 127 -5 175c4 377 2 741 4 1117c0 18 -1 35 -1 52v50c0 31 -2 62 -2 94c0 6 2 12 11 21h137c24 0 49 1 80 1c487 0 396 -16 578 -16c27 -159 55 -301 86 -456l71 -358h35l127 649c0 2 2 7 2 15l3 16c9 47 19 131 27 142h4c225 0 433 6 651 6c12 0 26 -1 39 -1h112
c6 -3 9 -13 10 -37l10 -378c6 -242 12 -487 17 -732c0 -123 -2 -261 -6 -379c-3 -13 -20 -13 -40 -14l-45 -2c-27 -1 -53 -2 -80 -2h-52z" />
    <glyph glyph-name="N" unicode="N" horiz-adv-x="1727" 
d="M1626 288v-25c0 -54 2 -126 2 -176v-50c0 -19 1 -35 1 -47c-5 -7 -28 -8 -49 -8h-26c-111 0 -214 -4 -314 -4c-103 0 -200 0 -298 1c-19 21 -86 224 -109 291l-191 507l-36 -5c0 -30 -1 -71 -1 -102v-271c0 -92 4 -186 4 -271v-112c0 -23 1 -44 -20 -47
c-66 2 -130 3 -189 3h-31c-46 0 -109 -4 -151 -4h-20c-21 0 -48 -2 -72 -2l-3 2c-15 14 -33 29 -33 45v18c0 6 1 14 1 20l5 390c0 325 0 642 12 971l2 83c0 10 584 15 689 16c6 -4 12 -24 18 -44v3l6 -20c61 -174 132 -362 197 -531v1c30 -78 62 -156 91 -237l34 2
c0 273 4 560 4 815c0 7 67 8 146 8c91 0 194 -5 251 -5h74c6 -284 7 -535 7 -803c0 -22 -1 -44 -1 -67v-345z" />
    <glyph glyph-name="O" unicode="O" 
d="M833 1178c-193 0 -207 -216 -219 -367l-4 -51c0 -2 -1 -4 -1 -5v-3c-2 -21 -4 -52 -4 -81c0 -153 33 -364 197 -372c240 0 246 260 246 489c0 159 -21 390 -215 390zM1460 230l-46 -61c-133 -154 -398 -224 -600 -227c-177 0 -330 29 -469 120
c-251 163 -310 439 -310 690c0 4 2 12 2 22c12 129 30 277 97 402c147 255 424 376 723 376c157 0 429 -49 560 -223c72 -90 123 -168 153 -272c26 -82 38 -198 38 -281c0 -208 -38 -406 -148 -546z" />
    <glyph glyph-name="P" unicode="P" horiz-adv-x="1527" 
d="M405 1499h159c87 0 191 7 294 7c45 0 89 -2 132 -5h7c17 1 30 2 43 2c259 0 491 -174 491 -498c0 -418 -353 -495 -587 -517h1l-216 -9c-5 -120 -10 -259 -10 -373c0 -11 1 -21 1 -31v-81c-2 -8 -8 -16 -15 -19l-571 -9c-18 51 -17 96 -17 154v541c0 156 2 271 2 411v417
c5 2 63 -1 88 3l124 5c24 1 50 2 74 2zM992 1090v-1c-42 113 -172 114 -281 114c-13 0 -14 -185 -15 -295l-2 -75l3 -60c150 3 310 51 310 234c0 35 -4 63 -15 83z" />
    <glyph glyph-name="Q" unicode="Q" horiz-adv-x="1642" 
d="M1594 368c59 -3 68 -22 68 -44c0 -3 -1 -7 -1 -11v-10c-1 -7 -1 -19 -1 -24v-37c0 -4 1 -8 1 -13l1 -97c0 -8 -1 -17 -1 -26v-49c0 -11 -1 -23 -1 -35c0 -6 1 -11 1 -17v-28c-3 -10 -11 -17 -23 -23c-40 5 -165 16 -281 16c-204 0 -373 -40 -555 -40
c-294 0 -476 125 -603 321c-4 0 -13 -1 -13 -2l-14 14c-91 142 -123 316 -123 484c0 586 410 805 820 805c475 0 748 -336 748 -765c0 -138 -54 -299 -143 -421h55c22 0 42 2 65 2zM828 289h18c7 0 12 -2 20 -2c168 0 176 251 180 377v18c0 42 3 82 3 130
c0 167 -20 387 -216 387c-197 0 -228 -284 -228 -472c0 -152 2 -439 211 -439c2 0 8 1 12 1z" />
    <glyph glyph-name="R" unicode="R" horiz-adv-x="1561" 
d="M1542 122c8 -45 16 -90 28 -130l-4 -3c-124 -8 -241 -11 -369 -11c-66 0 -125 2 -190 5h-6c-25 0 -53 184 -66 295l-5 43c-6 151 -48 186 -158 186c-4 0 -9 -1 -13 -1h-53v-304c0 -10 1 -21 1 -32v-183c-2 -6 -8 -11 -15 -12c-192 -7 -383 -2 -575 -5c-3 1 -5 2 -6 2
s-2 -1 -2 -1c-2 0 -3 1 -6 3l2 90c0 10 -1 20 -1 30c0 138 4 276 4 415v73c0 24 1 49 1 75l1 259c0 11 1 21 1 34c0 74 -3 148 -3 227c0 105 4 211 4 319c0 7 25 8 57 8c16 0 40 -1 64 -1h61c41 0 85 -1 127 -1l138 2c107 0 214 3 321 3c62 0 123 -1 185 -4
c299 -8 456 -146 456 -384c0 -173 -108 -284 -286 -369c295 -93 272 -397 297 -577zM1576 -5l-5 -3v2c0 1 2 1 5 1zM1571 -8v-1s-1 0 -1 1h1zM929 1178c-51 22 -106 26 -160 26h-58c-10 -15 -11 -56 -11 -118c0 -83 0 -203 5 -255c136 3 313 38 313 216
c0 72 -40 108 -89 131z" />
    <glyph glyph-name="S" unicode="S" horiz-adv-x="1484" 
d="M619 1102c0 -70 94 -93 159 -110l35 -9c61 -19 172 -37 292 -76v1c201 -68 368 -176 368 -430c0 -425 -426 -511 -737 -541c-222 0 -521 61 -605 230c-60 86 -68 144 -78 247c3 -1 6 -1 9 -1c181 0 351 9 529 9c50 0 20 -136 175 -136c72 0 147 42 147 126
c0 92 -118 117 -215 138h1c-8 3 -24 3 -35 7h2l-57 15c-34 6 -56 10 -92 22c-314 84 -452 200 -452 422c0 412 391 542 725 542c149 0 328 -26 451 -104h-1c149 -108 181 -200 193 -331l-26 -26c-158 -6 -301 -10 -466 -10c-124 0 -26 102 -174 102h-4
c-27 0 -141 -17 -144 -87z" />
    <glyph glyph-name="T" unicode="T" horiz-adv-x="1318" 
d="M1334 1106c-1 -3 -2 -4 -4 -4c-120 0 -237 3 -362 3c-2 -97 -2 -210 -2 -304c0 -74 0 -205 1 -285l4 -530c-3 -8 -10 -14 -20 -15c-75 0 -142 3 -211 3l-1 -1c-23 0 -45 1 -66 1h-183c-37 0 -74 0 -111 -1l-17 15c-6 6 -9 11 -13 16c0 132 4 261 7 391l2 80
c0 151 9 301 9 452l-2 25c-9 121 -3 139 -67 139c-15 0 -32 -2 -40 -2l-248 4c-9 18 -13 67 -13 117c0 32 2 63 2 88v27s-1 160 -3 171c0 0 2 0 8 -2c431 0 850 11 1273 11c55 0 59 -7 59 -26v-264c0 -26 1 -53 1 -80c0 -10 -1 -19 -3 -29z" />
    <glyph glyph-name="U" unicode="U" horiz-adv-x="1615" 
d="M833 -62c-328 0 -693 129 -729 555c3 251 5 513 5 773c-1 0 -5 54 -5 116c0 48 1 97 9 119h21c129 7 264 8 401 8c32 -8 88 -3 131 -8l31 -4c5 -146 8 -389 9 -545l-3 -202c0 -70 -3 -118 -3 -200c0 -85 12 -200 116 -200c68 0 115 72 118 140l4 10l3 337c0 10 1 20 1 30
c0 144 -2 304 -6 448l-2 73c-1 22 -2 46 -2 70c0 26 4 49 11 57c201 0 386 0 582 -3l5 -4l-4 3c4 -6 9 -8 17 -12h-1l11 -7c-7 -165 -8 -320 -8 -486v-172c0 -19 1 -38 1 -59c0 -93 -3 -188 -3 -281c0 -444 -367 -556 -710 -556z" />
    <glyph glyph-name="V" unicode="V" horiz-adv-x="1555" 
d="M942 -22h-75c-24 -3 -52 -4 -79 -4c-127 0 -250 -2 -376 -5c-34 30 -65 164 -83 255c-31 151 -97 354 -142 514l-30 106c-60 210 -135 448 -178 656c0 6 496 8 586 8c9 0 17 1 28 -13l178 -1022l8 -53h40l9 52c33 209 76 420 118 629l24 113c20 93 37 192 55 284
c38 10 333 12 509 12h45c9 -5 13 -9 15 -13l-201 -727c-9 -33 -20 -70 -26 -102v1l-47 -184c-44 -187 -119 -485 -162 -512c-29 0 -56 1 -85 2h-5c-45 0 -83 3 -126 3z" />
    <glyph glyph-name="W" unicode="W" horiz-adv-x="2130" 
d="M2032 760l-8 -37c-6 -25 -23 -57 -22 -78l-70 -317l-32 -157c-13 -64 -26 -127 -37 -191l-5 2c-70 -4 -143 -4 -213 -4h-156c-18 0 -36 1 -54 1c-70 0 -136 -1 -206 -4c-11 0 -44 288 -51 327l-9 50c-22 143 -44 296 -64 443l-37 1c-46 -236 -78 -493 -101 -714
c-5 -51 -15 -111 -43 -115c-86 3 -173 5 -260 5c-121 0 -241 -3 -361 -7c-26 21 -37 76 -44 121l-6 39c-47 245 -105 498 -158 744l-21 97c-37 172 -81 365 -115 534c1 6 6 10 14 14c15 -2 32 -3 49 -3h12l95 3c47 0 94 3 138 3c34 0 68 0 105 -3h63c10 0 21 -1 33 -2h14
c42 0 94 -574 121 -764l7 -57l39 -1c29 182 56 363 82 542c0 30 23 236 49 275c11 -1 23 -1 35 -1c60 0 116 1 174 1h389c3 0 5 -1 6 -2l36 -234c24 -177 60 -396 85 -567l8 -54h38c23 259 60 513 98 761l4 23c6 38 -12 77 63 77c252 0 436 -14 469 -18c2 -2 6 -13 8 -23
c-49 -227 -108 -465 -161 -710z" />
    <glyph glyph-name="X" unicode="X" horiz-adv-x="1600" 
d="M1167 740l22 -40l31 -43l87 -132l-1 1l24 -42c14 -24 33 -50 48 -73v1l180 -278v1l90 -143c2 -2 3 -4 3 -7c0 -12 -20 -15 -50 -17c-173 0 -346 -4 -513 -4c-31 0 -65 3 -83 14c-13 31 -31 63 -46 95l-161 337c-14 -25 -50 -98 -73 -144l-6 -15v1
c-49 -106 -118 -245 -156 -282c-114 3 -219 4 -333 4c-23 0 -44 -1 -65 -1h-187c-2 1 -5 4 -5 6c0 30 54 109 96 171c3 3 7 7 10 15l376 589l-92 151l-213 367l-140 231l1 -1s-1 2 -1 4h159c102 0 210 -1 312 -8c49 0 92 0 141 1c33 -32 118 -231 157 -326v1l15 -40l34 -67
l31 70c29 71 145 330 172 361l5 -3l114 4c139 5 330 12 473 12c6 -3 9 -10 9 -23c0 -4 -1 -6 -1 -8l-236 -378c-17 -31 -37 -59 -56 -89zM1650 -8h-2v3zM1647 -2l1 -3c-1 1 -1 2 -1 3z" />
    <glyph glyph-name="Y" unicode="Y" horiz-adv-x="1524" 
d="M1070 396v-413c-3 -9 -10 -16 -20 -16c-197 0 -378 -4 -573 -4c-19 24 -22 43 -22 64c0 42 2 84 2 125v29c0 11 1 20 1 30l1 73c0 231 -85 406 -174 589l-149 298c-26 49 -47 93 -83 158l-6 11v-1c-36 55 -80 127 -80 162c0 4 15 5 32 5h257c106 0 213 0 321 -3
c25 -5 117 -304 167 -481l45 -159c79 206 160 471 215 638c1 8 80 8 148 8h128c24 0 46 0 77 -2h173c11 0 23 1 33 1c6 -3 11 -10 15 -25l-30 -59v1l-65 -125c-63 -116 -135 -244 -190 -364v1l-34 -65l-187 -374c-2 -34 -2 -69 -2 -102z" />
    <glyph glyph-name="Z" unicode="Z" horiz-adv-x="1395" 
d="M729 371h53c80 0 387 8 580 8c13 0 15 -98 15 -178v-112c0 -21 2 -39 2 -65c0 -46 -19 -49 -57 -49h-26c-402 0 -800 -10 -1199 -10c-34 0 -50 3 -71 34c0 27 0 273 -7 340l16 13l141 171l481 593c-88 0 -230 -3 -295 -3l-74 -2c-73 -2 -144 -3 -219 -3
c-14 7 -7 41 -10 68v19c0 2 1 5 1 8v59c0 86 -9 203 -9 229c0 4 1 6 1 6c1 0 4 -1 9 -4c321 -1 690 5 1009 10l217 3c39 -1 66 -8 66 -61c0 -20 -2 -36 -2 -56v-10c0 -95 -3 -152 -3 -200v-13c-14 -92 -128 -223 -219 -322l-77 -84l-209 -250z" />
    <glyph glyph-name="bracketleft" unicode="[" horiz-adv-x="1035" 
d="M988 1403c-1 -51 0 -194 -3 -209c-29 -1 -68 -2 -95 -2c-76 0 -168 6 -243 12c-3 -209 -6 -432 -6 -640c0 -178 0 -370 5 -537c101 0 196 4 290 4h37c14 -14 19 -81 19 -143c0 -44 -2 -76 -2 -100v-25c0 -10 2 -21 2 -29c0 -26 0 -61 -23 -64c-256 0 -509 -9 -759 -9
l-13 14c-21 22 -25 50 -25 79c0 19 2 38 2 57v77c0 9 1 17 1 27v134c0 488 0 983 23 1474c0 7 13 8 30 8c40 0 80 -2 114 -2h38c200 0 290 8 496 8c95 0 112 -43 112 -134zM985 1193l2 1c-1 -1 1 -1 -2 -1z" />
    <glyph glyph-name="backslash" unicode="\" horiz-adv-x="809" 
d="M860 -57l-1 1c0 -9 -8 -16 -21 -16h-40c-8 0 -15 -1 -22 -1h-117c-10 0 -21 1 -31 1h-28c-29 0 -58 1 -79 -2l-99 296l-448 1343l6 4c70 -4 135 -6 208 -6c23 0 54 1 78 2c1 -1 2 -1 2 -1c0 -1 -1 -3 -1 -8c0 -3 0 -7 1 -12l272 -732v1l58 -157l259 -700
c0 -3 1 -10 3 -13z" />
    <glyph glyph-name="bracketright" unicode="]" horiz-adv-x="1036" 
d="M856 -214v-79c0 -13 -1 -22 -11 -33c-51 -3 -96 -4 -147 -4h-33l-303 3c-93 1 -185 1 -277 3h2c-8 2 -9 12 -10 22v3c-3 84 -5 175 -5 261c0 55 7 60 27 60h32c88 0 198 0 285 3v115c0 341 -7 691 -14 1033h-150c-56 0 -111 -3 -166 -3c-6 7 -15 14 -22 25v199
c0 18 1 35 1 53v32c0 4 -1 9 -1 13c0 22 2 43 12 55h82c73 0 125 -2 190 -2c38 0 102 1 142 1h70c24 0 48 1 73 1c78 0 166 -10 247 -10v-42v-29c0 -17 -1 -33 -1 -49v-175c0 -204 -5 -409 -9 -614l-4 -176c0 -222 -10 -444 -10 -666zM880 1537v10l10 -10h-10z" />
    <glyph glyph-name="asciicircum" unicode="^" horiz-adv-x="1275" 
d="M647 1218l-208 -437c-3 -3 -7 -7 -10 -9h-20c-72 0 -141 -2 -212 -2c-7 0 -18 1 -27 1c-7 0 -13 -1 -15 -2c48 106 102 213 152 318l77 161l138 287l2 2c81 -1 157 -1 233 -1c7 0 13 0 19 1c2 -2 2 -7 4 -19l378 -736c-9 -20 -65 -26 -151 -26c-37 0 -74 3 -103 3h-22
c-21 0 -65 107 -88 154l-40 82c-27 60 -75 161 -107 223zM145 761l-8 8l17 -1c-1 0 -1 -1 -1 -1l-2 -6h-6zM137 768h-4l1 3zM154 767c0 -4 -1 -5 -3 -6zM155 769l-1 -2v1s0 1 1 1z" />
    <glyph glyph-name="underscore" unicode="_" horiz-adv-x="1050" 
d="M1076 -232c-3 -46 3 -47 -28 -47c-23 0 -47 1 -68 1h-42c-14 0 -28 1 -44 1c-291 0 -586 -9 -880 -25l-23 30v3c-3 15 -6 31 -6 47c0 34 2 54 15 54h326c116 0 252 2 374 2c116 0 224 0 298 -4c59 -3 78 -6 78 -62zM1091 -286l-18 9l1 2z" />
    <glyph glyph-name="grave" unicode="`" horiz-adv-x="633" 
d="M214 1430l-6 -2c-2 -1 -2 -2 -3 -2c-14 15 -23 28 -36 44v-1l-31 38c-39 47 -74 92 -141 160c-56 56 -114 117 -114 139c0 3 3 8 9 13c148 -13 290 -18 440 -18h30c2 0 3 1 6 1c28 -21 142 -224 182 -284l9 -11c0 -1 2 -4 3 -5c13 -20 31 -49 31 -58
c0 -12 -29 -14 -61 -14h-318z" />
    <glyph glyph-name="a" unicode="a" horiz-adv-x="1575" 
d="M1475 199c0 -65 10 -124 29 -180l10 -22h-452c-12 0 -23 1 -36 1c-21 0 -40 0 -61 -1c-18 34 -43 100 -61 164c-16 -34 -70 -96 -91 -96c-68 -33 -143 -71 -210 -80l-15 -2c-36 -5 -88 -19 -131 -19c-215 0 -422 130 -422 363c0 138 53 256 226 298c74 18 146 22 224 29
l33 3c9 0 41 7 46 7c4 0 7 -1 10 -1h24c16 0 38 1 53 5l54 7c92 6 180 17 180 155c-5 8 -6 17 -6 27c0 51 -43 101 -96 101h-5c-90 0 -96 -116 -96 -163l-2 -3c-7 -4 -8 -5 -10 -5l-4 1c-12 1 -25 3 -56 3h-516c4 59 17 104 35 153v-1c87 212 368 285 566 292l60 3
c9 0 23 3 32 3c4 0 8 -1 12 -3h13c16 0 33 2 45 2c19 0 42 -4 63 -7l29 -4c14 -2 29 0 45 -2c424 -56 478 -374 478 -663c4 -13 7 -30 7 -42c0 -26 -5 -48 -5 -69v-116c1 -2 1 -8 1 -17c0 -19 -2 -51 -2 -68v-9c3 -5 3 -9 3 -14c0 -3 -1 -6 -1 -9v-21zM889 330l2 10
c0 20 1 39 1 62v30c0 11 1 22 1 32c0 25 0 50 -8 96c-83 -45 -197 -43 -197 -156c0 -67 42 -128 105 -128c30 0 75 18 96 54z" />
    <glyph glyph-name="b" unicode="b" horiz-adv-x="1524" 
d="M1478 659v-6l-1 -51c-3 -299 -103 -638 -517 -638c-125 0 -230 62 -320 147l-46 -32l-43 -84h-512c0 265 -1 518 -1 780v780c205 2 394 2 599 2c2 -94 2 -167 2 -261c0 -58 -1 -157 -2 -216c117 99 255 159 375 159c104 0 205 -34 287 -116c2 -2 4 -5 7 -6l7 -6
c20 -20 27 -40 39 -50v1l10 -8c44 -58 77 -139 97 -213v1c8 -34 18 -96 18 -139c0 -10 0 -16 -1 -26c0 -11 2 -14 2 -18zM858 559c0 106 -25 323 -129 323c-67 0 -100 -103 -111 -155c-13 -63 -15 -137 -15 -203c0 -83 46 -247 129 -247c94 0 126 167 126 245c0 2 0 8 -1 11
v2c1 4 1 8 1 11v13z" />
    <glyph glyph-name="c" unicode="c" horiz-adv-x="1520" 
d="M764 1240c62 0 128 -5 184 -22l20 -6c-1 0 -1 0 -1 1h2l15 -4c169 -42 350 -135 436 -294l2 -7c36 -73 55 -139 67 -226l-23 8h-626l-5 37c-7 51 -17 116 -54 153l-8 5c-4 1 -8 3 -12 7c-108 -8 -92 -249 -102 -278c0 -26 5 -107 5 -105l10 -10h-11
c3 -41 23 -155 88 -155c68 0 86 122 86 175c77 4 157 4 232 4h38c25 0 61 -1 96 -1h96c59 0 131 -1 193 -1c-20 -206 -122 -365 -303 -454c-21 -7 -40 -16 -55 -23l-38 -18c-86 -33 -200 -61 -291 -61c-7 0 -14 0 -19 4c-28 0 -45 -5 -80 -5s-99 9 -120 14
c-33 0 -65 8 -95 17l-13 4c-129 30 -260 93 -340 187l-18 21c-64 83 -99 201 -113 301l-3 21c-2 16 -4 34 -4 48c1 188 83 431 282 537l135 72c120 44 303 54 347 54z" />
    <glyph glyph-name="d" unicode="d" horiz-adv-x="1528" 
d="M874 1554h298c98 0 201 1 300 1c0 -523 1 -1038 1 -1561h-510c-12 19 -22 36 -31 63l-40 70c-116 -103 -213 -163 -388 -163c-261 0 -471 228 -471 563c0 102 14 218 37 308c49 169 164 378 361 399c5 0 10 -1 15 -1c35 0 57 6 85 6c90 0 201 -55 277 -107l21 -13l-1 1
c9 -6 17 -9 29 -22l31 14c-2 8 -7 24 -9 35l-2 8c-5 16 -6 21 -6 27v6c0 15 3 41 3 101v265zM908 543c-1 54 -6 114 -12 159c-10 68 -58 178 -114 178c-86 0 -125 -216 -125 -307c0 -4 0 -14 1 -19c-2 -6 -2 -14 -2 -21c0 -4 1 -7 2 -10c-2 -6 -2 -10 -2 -13
c0 -35 9 -80 21 -113l-1 1c6 -27 56 -123 107 -123c7 0 15 1 21 5h-1c97 39 105 231 105 263z" />
    <glyph glyph-name="e" unicode="e" horiz-adv-x="1475" 
d="M1426 645c0 -10 0 -41 1 -65h-824v-33c5 -19 6 -38 6 -56c0 -106 17 -128 43 -176v1l11 -21c16 -17 31 -24 52 -30c77 16 93 98 105 159l2 10c36 10 68 10 102 10c42 0 86 -3 128 -3h369c-8 -81 -31 -154 -72 -224h1c-111 -175 -411 -250 -571 -250c-6 0 -12 1 -16 2h-23
c-3 0 -6 -1 -9 -1h-9c-5 0 -8 0 -20 2c-8 -5 -18 -6 -24 -6c-13 0 -33 7 -53 7h1c-6 2 -14 3 -35 3c-5 -2 -10 -3 -15 -3c-39 0 -82 14 -126 27v-1l-26 8l2 -1c-19 7 -21 7 -24 8c-199 58 -354 215 -394 412c-6 44 -19 78 -19 107c0 6 1 14 2 19c-2 9 -2 18 -2 26s0 17 1 26
v15c0 287 187 501 465 584h-1l24 7c23 4 57 11 76 19l-1 -1l14 4c37 6 79 9 112 9c22 0 44 -2 67 -4l42 -4c59 -6 87 -6 152 -23v1l21 -9c123 -38 241 -100 327 -198v1c26 -31 106 -148 106 -186l8 -27l5 -29c11 -39 19 -78 19 -116zM852 712l21 13c-15 86 -40 233 -135 233
c-79 0 -123 -144 -134 -250c32 2 87 4 118 4h130z" />
    <glyph glyph-name="f" unicode="f" horiz-adv-x="893" 
d="M832 1568v-213h-34c-17 0 -36 0 -52 1c-76 -29 -79 -107 -79 -166c1 -3 2 -6 2 -10c0 -2 -1 -4 -1 -5v-28c27 -5 51 -6 74 -6h45c13 0 26 0 41 -1v-307h-163v-834c-75 0 -137 -1 -209 -1c-97 0 -194 1 -295 2v834h-114c0 54 -1 98 -1 151v150h118v38c0 6 0 11 1 17
c-2 10 -3 23 -3 36c0 91 43 236 124 307c46 33 126 38 186 38c117 0 243 -1 360 -3z" />
    <glyph glyph-name="g" unicode="g" horiz-adv-x="1599" 
d="M854 192c-82 -36 -191 -48 -272 -48c-296 0 -544 207 -544 518c0 323 221 578 567 578c124 0 239 -30 339 -113l13 -14c4 -5 6 -9 39 -31l14 44v70h259c86 0 172 1 260 1l1 -933c0 -17 -1 -35 -2 -53v-4c-1 -19 -1 -42 -1 -60v-11c0 -17 2 -37 2 -53c0 -14 -6 -43 -6 -56
c0 -4 0 -5 1 -5c0 -1 -1 -5 -2 -8l-4 -13v2c-7 -41 -15 -78 -25 -105c-59 -158 -268 -289 -375 -304c-17 -17 -50 -14 -74 -23v1c-76 -25 -141 -32 -227 -32c-47 0 -47 0 -50 2h-30c-6 -2 -18 -3 -29 -3c-39 0 -110 12 -159 23l-32 7c-39 8 -87 21 -120 37l-13 6
c-180 72 -292 181 -333 415l-2 9c32 -2 61 -2 94 -2c55 0 109 3 164 3h443c0 -2 -1 -4 -1 -4c0 -58 23 -137 91 -137c80 0 97 128 97 197v20c-2 0 -3 -2 -3 -4c-2 3 -2 11 -2 17c0 17 0 27 2 37v-1c1 5 2 11 2 22c0 7 0 15 -9 81c-17 -29 -53 -67 -73 -73zM961 682
c-4 96 -14 290 -128 290c-120 0 -133 -231 -133 -284c0 -17 0 -21 2 -25v1c1 -3 1 -6 1 -11v-9c0 -2 -1 -5 -1 -7v-6c0 -97 51 -237 138 -237c49 0 84 66 110 164h-5c8 21 15 48 15 80v32c0 4 1 8 1 12z" />
    <glyph glyph-name="h" unicode="h" horiz-adv-x="1438" 
d="M1374 354v-183c0 -59 1 -114 1 -172h-568l-1 512c0 20 3 68 3 111c0 127 -42 180 -96 180c-99 0 -101 -120 -101 -210v-128c0 -14 1 -27 1 -42v-422c-100 0 -189 -1 -287 -1h-285c0 267 -1 520 -1 784v785c201 2 380 2 579 2l1 -504c96 108 244 173 361 173
c100 0 218 -57 288 -146c59 -93 106 -244 106 -329c0 -29 -2 -61 -2 -99c0 -98 1 -226 1 -311z" />
    <glyph glyph-name="i" unicode="i" horiz-adv-x="764" 
d="M63 1441c0 44 -1 89 -1 135c221 0 412 2 618 2c0 -94 1 -181 1 -274h-616c0 44 0 96 -2 137zM52 1576l10 10v-10h-10zM657 -1h-364l-42 -4c-53 0 -123 1 -174 2h1l-17 2v7c0 5 -1 11 -1 19v45c0 114 1 219 6 327l3 214c0 116 8 439 8 556v30l78 1c6 0 12 -1 17 -1h29
c7 0 16 -1 25 -1c4 0 9 1 13 1h72c5 0 11 1 15 1l341 -4c1 0 3 1 5 1s3 -1 3 -6l1 -95c3 -237 7 -385 7 -480c0 -60 -1 -97 -1 -125v-53c0 -19 3 -33 3 -53v-31c0 -2 -1 -3 -1 -4v-31c0 -3 1 -6 1 -9l1 -150c0 -54 -7 -154 -11 -157z" />
    <glyph glyph-name="j" unicode="j" horiz-adv-x="918" 
d="M251 1554h292c95 0 195 1 292 1c0 -89 1 -172 1 -261h-582c0 94 -3 175 -3 260zM838 -108v-4c2 -13 3 -26 3 -39c0 -103 -46 -247 -124 -300h1c-107 -70 -250 -84 -378 -84c-41 0 -91 3 -106 3h-6c-2 0 -4 -1 -6 -1h-18c-4 0 -6 0 -10 2h-18c-9 -3 -23 -5 -37 -5
s-26 1 -38 2h-6c-9 1 -21 2 -31 2l-3 2c-10 9 -20 20 -23 27c0 3 2 12 3 16v3c1 4 3 10 3 15v19c0 31 3 64 3 96v228h33c160 0 168 103 168 192v15c0 42 2 84 2 127v988h292c95 0 196 1 293 1c2 -430 3 -877 3 -1305zM47 -126h-8l8 10v-10z" />
    <glyph glyph-name="k" unicode="k" horiz-adv-x="1632" 
d="M1386 352l52 -106l121 -247h-688l-69 206c-35 103 -71 218 -103 322l-38 -86v-440c-97 -3 -174 -3 -271 -3c-119 0 -250 0 -370 2v1569h318c106 0 208 1 318 1c0 -244 5 -624 5 -876l38 112c40 128 89 268 132 392h536c6 0 13 -1 19 -1h77c12 0 22 2 37 2
c-8 -43 -35 -88 -60 -127l1 1l-6 -7c-9 -13 -20 -31 -25 -41v1c-62 -93 -130 -214 -192 -322z" />
    <glyph glyph-name="l" unicode="l" horiz-adv-x="770" 
d="M676 1569v-1570h-612c0 525 -2 1041 -2 1571c90 0 168 1 254 1c121 0 238 -1 360 -2z" />
    <glyph glyph-name="m" unicode="m" horiz-adv-x="2224" 
d="M2176 613v-614h-606l-1 588c0 8 1 15 1 22c0 60 -9 145 -81 145c-82 0 -91 -107 -91 -160c0 -24 2 -56 2 -69v-525c-97 0 -183 -1 -278 -1h-277l-1 537c0 21 2 39 2 65c0 65 -13 134 -80 154c-80 -4 -94 -77 -94 -145c0 -19 2 -50 2 -60v-550c-112 0 -212 -1 -322 -1
h-320c0 205 -1 398 -1 601v597c97 0 180 1 274 1h275l7 -24c15 -53 42 -150 56 -204c76 130 199 269 324 269c14 0 26 -1 36 -2c7 2 12 2 18 2c123 0 255 -119 328 -243c138 181 252 243 389 243c143 0 351 -112 401 -289v1l7 -27c9 -36 26 -83 27 -124c0 -8 1 -12 -4 -29
c6 -5 7 -11 7 -18c0 -17 -2 -30 -2 -39c1 -36 2 -68 2 -101z" />
    <glyph glyph-name="n" unicode="n" horiz-adv-x="1460" 
d="M1396 190c0 -64 1 -128 1 -191h-585l-2 500c0 22 4 61 4 102c0 64 -9 153 -81 153c-76 0 -87 -88 -87 -145c0 -11 0 -32 1 -44v-15c0 -5 1 -11 1 -17v-533c-104 0 -195 -1 -298 -1h-299c0 205 -1 398 -1 600v598l266 -1c91 0 176 1 268 1c13 -50 22 -75 43 -156l19 -75
c32 80 38 98 49 112l16 20c67 94 184 142 302 142c220 0 386 -203 386 -416c0 -7 -1 -14 -3 -19v-615z" />
    <glyph glyph-name="o" unicode="o" horiz-adv-x="1569" 
d="M1511 593v-8c-2 -100 -28 -210 -76 -297h1c-142 -218 -418 -324 -660 -324c-218 0 -363 46 -513 148l-9 6c-196 130 -232 335 -232 515c0 5 1 11 3 15v16c-3 4 -3 6 -3 8l1 7c1 1 0 2 1 4h-1c5 46 23 179 74 230c0 10 8 16 14 25v-1c3 3 6 11 9 15l6 9
c68 88 166 168 270 207l35 13c37 18 118 39 185 48l32 3c21 2 47 1 59 6l43 -1c3 1 6 1 9 1c1 0 2 0 7 -1l-1 1c4 -2 11 -3 18 -3c4 4 8 4 14 4c136 0 260 -25 369 -89l20 -9c188 -90 327 -254 327 -536l-1 -5c-2 -3 -1 -5 -1 -7zM891 599c-2 123 -28 298 -107 298
c-99 0 -112 -235 -112 -316c0 -77 24 -283 108 -283c99 0 111 192 111 301z" />
    <glyph glyph-name="p" unicode="p" horiz-adv-x="1552" 
d="M1497 614c0 -14 -2 -34 -4 -44c-19 -210 -58 -360 -217 -506v1c-51 -44 -123 -86 -190 -86c-15 -7 -32 -12 -51 -12c-34 0 -116 10 -138 21l-14 3c-68 14 -156 58 -211 115l-38 -1c6 -38 9 -69 9 -98c0 -6 -1 -12 -1 -18v-306c-105 0 -200 -1 -304 -1h-303
c0 258 -1 502 -1 757v757c92 0 169 1 258 1h261c12 -25 21 -43 34 -66l38 -70c140 128 247 178 395 178c355 0 477 -349 477 -625zM876 592c0 25 -1 57 -4 81l-6 42c-5 22 -5 27 -8 44l-3 17c-10 54 -32 129 -101 129c-103 0 -124 -191 -124 -326c0 -72 10 -281 119 -308
c100 9 117 169 122 232c0 12 5 40 5 63c-1 1 -1 2 -1 4c0 1 0 3 1 5v17z" />
    <glyph glyph-name="q" unicode="q" horiz-adv-x="1556" 
d="M1495 559c2 -295 3 -583 3 -878h-608l-1 439c-50 -23 -68 -37 -85 -51c-62 -62 -206 -101 -300 -101c-273 0 -464 278 -464 543c-5 9 -7 20 -7 31c0 9 2 23 6 37c-5 9 -5 11 -5 14c0 157 46 342 145 470l-1 -1c105 122 239 178 386 178c32 -3 160 -23 186 -50
c49 -23 87 -61 123 -101l12 -11l27 -17c17 45 34 73 48 103l10 21c1 3 10 17 12 22c82 -12 454 -10 510 -10l1 -339c0 -91 1 -207 2 -299zM911 592c0 109 -16 291 -122 314c-80 -12 -95 -86 -108 -150c-8 -59 -20 -71 -20 -139v-47c0 -106 13 -270 119 -299
c84 6 101 82 113 140c0 32 17 83 17 122l-1 14c0 12 2 27 2 45z" />
    <glyph glyph-name="r" unicode="r" horiz-adv-x="1186" 
d="M1086 1238h37v-558c-17 4 -35 5 -52 5c-282 0 -317 -215 -317 -396c0 -35 2 -80 2 -105v-184c-124 0 -236 -1 -356 -1h-355c0 204 -1 396 -1 597v601c94 0 174 1 266 1h266l11 -67v1l11 -68c8 -49 17 -112 27 -160h35c21 97 65 190 142 243l40 23c5 9 22 15 36 22l-4 -1
l23 9c53 21 110 39 169 40c8 0 15 0 20 -2z" />
    <glyph glyph-name="s" unicode="s" horiz-adv-x="1638" 
d="M1530 638l-1 1c42 -64 51 -133 57 -200c-7 -197 -160 -353 -358 -417c-8 -4 -20 -7 -30 -8l-34 -8c-52 -15 -108 -28 -168 -28c-31 -10 -88 -14 -138 -14c-8 0 -18 1 -25 1h-73c-3 0 -7 -1 -11 -1c-108 0 -226 20 -332 50v-1c-203 50 -377 144 -378 324
c53 -4 106 -4 159 -4c165 0 320 3 486 3c-1 -6 -1 -14 -1 -20c0 -61 74 -100 150 -100c79 0 126 35 126 83c0 128 -189 115 -295 131c-239 40 -627 38 -627 403c0 257 218 346 461 377c18 2 31 5 46 8l14 3c31 7 63 14 91 14c5 0 10 -1 13 -2c47 0 90 7 127 7
c60 0 114 -8 176 -8c79 -7 166 -10 251 -33c139 -37 267 -141 284 -254l-7 2l-220 -10c-30 0 -60 1 -91 1c-86 0 -166 -1 -251 -2c-16 43 -68 79 -132 79c-56 0 -97 -32 -97 -64c0 -158 256 -119 406 -146c143 -26 248 -14 381 -129c11 -5 24 -18 34 -30z" />
    <glyph glyph-name="t" unicode="t" horiz-adv-x="1042" 
d="M928 370c8 0 17 -1 27 -1s19 1 27 3c0 -127 1 -246 1 -373h-547c-14 0 -30 -2 -34 -2h-11c-6 0 -10 0 -17 2c-203 50 -205 200 -205 349v554h-118c0 51 -1 90 -1 140v143h115v331h309c103 0 202 1 309 1l1 -330h167c0 -52 1 -92 1 -143v-142h-163v-404c0 -4 -1 -9 -1 -15
c0 -78 3 -113 140 -113z" />
    <glyph glyph-name="u" unicode="u" horiz-adv-x="1538" 
d="M762 363c62 0 61 78 61 108v724c112 0 221 1 329 1h326c0 -397 1 -798 1 -1195h-560l-47 162c-95 -146 -226 -199 -351 -199c-129 0 -230 32 -323 110l1 7c-25 7 -68 69 -80 91c-56 102 -65 229 -65 347c0 11 1 22 1 32v644h318c106 0 208 1 318 1v-96
c0 -205 -2 -426 -2 -635c0 -52 15 -102 73 -102z" />
    <glyph glyph-name="v" unicode="v" horiz-adv-x="1663" 
d="M1636 1177h-3l-342 -1177h-966l-121 419l-18 72l-191 705c124 0 260 1 380 1h372c8 -43 8 -58 10 -80l22 -218c12 -121 31 -283 45 -402h2l108 700h705z" />
    <glyph glyph-name="w" unicode="w" horiz-adv-x="1966" 
d="M1253 926l16 104l14 74c3 28 7 67 14 94h655l-214 -979l-56 -220h-636l-22 167c-40 261 -50 417 -56 417c-31 -191 -55 -389 -88 -584h-677c-45 212 -77 440 -111 653l-21 133c-21 134 -47 278 -70 414h335c106 0 222 1 333 1c1 -15 2 -28 5 -40l6 -43
c15 -130 34 -283 44 -420h4c9 55 15 111 25 168l49 293c0 6 2 23 2 26c109 2 229 2 337 2c22 -174 46 -282 74 -478h2c13 69 25 146 36 218z" />
    <glyph glyph-name="x" unicode="x" horiz-adv-x="1624" 
d="M1431 315l127 -316h-635c-45 181 -84 359 -124 541h-36c-13 -71 -31 -157 -43 -229l-18 -108c-11 -68 -24 -137 -37 -205h-10c-83 1 -160 2 -245 2h-101c-33 0 -67 -1 -102 -1h-174c11 35 20 59 32 88l19 48c48 131 91 267 150 398l29 79v-1l23 59
c-30 74 -58 155 -84 231h1l-17 51c-10 30 -22 64 -33 93v-1c-16 48 -35 103 -50 153h308c103 0 208 1 315 1c23 -127 40 -276 56 -357l13 -66h35l39 190c14 68 29 178 46 233h627l-154 -330l-17 -40c-18 -41 -53 -100 -54 -110l-27 -50z" />
    <glyph glyph-name="y" unicode="y" horiz-adv-x="1403" 
d="M504 -545l-94 -1c-22 0 -56 -4 -81 -4c-13 0 -28 1 -39 3c-7 -2 -13 -2 -21 -2c-22 0 -40 3 -61 3c-15 0 -25 -3 -39 -3c-6 0 -15 1 -25 2h-7c-15 1 -32 2 -41 2c-4 -1 -10 -2 -15 -2h-21l-19 51c-2 6 -2 9 -2 14c0 4 0 11 1 15v7c0 4 1 7 1 10v114c0 57 0 118 -1 175
c14 2 23 2 32 2c8 0 15 0 25 -3c14 3 27 3 37 3h8c8 5 26 8 41 10l14 2c15 2 31 7 41 9v-1c80 29 90 105 95 181c0 58 -21 117 -40 177l-16 50l-293 926h305c96 0 201 1 301 1l45 -259c11 -87 22 -161 32 -241l97 500h591v2l20 -2l-5 -20h-2l-264 -732
c-29 -73 -53 -145 -74 -218c-15 -49 -48 -118 -61 -163l-4 -11c-53 -137 -98 -295 -174 -431c-70 -119 -181 -159 -287 -166z" />
    <glyph glyph-name="z" unicode="z" horiz-adv-x="1440" 
d="M146 821v375h1253s-1 -3 -4 -3l-113 -182l-365 -641h189c71 0 152 -1 219 -1v-370h-1180c-15 0 -56 -3 -87 -3c-15 0 -29 0 -47 3l1 -1c-5 0 -11 3 -15 3c13 26 21 38 29 51l11 17l273 424l202 326h-56c-76 0 -146 2 -228 2h-82z" />
    <glyph glyph-name="braceleft" unicode="{" horiz-adv-x="1032" 
d="M905 1531l25 -23c0 -60 -1 -107 -1 -163v-83c0 -11 1 -27 1 -43c0 -28 -3 -56 -19 -56c-6 0 -12 1 -19 1h-48c-72 0 -111 -22 -118 -119l-3 -80c-2 -54 -2 -106 -2 -164c0 -103 -104 -171 -201 -204l86 -32h-1c98 -46 115 -115 115 -270v-36c0 -17 -2 -36 -2 -56v-18
c0 -115 14 -162 157 -162h14c14 0 25 0 29 -5v-22c0 -4 -1 -8 -1 -12v-80c0 -10 1 -21 1 -33c0 -88 -1 -183 -13 -196l-184 8c-226 0 -445 21 -458 274c-12 386 26 436 -119 459l-35 4c-25 3 -49 5 -49 7c-4 98 -6 191 -6 291c0 23 3 49 12 58c77 1 182 14 191 110l-2 269
c0 2 -1 5 -1 8v25c0 316 233 341 436 344l128 2c29 0 52 -3 79 -3h8z" />
    <glyph glyph-name="bar" unicode="|" horiz-adv-x="492" 
d="M385 1500l4 -341c3 -276 7 -597 13 -879l5 -340c-10 -21 -59 -24 -114 -24h-74c-37 0 -73 -1 -108 5l-11 12c-5 3 -8 7 -12 11c0 274 5 582 11 873l3 148c4 189 5 375 7 554v7c0 2 -1 5 -1 8v13c0 8 -1 17 4 23c47 1 83 1 132 1c43 0 99 0 143 -1c1 -1 1 -3 1 -13
c0 -13 -3 -28 -3 -57z" />
    <glyph glyph-name="braceright" unicode="}" horiz-adv-x="1035" 
d="M776 1128v-38v-8c0 -70 -6 -129 -6 -188c0 -116 114 -122 193 -122c1 0 3 1 4 1c6 -2 7 -7 7 -13v-119c0 -14 -1 -28 -1 -42v-128c0 -13 1 -33 1 -44c-23 -33 -198 27 -198 -113c0 -15 1 -39 2 -55v1l3 -68c2 -41 4 -82 4 -127c0 -328 -161 -397 -341 -397h-46
c-6 0 -11 1 -16 1l-126 -1c-9 0 -19 -2 -29 -2h-66c-8 0 -17 1 -25 1c-5 0 -8 0 -12 -1c-7 10 -9 15 -16 23v-1l-8 10l3 155c0 11 -1 27 -1 44c0 53 1 127 17 134h55c75 0 133 15 133 127c0 11 0 30 -1 48v-1c-1 28 -2 61 -2 99c5 179 44 236 221 297
c-167 51 -213 116 -213 264c0 60 3 137 3 174c0 100 -35 131 -169 131c-21 0 -32 0 -32 4c0 47 2 94 2 141v60c0 17 -2 41 -2 64c0 30 2 62 8 76c30 -2 52 -2 83 -2h27c2 0 4 -1 7 -1h19c4 0 6 1 7 1h98c193 0 397 -3 413 -385z" />
    <glyph glyph-name="asciitilde" unicode="~" horiz-adv-x="1303" 
d="M1050 766l10 4l10 -10l10 1c25 0 96 -205 96 -263c0 -3 0 -9 -1 -13v-5c-75 -104 -162 -185 -285 -185c-78 0 -139 27 -200 57c-6 1 -11 3 -15 6l-24 12c-63 32 -124 63 -204 63c-77 0 -122 -46 -167 -128l-69 10l-16 44v-1c-3 8 -8 17 -11 28l1 -1
c-21 56 -47 129 -47 178c0 2 0 3 2 5c73 127 162 204 287 204c84 0 151 -33 224 -66l33 -18c4 -1 13 -6 16 -7c54 -27 129 -65 190 -65c64 0 121 71 162 123l4 6l-1 2c-2 6 -4 12 -5 19z" />
    <glyph glyph-name="uni00A0" unicode="&#xa0;" horiz-adv-x="721" 
 />
    <glyph glyph-name="exclamdown" unicode="&#xa1;" horiz-adv-x="784" 
d="M692 -253l3 -43l3 -47c1 -12 2 -30 2 -42c-8 -18 -49 -18 -81 -20h1c-3 0 -6 -1 -9 -1l-512 -9l-20 15s-1 2 -2 3l13 138c4 82 15 173 26 260c22 175 42 664 73 691c2 3 23 4 46 4c26 0 55 -1 62 -1h167c183 0 134 -18 156 -150l8 -57c23 -240 47 -499 64 -741zM659 1007
v-119c-12 -15 -80 -18 -151 -18c-12 0 -24 1 -36 1h-87c-74 0 -167 -7 -231 -7c-10 10 -18 19 -25 29l5 154c0 8 1 15 1 23v15c0 60 3 139 8 139h69c70 0 141 2 212 2h169c21 0 40 -1 55 -1c9 -18 11 -125 11 -218zM660 890l-1 -4v2s0 1 1 2z" />
    <glyph glyph-name="cent" unicode="&#xa2;" horiz-adv-x="1497" 
d="M929 1095l9 -10c227 -13 394 -137 422 -412c-10 -5 -63 -6 -111 -6c-11 0 -22 1 -33 1h-58c-72 0 -141 -3 -216 -3c-18 0 -38 3 -46 7v3c0 60 -2 158 -98 158c-138 -4 -143 -221 -143 -311c0 -44 1 -83 6 -118v-7c0 -68 10 -175 114 -175c110 0 128 86 142 143l6 24
c155 -3 290 -3 445 -3c5 0 10 -8 12 -15c-6 -80 -14 -160 -66 -220c-72 -109 -215 -160 -361 -204c3 -53 5 -124 5 -178c0 -32 0 -53 -22 -55h-71c-73 0 -143 1 -217 5l-25 29l3 192c-103 26 -210 51 -285 115c-81 68 -159 161 -170 286c-17 65 -28 131 -28 195
c0 337 246 481 487 552v55c0 61 -2 116 -2 174c0 15 170 13 232 13c38 0 62 -1 74 -8v-7c-2 -71 -1 -142 -5 -220z" />
    <glyph glyph-name="sterling" unicode="&#xa3;" horiz-adv-x="1440" 
d="M1422 348v-30c0 -101 4 -206 4 -303c-3 -40 -30 -45 -64 -45h-38c-7 0 -14 -1 -21 -1h-215c-17 0 -34 1 -53 1c-190 0 -400 -1 -589 -5l-36 -2c-24 -1 -47 -2 -69 -2h-53c-10 0 -19 1 -28 1h-96c-31 0 -62 0 -95 2l-18 23c0 8 -1 11 -1 18v20c0 20 -1 39 -2 58v-1
c-2 56 -3 113 -3 189c0 44 6 82 17 94l142 10c1 49 3 117 3 165v29c0 11 1 32 1 41h-83c-7 0 -14 1 -20 1h-29c-4 0 -8 -1 -13 -1c-25 0 -51 3 -51 18c0 28 1 53 1 80v38c0 12 1 25 1 38v15c0 19 -2 35 -2 55s5 44 12 51c12 0 25 -1 41 -1h41c29 0 76 -1 106 -1
c-1 33 -2 92 -2 129c0 100 20 206 71 297l-1 -1c111 161 344 239 563 239c241 0 433 -67 542 -232c48 -58 55 -162 55 -241c0 -17 -3 -22 -8 -25c-139 1 -294 0 -431 5c-63 2 -71 18 -74 35c-5 24 -26 79 -90 79c-85 -7 -102 -86 -102 -159c0 -29 1 -59 3 -81v-6
c1 -10 2 -17 2 -47l251 5c20 0 45 -1 53 -7c0 -83 3 -169 3 -252c0 -13 -2 -22 -15 -22c-7 0 -13 0 -21 1l-58 3c-20 1 -39 1 -60 1c-42 0 -132 0 -143 -18c-5 -11 -7 -63 -8 -109l-3 -109c113 3 235 4 340 4h56c88 0 177 7 272 7c12 -4 15 -24 15 -51z" />
    <glyph glyph-name="currency" unicode="&#xa4;" horiz-adv-x="1478" 
d="M306 353l-12 33c-14 33 -31 80 -39 130l-6 110c2 103 29 295 143 412l-53 55c-51 52 -117 120 -117 134c0 9 39 34 50 36l170 -182c94 66 193 102 318 102c136 0 263 -33 348 -112l23 -19l200 210c9 -3 35 -26 45 -34l-1 1l5 -4c-2 -14 -47 -59 -91 -104l-7 -8
c-18 -19 -37 -37 -51 -52h1l-53 -57c92 -121 116 -295 116 -419c0 -111 -29 -220 -89 -316l85 -89c35 -37 65 -73 90 -120c-9 -6 -13 -8 -25 -11l-17 -10l3 1c-2 -1 -5 -2 -8 -2c-19 0 -48 33 -82 70l-96 102c-109 -109 -229 -139 -344 -150l-45 -1c-5 0 -12 2 -15 2
c-103 12 -220 28 -332 123l-71 -76c-33 -38 -63 -70 -81 -70c-3 0 -5 0 -6 1l-14 11c-10 2 -20 7 -27 11c25 44 56 84 89 119l57 60c-31 39 -49 73 -62 113h1zM1329 1263l-3 -1l7 3l-2 -3c-1 1 -2 1 -2 1zM270 1265l7 -3c-1 0 -3 1 -4 0zM478 634c0 -191 70 -266 161 -305
c30 -24 64 -29 94 -29c3 0 6 1 9 1h25c100 0 282 9 282 311c0 321 -153 332 -280 332h-35c-104 0 -256 -51 -256 -310z" />
    <glyph glyph-name="yen" unicode="&#xa5;" horiz-adv-x="1456" 
d="M1345 770c0 -24 1 -62 1 -96c0 -41 -2 -78 -13 -83h-261l-46 30c0 -55 5 -170 10 -241c70 6 150 10 220 10c82 0 96 -14 96 -51c0 -14 -2 -26 -2 -39v-94c0 -51 -12 -57 -47 -57c-23 0 -46 1 -67 1h-33c-11 0 -22 1 -34 1c-40 0 -101 -2 -142 -4c0 -15 -1 -62 -1 -86
c0 -14 1 -29 1 -43c0 -27 -4 -51 -24 -54c-52 0 -133 -1 -184 -1h-91c-31 0 -62 -1 -93 -1h-19c-2 0 -5 1 -6 1l-149 3c-7 12 -15 20 -23 30v3c0 7 0 14 1 23v13c0 7 1 13 1 21c0 18 -2 38 -2 53v36l-219 -6c-60 0 -89 4 -92 23v90c0 10 1 20 1 32c0 18 -3 38 -3 57
c0 22 5 48 35 48c8 0 20 -1 33 -1h32c44 0 88 -2 137 -2h49l41 6c0 82 -4 198 -60 198c-52 -3 -183 -5 -249 -5c-12 8 -14 44 -14 89v25c0 30 2 56 2 83c0 36 28 34 66 34h10c12 0 26 -2 43 -2h33l-17 102l-123 252c-39 80 -64 150 -115 231l-6 12l1 -1
c-25 42 -52 90 -52 113c0 7 102 8 181 8h74c18 0 81 3 148 3c82 0 166 -2 183 -18c7 -51 31 -101 48 -152l38 -118h-1l29 -92c12 -38 28 -82 39 -120v1l25 -81v1l27 -99l129 418l56 186c19 58 58 69 199 69c50 0 98 -2 145 -2h39c11 0 20 1 30 1h29c16 0 33 1 54 1
c24 0 62 0 70 -10c-43 -77 -72 -161 -116 -239l-83 -169l-81 -206l-34 -85c17 -1 58 -3 75 -3c8 0 23 0 32 1h13c4 0 10 1 14 1c10 -5 12 -28 12 -49zM1362 602l-20 -2v4z" />
    <glyph glyph-name="brokenbar" unicode="&#xa6;" horiz-adv-x="494" 
d="M386 1500l4 -341l6 -364c-8 -21 -52 -26 -106 -26h-72c-1 0 -20 -2 -41 -2c-26 0 -58 3 -64 16l-13 14c0 340 10 644 10 722v7c0 2 -1 5 -1 8v13c0 8 -1 17 4 23c47 1 83 1 132 1c43 0 100 0 143 -1c1 -1 1 -3 1 -13c0 -13 -3 -28 -3 -57zM390 420v-414l2 -16l4 -338
c-8 -20 -52 -25 -106 -25h-72c-1 0 -20 -2 -41 -2c-26 0 -58 3 -64 16l-13 14c0 369 10 693 10 785c0 3 -1 6 -1 9v18c0 22 31 27 67 27c69 0 141 -1 213 -3c0 0 -1 -1 -1 -2c0 -3 1 -7 1 -12c0 -9 -1 -22 -1 -35c0 -9 0 -17 2 -22z" />
    <glyph glyph-name="section" unicode="&#xa7;" horiz-adv-x="1819" 
d="M1342 677l-1 -2c-31 -74 -100 -145 -205 -199c86 -58 143 -145 143 -228c0 -253 -292 -316 -451 -316c-191 0 -378 12 -568 47l-24 28c-3 79 -3 133 -3 220c0 36 3 72 20 72l12 -3c1 -1 5 -3 6 -3c100 -34 223 -67 321 -67c28 0 83 12 83 61c0 42 -71 69 -108 83h1l-16 6
c-77 37 -167 55 -246 113h1c-68 59 -107 141 -107 226c0 112 85 234 238 288c-104 54 -169 143 -173 241c14 106 67 204 180 260c91 37 210 55 324 55c149 0 309 -20 441 -41l19 -3l1 -188c0 -22 1 -43 1 -65c0 -10 -1 -17 -4 -20c-85 19 -184 39 -278 39
c-41 0 -83 -13 -83 -44c0 -41 82 -72 147 -93l64 -21l-1 1l26 -9c164 -66 246 -182 261 -295c-1 -39 -7 -113 -21 -143zM638 843l15 -13l-15 12c-13 -21 -20 -40 -20 -59c0 -122 239 -167 259 -167c16 0 94 27 94 80c0 84 -304 143 -308 142l45 45c-20 0 -56 -18 -65 -32
l1 1zM1341 675v-3v3z" />
    <glyph glyph-name="dieresis" unicode="&#xa8;" horiz-adv-x="659" 
d="M820 1805v4c4 -115 6 -231 7 -346c-1 -2 -3 -8 -3 -10l-7 1c-113 -11 -216 -5 -333 -14l-26 29c0 68 6 325 24 344c37 -2 67 -3 104 -3c59 0 106 3 170 3c31 0 62 -2 64 -8zM458 1468l1 -3l-3 7c0 -1 1 -2 2 -3v-1zM823 1452l14 -1c0 -12 -7 -17 -14 -17c-3 0 -7 1 -10 4
zM255 1612c0 -46 0 -109 1 -156c-8 -9 -43 -11 -81 -11c-7 0 -13 1 -21 1h-51c-60 0 -138 -7 -187 -7c-9 12 -15 23 -24 35c0 104 3 317 22 339c108 -2 223 0 335 -4h-2c6 -2 7 -11 7 -25c0 -4 -1 -8 -1 -11v-32c0 -34 2 -76 2 -98v-31z" />
    <glyph glyph-name="copyright" unicode="&#xa9;" horiz-adv-x="1646" 
d="M1475 241v1c-161 -187 -380 -308 -632 -308c-140 0 -303 47 -444 126v-1c-262 163 -359 469 -387 686c22 576 477 813 815 813c436 0 806 -361 828 -825c-4 -178 -69 -359 -180 -492zM843 1356h-14c-169 0 -326 -75 -438 -196c-117 -126 -147 -241 -168 -402
c0 -325 275 -617 599 -617c326 0 614 275 614 637c0 324 -277 573 -593 578zM862 1200c211 0 324 -137 364 -318c-3 -7 -22 -9 -47 -9c-9 0 -16 1 -23 1h-149l-8 8c-23 70 -69 114 -148 114c-149 0 -190 -145 -190 -248c0 -116 52 -232 177 -232c126 0 100 69 166 132
c27 2 45 2 73 2h80c5 0 10 1 14 1h13c24 0 47 -3 53 -20c-43 -188 -190 -337 -366 -337c-322 0 -453 245 -459 463c17 258 233 443 450 443zM1227 883v-2l-1 1c0 1 1 1 1 1z" />
    <glyph glyph-name="ordfeminine" unicode="&#xaa;" horiz-adv-x="845" 
d="M540 1249v62c0 85 -21 146 -116 146c-45 0 -93 -21 -113 -58c-72 0 -141 -2 -213 -2c44 103 234 116 335 116h56c74 0 198 -14 267 -65c28 -32 36 -81 36 -121c0 -38 -1 -75 -1 -110v-279c-4 0 -6 -1 -7 -1c-3 0 -3 1 -8 1h-18c-35 0 -69 1 -104 2h-6c-33 1 -64 2 -98 2
l-2 22v-1c0 1 -1 2 -1 4v55c-82 -57 -166 -98 -271 -98c-123 0 -212 45 -212 153c0 125 131 175 317 175c47 0 114 -1 159 -3zM540 1103v31l1 49c0 12 -2 24 -2 34v18h-25c-87 0 -219 -8 -219 -130c0 -69 59 -102 120 -102c73 0 112 22 125 100z" />
    <glyph glyph-name="guillemotleft" unicode="&#xab;" horiz-adv-x="1335" 
d="M1145 526l15 -36v-6c32 -74 67 -159 103 -236l28 -60l89 -198c-5 -11 -31 -14 -59 -14c-5 0 -11 1 -16 1h-41c-23 0 -47 -1 -69 -1h-204c-11 0 -24 3 -35 10l-128 201h2l-37 56c-56 85 -109 170 -160 257c0 6 2 11 2 16l325 521c6 4 32 6 56 6h22c73 0 144 3 217 3
c23 0 47 -2 71 -2h28c11 0 27 1 30 -9l-79 -172c-51 -111 -107 -231 -160 -337zM1183 487l1 -6h-20l-2 17s21 0 21 -11zM742 1045c3 0 7 -3 9 -3c1 0 1 0 2 1c-2 -30 -32 -90 -58 -136l-25 -45c-4 -10 -11 -23 -16 -35l-139 -306c79 -190 164 -359 237 -529
c-14 -15 -156 -8 -209 -12h1c-68 -3 -129 -5 -194 -5c-5 0 -8 2 -10 11l-38 56l-301 456c6 59 82 160 138 241l9 13c17 25 36 52 49 73h-1l137 213c4 3 9 5 14 8h3c46 -1 90 -2 134 -2h95c11 0 21 1 32 1h131z" />
    <glyph glyph-name="logicalnot" unicode="&#xac;" horiz-adv-x="1283" 
d="M885 257v360l-772 3c-4 3 -5 8 -5 18c0 63 3 115 3 173v23c0 8 -1 17 -1 25v51c364 0 722 12 1079 12c8 -2 15 -3 19 -6l3 -335c1 -112 2 -221 2 -333c-3 -12 -8 -21 -22 -21h-47c-5 0 -10 1 -16 1c-71 0 -142 -2 -213 -5zM103 911l8 5c0 -1 -1 -3 -1 -6c-2 1 -2 1 -7 1z
" />
    <glyph glyph-name="registered" unicode="&#xae;" horiz-adv-x="1710" 
d="M1468 177c-151 -149 -363 -243 -582 -243c-157 0 -335 49 -485 145h1c-270 178 -328 466 -346 667c3 72 19 200 56 303v-1c138 371 476 510 758 510c432 0 805 -358 828 -825c-5 -209 -92 -413 -230 -556zM1338 1153l-2 2c-113 121 -289 196 -460 196
c-175 0 -319 -36 -445 -176c-106 -129 -149 -233 -149 -412c0 -321 221 -604 578 -604c351 0 602 264 602 627c0 144 -47 268 -124 367zM1144 402v-10c-29 -3 -82 -5 -120 -5c-46 84 -80 176 -125 263l-33 63h-137v-97c0 -78 -5 -162 -5 -224c-9 1 -18 1 -31 1h-55
c-7 0 -14 1 -22 1v512c-1 46 -2 90 -2 137v75h6c82 0 174 7 264 7c149 0 272 -58 272 -191c0 -180 -143 -207 -192 -207l106 -201c23 -29 27 -54 66 -109zM744 379h-20v13c14 -1 20 -4 20 -13zM1147 393l-2 -1c6 2 6 2 9 2l-10 -11v9c1 0 2 1 3 1zM1024 387l4 -7l-10 7h6z
M1028 988l-2 3c-31 38 -91 40 -169 40c-35 0 -79 -2 -128 -7c0 -15 -1 -43 -1 -60v-156c50 0 111 -4 174 -4c81 0 145 13 145 109c0 29 -5 53 -19 75z" />
    <glyph glyph-name="overscore" unicode="&#xaf;" horiz-adv-x="678" 
d="M576 1454h67c49 0 92 4 152 4c3 -4 4 -15 4 -28c0 -5 -1 -9 -1 -13v-72c0 -14 0 -42 1 -58v-26c0 -10 1 -19 1 -28c0 -22 -12 -25 -31 -25h-30c-4 0 -8 1 -12 1l-136 -2c-8 0 -17 -1 -25 -1h-26c-41 0 -100 -1 -151 -4l-269 -3c-72 -1 -145 -3 -216 -4l-21 24v64
c0 6 1 12 1 18v57c0 7 -1 14 -1 21c0 36 6 75 18 101c225 -14 450 -26 675 -26z" />
    <glyph glyph-name="degree" unicode="&#xb0;" horiz-adv-x="878" 
d="M748 1265v-14c-3 -147 -133 -297 -288 -297c-151 0 -334 93 -336 316c29 154 129 298 319 298c156 0 305 -123 305 -303z" />
    <glyph glyph-name="plusminus" unicode="&#xb1;" horiz-adv-x="1266" 
d="M187 666h-46c-19 0 -43 2 -43 13v81c0 9 -1 18 -1 28v169c0 17 124 15 160 15h24c8 0 18 1 26 1l177 3v138c0 72 -3 88 36 88c7 0 14 -1 22 -1h206c5 0 9 1 13 1c17 0 35 -3 39 -11c0 -5 -1 -7 -1 -11l-3 -213h180c18 0 38 -1 56 -1h150c4 -2 7 -13 7 -27l-3 -236
c0 -3 1 -6 1 -9c0 -10 -1 -18 -6 -18h-391l-1 -106c1 -21 2 -44 2 -67v-25c0 -11 0 -25 1 -25h-39c-6 0 -11 1 -16 1c-80 0 -148 -3 -222 -3h-12c-5 64 -8 153 -9 214c-29 2 -79 4 -109 4c-63 0 -130 -3 -198 -3zM504 446c-7 -4 -13 -7 -18 -7s-8 4 -8 15l21 1
c0 -3 5 -4 5 -9zM507 273c44 0 119 1 168 1h85c28 0 56 1 84 1c111 0 223 0 338 -9c3 -3 4 -45 4 -85c0 -10 -1 -19 -1 -28v-171c-3 -5 -16 -7 -29 -7c-3 0 -6 1 -9 1l-364 -4c-111 -1 -219 -5 -330 -4h-53h-40c-47 0 -89 -2 -135 -2h-61c-14 0 -37 0 -52 -1l-21 29
c0 55 3 102 3 155v14c0 13 -2 32 -2 49c0 31 4 62 24 77l24 -3c128 -10 249 -13 367 -13z" />
    <glyph glyph-name="twosuperior" unicode="&#xb2;" horiz-adv-x="1160" 
d="M1061 -16l-53 1c-87 2 -169 5 -236 5c-211 0 -416 -5 -625 -13l-7 8c-9 7 -11 35 -11 63c0 88 3 138 3 206c0 7 22 20 84 62l166 112c64 45 114 82 171 133c47 42 117 117 117 193c0 53 -35 84 -85 84c-100 0 -77 -94 -101 -118c-25 -1 -41 -1 -64 -1h-179
c-11 0 -22 1 -33 1h-59c-8 0 -16 0 -20 2c2 39 6 80 18 120c52 182 260 241 452 241c238 0 463 -93 463 -319c0 -210 -175 -343 -350 -456l1 1l-8 -5c-5 -3 -20 -17 -54 -51c110 0 239 5 357 5c55 0 65 -46 65 -110c0 -41 -4 -89 -4 -138v-13c0 -7 0 -12 -8 -13z" />
    <glyph glyph-name="threesuperior" unicode="&#xb3;" horiz-adv-x="1227" 
d="M719 -37c-43 -4 -85 -6 -115 -6c-163 0 -300 28 -398 126c-53 47 -70 134 -73 223c0 2 0 3 1 3l322 4c8 0 16 1 24 1c4 0 6 -3 7 -6v2c7 -71 33 -114 110 -114c69 0 103 45 103 102c0 116 -98 128 -178 128c-7 -2 -10 -2 -13 -2c-39 0 -41 20 -41 65c0 76 0 128 20 128
c4 0 8 -1 13 -1h44c82 0 144 29 144 137c0 52 -30 93 -89 93c-107 0 -75 -91 -107 -123c-93 0 -178 1 -270 4h-37c-17 0 -32 2 -36 6c7 39 0 77 17 120c11 27 46 113 124 163c105 62 249 68 374 68c167 0 400 -94 400 -296c0 -139 -114 -197 -236 -235
c189 -58 259 -135 259 -254c0 -247 -206 -315 -369 -336zM168 857l1 2c0 -1 0 -1 -1 -2z" />
    <glyph glyph-name="acute" unicode="&#xb4;" horiz-adv-x="641" 
d="M262 1794h70c122 0 277 -9 418 -10v-3l-270 -304c-54 -62 -89 -63 -172 -64l-183 -3c-6 0 -11 -1 -16 -1h-49l-15 29l168 286c19 28 32 51 49 70z" />
    <glyph glyph-name="mu" unicode="&#xb5;" horiz-adv-x="1358" 
d="M761 99l-17 -32c-28 -52 -69 -115 -119 -115c-2 0 -14 3 -40 11v-82c0 -101 4 -202 4 -297h-6c-24 0 -54 -3 -76 -4l-40 -2c-49 -3 -94 -5 -143 -5h-52c-7 0 -13 1 -19 1h-106c-3 0 -6 -1 -9 -1c-22 0 -47 0 -53 2c0 0 5 15 7 24l-6 337c-4 225 -7 458 -7 674l-2 144
c0 24 -1 48 -1 71v69c0 45 -2 92 -2 139c0 11 2 21 9 27c55 1 106 1 164 1c9 0 19 -1 29 -1h314c7 -3 15 -14 20 -28c-3 -41 -3 -78 -3 -117l-4 -355c0 -5 -1 -11 -1 -17v-18c0 -22 -2 -45 -2 -69c0 -95 7 -182 87 -182c78 0 88 77 88 155c0 24 -1 46 -1 68v17l3 128
c1 46 1 94 1 141v261c0 6 123 8 151 8c12 0 17 -3 20 -3h19c103 0 228 6 331 6c5 -2 10 -10 13 -28v2c0 -28 1 -55 1 -84c0 -228 -10 -429 -10 -643c0 -24 3 -17 3 -23l1 1c0 -21 2 -46 3 -72l3 -69c0 -3 6 -8 6 -8c-2 -48 -8 -91 -8 -138c-5 -10 -22 -13 -40 -13h-11
c-4 0 -7 1 -10 1h-94c-19 0 -36 -1 -52 -1h-133c-56 0 -110 1 -165 4c-7 6 -11 64 -11 88v21zM592 -416l17 -6c1 -3 2 -6 2 -8c0 -7 -5 -10 -12 -10c-8 0 -11 3 -11 9c0 4 1 9 4 15z" />
    <glyph glyph-name="paragraph" unicode="&#xb6;" horiz-adv-x="1323" 
d="M503 -25v199c0 218 3 412 3 625c-196 8 -460 68 -473 359c23 334 381 353 570 353c8 0 16 -2 23 -2h99c3 0 7 2 11 2l194 4c100 2 209 4 300 4c15 0 30 -6 30 -42v-47c0 -5 1 -10 1 -15s-1 -11 -1 -16l-4 -362c-2 -180 -1 -361 -4 -537l-9 -525c0 -2 1 -5 1 -6
c-6 -19 -39 -20 -115 -20c-64 0 -132 3 -174 3c-6 0 -20 21 -28 34v11c0 5 -1 9 -1 15v34c0 163 4 332 7 502l2 105c0 202 9 431 9 632l-63 5c-12 1 -25 2 -71 13c-4 -48 -8 -92 -8 -155c-7 -281 -7 -551 -7 -831v-90c0 -29 1 -59 1 -88v-170c-84 0 -162 -3 -234 -3
c-25 0 -59 0 -59 9zM796 -31h1c1 0 1 0 1 -1c-2 0 -2 0 -2 1z" />
    <glyph glyph-name="middot" unicode="&#xb7;" horiz-adv-x="791" 
d="M393 779h11c7 0 13 -1 21 -2h12c117 0 226 -132 226 -257c0 -156 -117 -276 -260 -276c-160 0 -260 126 -273 259c30 78 24 132 79 194h-1c44 50 104 82 185 82z" />
    <glyph glyph-name="cedilla" unicode="&#xb8;" horiz-adv-x="605" 
d="M272 -2l138 -2c7 -1 11 -5 11 -11c0 -22 -24 -41 -59 -106c165 0 252 -76 252 -181c0 -153 -154 -233 -322 -233c-112 0 -288 25 -288 66c0 15 14 45 29 71l13 29c1 4 4 9 5 13v-1c4 12 9 21 18 26c22 -8 38 -16 60 -23h-1c38 -14 76 -24 115 -24c13 0 110 0 110 63
c0 43 -60 44 -78 44c-5 -2 -17 -5 -32 -8l-22 -7c-13 0 -23 8 -36 17l1 -1l-22 14h1c-21 12 -44 29 -44 59l106 190c2 2 10 5 15 6h5c2 0 5 -1 8 -1h17zM221 -286v-20l-5 -1l-2 19z" />
    <glyph glyph-name="onesuperior" unicode="&#xb9;" horiz-adv-x="1030" 
d="M787 420c0 -145 5 -290 5 -434c-7 -6 -45 -8 -84 -8c-8 0 -15 1 -22 1h-197c-17 0 -35 -1 -52 -1h-10c-5 0 -12 -1 -18 -1c-3 0 -6 1 -9 1l-12 15v-1c-3 5 -5 9 -5 22c0 224 3 459 8 678c-81 -55 -161 -96 -227 -119c-1 0 -3 0 -3 1v287l93 45c1 1 6 3 8 3l19 9
c54 25 158 76 201 137c93 -2 175 -3 272 -3c11 0 20 0 30 1c1 -5 1 -14 1 -35v-80c0 -14 -1 -28 -1 -41v-123c0 -117 1 -234 3 -354z" />
    <glyph glyph-name="ordmasculine" unicode="&#xba;" horiz-adv-x="938" 
d="M-17 1215v10c39 238 247 334 443 334c256 0 517 -72 533 -336c-20 -264 -268 -353 -530 -353c-199 0 -410 75 -446 345z" />
    <glyph glyph-name="guillemotright" unicode="&#xbb;" horiz-adv-x="1332" 
d="M819 516l-15 33l5 5l-207 481v-1c-1 1 -1 3 -1 5c0 5 30 6 61 6h219c31 0 70 3 100 3c22 0 42 -6 66 -43v1c6 -13 10 -20 14 -26l66 -109l111 -175h-1l29 -47c35 -50 79 -115 79 -136c0 -31 -51 -97 -87 -150l-22 -32c-77 -112 -136 -227 -214 -343
c-13 -7 -60 -9 -107 -9c-32 0 -64 2 -87 2h-19c-52 -3 -93 -3 -140 -3h-30c-18 0 -37 0 -39 3l64 158v-1zM543 183l-112 -189c-13 -8 -47 -9 -79 -9h-32l-65 -1c-67 -5 -126 -7 -193 -7c-26 0 -54 1 -54 8c0 24 27 81 50 125l57 132c15 35 30 73 48 110l66 155l-218 521
c0 9 -2 12 -2 15c0 6 19 9 41 9c123 0 251 -3 368 -6c0 0 0 -2 1 -5l160 -254l165 -272c-1 0 -1 -1 -3 -3l-106 -177h1zM773 517l8 42h20l1 -5v2l2 -7zM447 -20l-3 -3l-14 14l3 3zM746 516h-1l-1 4zM745 516l-1 -1z" />
    <glyph glyph-name="onequarter" unicode="&#xbc;" horiz-adv-x="2592" 
d="M735 1045c0 -145 5 -290 5 -434c-7 -6 -45 -8 -84 -8c-8 0 -15 1 -22 1h-197c-17 0 -35 -1 -52 -1h-10c-5 0 -12 -1 -18 -1c-3 0 -6 1 -9 1l-12 15v-1c-3 5 -5 9 -5 22c0 224 3 459 8 678c-81 -55 -161 -96 -227 -119c-1 0 -3 0 -3 1v287l93 45c1 1 6 3 8 3l19 9
c54 25 158 76 201 137c93 -2 175 -3 272 -3c11 0 20 0 30 1c1 -5 1 -14 1 -35v-80c0 -14 -1 -28 -1 -41v-123c0 -117 1 -234 3 -354zM951 -63h-43c-38 -5 -73 -5 -108 -5h-51c-10 22 -21 42 -28 61c8 26 19 69 28 78l60 165l465 1247l34 87c10 3 43 5 80 5c33 0 67 -1 93 -2
h-1c18 -1 37 -1 47 -1h26c3 0 6 1 10 1c21 0 42 -1 42 -11c-7 -32 -19 -79 -35 -123l-29 -77l-180 -534l-22 -63c-78 -223 -151 -459 -235 -677l-18 -47h2c-19 -54 -32 -100 -137 -104zM2525 410l-24 -24c0 -19 5 -93 5 -171c0 -66 -3 -87 -25 -87h-41c-5 0 -10 -1 -15 -1
h-46c1 -43 2 -91 2 -131c0 -28 -2 -42 -26 -45c-47 1 -96 2 -143 2c-79 0 -156 0 -236 -5l-27 30c0 49 3 91 3 132v25c0 12 -13 15 -34 15c-30 0 -78 -11 -107 -20l-183 -2c-29 0 -65 -2 -95 -2c-41 0 -61 -3 -78 27c0 110 0 184 5 260c56 142 127 251 209 377l-1 -1
c9 15 21 31 31 46v-1l134 214l-2 -2l9 10c24 2 58 0 85 4l66 2c72 4 146 5 220 5h145l23 -5l2 -10l-2 1v-37c0 -131 -5 -258 -5 -390c0 -24 0 -58 1 -82v-5c0 -3 -1 -9 -1 -13v-12c-1 -7 -1 -18 -1 -25c0 -29 4 -56 33 -56h45c5 0 11 1 16 1c24 0 33 -1 36 -26
c6 1 15 2 22 2zM1776 393h12c62 0 127 3 194 3c11 6 18 15 21 25c0 4 -1 10 -1 14v49c0 18 2 62 2 110c0 92 -4 203 -30 209c-7 -4 -13 -9 -15 -13l1 1l-53 -93l-36 -64l-114 -204c0 -1 2 -4 2 -4l7 -17v1z" />
    <glyph glyph-name="onehalf" unicode="&#xbd;" horiz-adv-x="2601" 
d="M735 1045c0 -145 5 -290 5 -434c-7 -6 -45 -8 -84 -8c-8 0 -15 1 -22 1h-197c-17 0 -35 -1 -52 -1h-10c-5 0 -12 -1 -18 -1c-3 0 -6 1 -9 1l-12 15v-1c-3 5 -5 9 -5 22c0 224 3 459 8 678c-81 -55 -161 -96 -227 -119c-1 0 -3 0 -3 1v287l93 45c1 1 6 3 8 3l19 9
c54 25 158 76 201 137c93 -2 175 -3 272 -3c11 0 20 0 30 1c1 -5 1 -14 1 -35v-80c0 -14 -1 -28 -1 -41v-123c0 -117 1 -234 3 -354zM951 -63h-43c-38 -5 -73 -5 -108 -5h-51c-10 22 -21 42 -28 61c8 26 19 69 28 78l60 165l465 1247l34 87c10 3 43 5 80 5c33 0 67 -1 93 -2
h-1c18 -1 37 -1 47 -1h26c3 0 6 1 10 1c21 0 42 -1 42 -11c-7 -32 -19 -79 -35 -123l-29 -77l-180 -534l-22 -63c-78 -223 -151 -459 -235 -677l-18 -47h2c-19 -54 -32 -100 -137 -104zM2386 -23l-53 1c-87 2 -169 5 -236 5c-211 0 -416 -5 -625 -13l-7 8
c-9 7 -11 35 -11 63c0 88 3 138 3 206c0 7 22 20 84 62l166 112c64 45 114 82 171 133c47 42 117 117 117 193c0 53 -35 84 -85 84c-100 0 -77 -94 -101 -118c-25 -1 -41 -1 -64 -1h-179c-11 0 -22 1 -33 1h-59c-8 0 -16 0 -20 2c2 39 6 80 18 120c52 182 260 241 452 241
c238 0 463 -93 463 -319c0 -210 -175 -343 -350 -456l1 1l-8 -5c-5 -3 -20 -17 -54 -51c110 0 239 5 357 5c55 0 65 -46 65 -110c0 -41 -4 -89 -4 -138v-13c0 -7 0 -12 -8 -13z" />
    <glyph glyph-name="threequarters" unicode="&#xbe;" horiz-adv-x="2588" 
d="M668 588c-43 -4 -85 -6 -115 -6c-163 0 -300 28 -398 126c-53 47 -70 134 -73 223c0 2 0 3 1 3l322 4c8 0 16 1 24 1c4 0 6 -3 7 -6v2c7 -71 33 -114 110 -114c69 0 103 45 103 102c0 116 -98 128 -178 128c-7 -2 -10 -2 -13 -2c-39 0 -41 20 -41 65c0 76 0 128 20 128
c4 0 8 -1 13 -1h44c82 0 144 29 144 137c0 52 -30 93 -89 93c-107 0 -75 -91 -107 -123c-93 0 -178 1 -270 4h-37c-17 0 -32 2 -36 6c7 39 0 77 17 120c11 27 46 113 124 163c105 62 249 68 374 68c167 0 400 -94 400 -296c0 -139 -114 -197 -236 -235
c189 -58 259 -135 259 -254c0 -247 -206 -315 -369 -336zM117 1482l1 2c0 -1 0 -1 -1 -2zM1092 -63h-43c-38 -5 -73 -5 -108 -5h-51c-10 22 -21 42 -28 61c8 26 19 69 28 78l60 165l465 1247l34 87c10 3 43 5 80 5c33 0 67 -1 93 -2h-1c18 -1 37 -1 47 -1h26c3 0 6 1 10 1
c21 0 42 -1 42 -11c-7 -32 -19 -79 -35 -123l-29 -77l-180 -534l-22 -63c-78 -223 -151 -459 -235 -677l-18 -47h2c-19 -54 -32 -100 -137 -104zM2551 410l-24 -24c0 -19 5 -93 5 -171c0 -66 -3 -87 -25 -87h-41c-5 0 -10 -1 -15 -1h-46c1 -43 2 -91 2 -131
c0 -28 -2 -42 -26 -45c-47 1 -96 2 -143 2c-79 0 -156 0 -236 -5l-27 30c0 49 3 91 3 132v25c0 12 -13 15 -34 15c-30 0 -78 -11 -107 -20l-183 -2c-29 0 -65 -2 -95 -2c-41 0 -61 -3 -78 27c0 110 0 184 5 260c56 142 127 251 209 377l-1 -1c9 15 21 31 31 46v-1l134 214
l-2 -2l9 10c24 2 58 0 85 4l66 2c72 4 146 5 220 5h145l23 -5l2 -10l-2 1v-37c0 -131 -5 -258 -5 -390c0 -24 0 -58 1 -82v-5c0 -3 -1 -9 -1 -13v-12c-1 -7 -1 -18 -1 -25c0 -29 4 -56 33 -56h45c5 0 11 1 16 1c24 0 33 -1 36 -26c6 1 15 2 22 2zM1802 393h12
c62 0 127 3 194 3c11 6 18 15 21 25c0 4 -1 10 -1 14v49c0 18 2 62 2 110c0 92 -4 203 -30 209c-7 -4 -13 -9 -15 -13l1 1l-53 -93l-36 -64l-114 -204c0 -1 2 -4 2 -4l7 -17v1z" />
    <glyph glyph-name="questiondown" unicode="&#xbf;" horiz-adv-x="1121" 
d="M116 32l-14 25c-32 67 -29 142 -50 189c3 66 17 142 62 204c141 213 329 233 337 401c-7 30 -4 92 -10 95c3 2 4 4 7 5h1c4 1 10 2 20 2l120 2c12 0 25 -1 38 -1c74 0 156 4 225 6l102 3c11 -10 11 -77 11 -116v-9c0 -35 -1 -55 -10 -90v1c-41 -159 -261 -241 -296 -412
c13 -81 78 -92 138 -92l4 1c97 3 183 24 271 60c13 -9 21 -18 33 -28v-15c-1 -119 -2 -232 -2 -357c0 -73 -292 -86 -418 -91c-157 0 -289 23 -400 74l-45 23l1 -1c-50 32 -96 72 -126 122zM447 1318v155c145 2 283 11 432 17l70 3c27 -39 22 -48 22 -76v-37
c0 -7 -1 -13 -1 -19v-102c0 -8 1 -15 1 -23c0 -46 -3 -100 -18 -119l-85 3c-388 20 -419 -10 -419 68v25c0 4 1 9 1 13l-2 60c0 10 -1 21 -1 32zM447 1495v-20l-28 -2c11 11 22 22 28 22z" />
    <glyph glyph-name="Agrave" unicode="&#xc0;" horiz-adv-x="1639" 
d="M1550 -24c-21 0 -41 -1 -62 -1h-61c-32 0 -65 -1 -97 -1c-83 0 -161 1 -243 7h2c-3 1 -5 6 -7 12l-5 21c-6 65 -34 167 -47 199l-428 -4c-19 -74 -41 -154 -59 -228c-9 -9 -52 -10 -95 -10c-8 0 -17 1 -25 1h-58c-87 0 -173 -6 -260 -6h-30c-11 0 -19 -1 -28 -1h-70
c-5 5 -10 11 -15 18c81 285 179 575 271 858l23 71h-1l27 83c54 167 115 333 165 503c1 4 2 7 5 9h166c119 0 238 5 355 5l96 -5c19 0 50 5 79 5c30 0 60 -4 60 -24c168 -471 305 -936 455 -1392l14 -50c3 -12 4 -21 20 -57c-2 -15 -27 -13 -88 -13h-59zM866 1146l-4 9
c-6 17 -9 34 -42 48c-29 -7 -122 -429 -161 -602l-11 -66h59c11 0 25 -1 41 -1c94 0 239 1 239 1s-15 119 -23 175l-38 171c-20 88 -42 176 -60 265zM800 1657l-6 -2c-2 -1 -2 -2 -3 -2c-14 15 -23 28 -36 44v-1l-31 38c-39 47 -74 92 -141 160c-56 56 -114 117 -114 139
c0 3 3 8 9 13c148 -13 290 -18 440 -18h30c2 0 3 1 6 1c28 -21 142 -224 182 -284l9 -11c0 -1 2 -4 3 -5c13 -20 31 -49 31 -58c0 -12 -29 -14 -61 -14h-318z" />
    <glyph glyph-name="Aacute" unicode="&#xc1;" horiz-adv-x="1639" 
d="M1550 -24c-21 0 -41 -1 -62 -1h-61c-32 0 -65 -1 -97 -1c-83 0 -161 1 -243 7h2c-3 1 -5 6 -7 12l-5 21c-6 65 -34 167 -47 199l-428 -4c-19 -74 -41 -154 -59 -228c-9 -9 -52 -10 -95 -10c-8 0 -17 1 -25 1h-58c-87 0 -173 -6 -260 -6h-30c-11 0 -19 -1 -28 -1h-70
c-5 5 -10 11 -15 18c81 285 179 575 271 858l23 71h-1l27 83c54 167 115 333 165 503c1 4 2 7 5 9h166c119 0 238 5 355 5l96 -5c19 0 50 5 79 5c30 0 60 -4 60 -24c168 -471 305 -936 455 -1392l14 -50c3 -12 4 -21 20 -57c-2 -15 -27 -13 -88 -13h-59zM866 1146l-4 9
c-6 17 -9 34 -42 48c-29 -7 -122 -429 -161 -602l-11 -66h59c11 0 25 -1 41 -1c94 0 239 1 239 1s-15 119 -23 175l-38 171c-20 88 -42 176 -60 265zM694 2046h70c122 0 277 -9 418 -10v-3l-270 -304c-54 -62 -89 -63 -172 -64l-183 -3c-6 0 -11 -1 -16 -1h-49l-15 29
l168 286c19 28 32 51 49 70z" />
    <glyph glyph-name="Acircumflex" unicode="&#xc2;" horiz-adv-x="1639" 
d="M1550 -24c-21 0 -41 -1 -62 -1h-61c-32 0 -65 -1 -97 -1c-83 0 -161 1 -243 7h2c-3 1 -5 6 -7 12l-5 21c-6 65 -34 167 -47 199l-428 -4c-19 -74 -41 -154 -59 -228c-9 -9 -52 -10 -95 -10c-8 0 -17 1 -25 1h-58c-87 0 -173 -6 -260 -6h-30c-11 0 -19 -1 -28 -1h-70
c-5 5 -10 11 -15 18c81 285 179 575 271 858l23 71h-1l27 83c54 167 115 333 165 503c1 4 2 7 5 9h166c119 0 238 5 355 5l96 -5c19 0 50 5 79 5c30 0 60 -4 60 -24c168 -471 305 -936 455 -1392l14 -50c3 -12 4 -21 20 -57c-2 -15 -27 -13 -88 -13h-59zM866 1146l-4 9
c-6 17 -9 34 -42 48c-29 -7 -122 -429 -161 -602l-11 -66h59c11 0 25 -1 41 -1c94 0 239 1 239 1s-15 119 -23 175l-38 171c-20 88 -42 176 -60 265zM720 1696h-267h-11c-16 0 -32 -3 -49 -3c-27 0 -57 3 -57 12c0 1 0 2 1 6l11 17c53 77 110 157 170 236l22 35
c34 55 46 57 341 62l177 3c20 -8 54 -61 83 -103v1l62 -92c15 -23 32 -45 47 -65l20 -28c21 -30 48 -61 48 -76c0 -6 -8 -10 -27 -10c-4 0 -7 1 -11 1h-62c-105 0 -196 -7 -295 -7c-33 17 -46 50 -64 86l-30 60c-41 -37 -83 -135 -109 -135z" />
    <glyph glyph-name="Atilde" unicode="&#xc3;" horiz-adv-x="1639" 
d="M1550 -24c-21 0 -41 -1 -62 -1h-61c-32 0 -65 -1 -97 -1c-83 0 -161 1 -243 7h2c-3 1 -5 6 -7 12l-5 21c-6 65 -34 167 -47 199l-428 -4c-19 -74 -41 -154 -59 -228c-9 -9 -52 -10 -95 -10c-8 0 -17 1 -25 1h-58c-87 0 -173 -6 -260 -6h-30c-11 0 -19 -1 -28 -1h-70
c-5 5 -10 11 -15 18c81 285 179 575 271 858l23 71h-1l27 83c54 167 115 333 165 503c1 4 2 7 5 9h166c119 0 238 5 355 5l96 -5c19 0 50 5 79 5c30 0 60 -4 60 -24c168 -471 305 -936 455 -1392l14 -50c3 -12 4 -21 20 -57c-2 -15 -27 -13 -88 -13h-59zM866 1146l-4 9
c-6 17 -9 34 -42 48c-29 -7 -122 -429 -161 -602l-11 -66h59c11 0 25 -1 41 -1c94 0 239 1 239 1s-15 119 -23 175l-38 171c-20 88 -42 176 -60 265zM1003 2025l23 19l253 -7c5 -2 10 -11 13 -15c-16 -251 -128 -344 -284 -344c-43 0 -92 9 -142 21l-31 9h1l-28 9
c-48 15 -105 33 -140 34c-36 0 -39 -27 -44 -49c0 -12 -197 -12 -232 -12h-27c-3 3 -6 10 -6 18c0 235 111 341 296 341c56 0 125 -20 186 -37v1c31 -11 61 -19 87 -26l30 -6c1 0 4 0 14 -10l25 28c2 7 5 18 6 26zM964 2019l9 10l7 -17z" />
    <glyph glyph-name="Adieresis" unicode="&#xc4;" horiz-adv-x="1639" 
d="M1550 -24c-21 0 -41 -1 -62 -1h-61c-32 0 -65 -1 -97 -1c-83 0 -161 1 -243 7h2c-3 1 -5 6 -7 12l-5 21c-6 65 -34 167 -47 199l-428 -4c-19 -74 -41 -154 -59 -228c-9 -9 -52 -10 -95 -10c-8 0 -17 1 -25 1h-58c-87 0 -173 -6 -260 -6h-30c-11 0 -19 -1 -28 -1h-70
c-5 5 -10 11 -15 18c81 285 179 575 271 858l23 71h-1l27 83c54 167 115 333 165 503c1 4 2 7 5 9h166c119 0 238 5 355 5l96 -5c19 0 50 5 79 5c30 0 60 -4 60 -24c168 -471 305 -936 455 -1392l14 -50c3 -12 4 -21 20 -57c-2 -15 -27 -13 -88 -13h-59zM866 1146l-4 9
c-6 17 -9 34 -42 48c-29 -7 -122 -429 -161 -602l-11 -66h59c11 0 25 -1 41 -1c94 0 239 1 239 1s-15 119 -23 175l-38 171c-20 88 -42 176 -60 265zM1318 2032v4c4 -115 6 -231 7 -346c-1 -2 -3 -8 -3 -10l-7 1c-113 -11 -216 -5 -333 -14l-26 29c0 68 6 325 24 344
c37 -2 67 -3 104 -3c59 0 106 3 170 3c31 0 62 -2 64 -8zM956 1695l1 -3l-3 7c0 -1 1 -2 2 -3v-1zM1321 1679l14 -1c0 -12 -7 -17 -14 -17c-3 0 -7 1 -10 4zM753 1839c0 -46 0 -109 1 -156c-8 -9 -43 -11 -81 -11c-7 0 -13 1 -21 1h-51c-60 0 -138 -7 -187 -7
c-9 12 -15 23 -24 35c0 104 3 317 22 339c108 -2 223 0 335 -4h-2c6 -2 7 -11 7 -25c0 -4 -1 -8 -1 -11v-32c0 -34 2 -76 2 -98v-31z" />
    <glyph glyph-name="Aring" unicode="&#xc5;" horiz-adv-x="1639" 
d="M1550 -24c-21 0 -41 -1 -62 -1h-61c-32 0 -65 -1 -97 -1c-83 0 -161 1 -243 7h2c-3 1 -5 6 -7 12l-5 21c-6 65 -34 167 -47 199l-428 -4c-19 -74 -41 -154 -59 -228c-9 -9 -52 -10 -95 -10c-8 0 -17 1 -25 1h-58c-87 0 -173 -6 -260 -6h-30c-11 0 -19 -1 -28 -1h-70
c-5 5 -10 11 -15 18c81 285 179 575 271 858l23 71h-1l27 83c54 167 115 333 165 503c1 4 2 7 5 9h166c119 0 238 5 355 5l96 -5c19 0 50 5 79 5c30 0 60 -4 60 -24c168 -471 305 -936 455 -1392l14 -50c3 -12 4 -21 20 -57c-2 -15 -27 -13 -88 -13h-59zM866 1146l-4 9
c-6 17 -9 34 -42 48c-29 -7 -122 -429 -161 -602l-11 -66h59c11 0 25 -1 41 -1c94 0 239 1 239 1s-15 119 -23 175l-38 171c-20 88 -42 176 -60 265zM822 2232c152 0 293 -119 293 -282c0 -165 -138 -284 -283 -284c-175 0 -275 143 -296 278c0 1 1 0 2 2
c17 137 102 286 284 286zM826 2085c-63 0 -126 -42 -141 -122c0 -99 82 -148 144 -148c67 0 131 45 131 135c0 89 -67 135 -134 135z" />
    <glyph glyph-name="AE" unicode="&#xc6;" horiz-adv-x="2383" 
d="M1546 -24c-23 -1 -57 -2 -84 -2c-15 0 -29 1 -40 1l-149 -2c-63 1 -128 4 -190 8h2c-3 1 -5 6 -7 12l-6 23v-1c-10 65 -35 199 -106 198l-369 -4l-58 -228c-10 -9 -52 -10 -96 -10c-8 0 -15 1 -23 1h-59c-87 0 -173 -6 -260 -6h-31c-10 0 -18 -1 -27 -1h-70
c-5 5 -10 11 -15 18c149 515 332 1020 485 1515c1 4 2 7 4 9h167c117 0 233 5 355 5l96 -5c21 0 50 5 79 5c12 0 23 -1 33 -4c231 4 458 8 693 8c4 -2 11 -7 14 -11l52 -178c20 -70 40 -137 57 -206c-5 -5 -30 -6 -51 -6h-7c-164 0 -348 3 -514 8c4 -24 12 -61 16 -85v1
c6 -39 14 -78 25 -121l296 7c41 1 82 2 122 2c78 0 115 -6 127 -30l7 -32c13 -48 30 -98 46 -145h-1l40 -137c-155 -8 -315 -15 -474 -15h-57l56 -191c182 0 358 17 534 17c22 0 55 -5 68 -17l81 -278c9 -31 29 -78 29 -106c0 -3 -5 -6 -10 -7c-109 0 -221 3 -332 3
c-104 0 -203 -2 -301 -5c-17 -8 -48 -8 -96 -8h-51zM2106 584c3 -2 4 -3 4 -3c-4 0 -8 -1 -8 -4v-3l-3 9c2 0 5 1 7 1zM1278 -29l6 -5l-14 -15l-5 4zM862 1146l-4 9c-6 17 -9 34 -42 48c-74 -7 -146 -428 -191 -602l39 -66h39c11 0 25 -1 41 -1c93 0 234 7 238 61
c0 39 -14 77 -22 115l-38 171c-22 88 -41 176 -60 265z" />
    <glyph glyph-name="Ccedilla" unicode="&#xc7;" horiz-adv-x="1556" 
d="M1521 1033l9 -94c-13 -12 -110 -16 -215 -16c-48 0 -112 2 -159 2h-13c-33 0 -62 2 -87 2c-8 0 -17 -1 -24 -1h-20c-64 0 -12 217 -156 217c-183 0 -182 -226 -182 -390v-24c0 -28 -4 -60 -4 -101c0 -116 19 -277 156 -282c92 0 105 85 127 152v-1c6 22 13 43 21 55h38
c14 0 30 -1 46 -1h162c16 0 33 1 49 1c32 0 63 -1 95 -1h58c19 0 39 -1 59 -1h40c8 -1 14 -10 17 -21l-3 -33c-31 -408 -390 -561 -723 -561c-651 0 -763 504 -763 862c0 3 2 10 2 19c14 107 28 221 81 334c148 294 448 388 727 388c438 0 635 -218 662 -505zM748 -2l138 -2
c7 -1 11 -5 11 -11c0 -22 -24 -41 -59 -106c165 0 252 -76 252 -181c0 -153 -154 -233 -322 -233c-112 0 -288 25 -288 66c0 15 14 45 29 71l13 29c1 4 4 9 5 13v-1c4 12 9 21 18 26c22 -8 38 -16 60 -23h-1c38 -14 76 -24 115 -24c13 0 110 0 110 63c0 43 -60 44 -78 44
c-5 -2 -17 -5 -32 -8l-22 -7c-13 0 -23 8 -36 17l1 -1l-22 14h1c-21 12 -44 29 -44 59l106 190c2 2 10 5 15 6h5c2 0 5 -1 8 -1h17zM697 -286v-20l-5 -1l-2 19z" />
    <glyph glyph-name="Egrave" unicode="&#xc8;" horiz-adv-x="1306" 
d="M1267 1224c-1 -22 0 -44 -2 -67c-5 -16 -30 -16 -59 -16h-7c-164 0 -340 3 -504 8c-1 -18 -5 -46 -6 -65l-5 -38c-5 -37 -6 -82 -7 -132l310 7c40 1 77 2 116 2h16c72 0 99 0 99 -24c0 -3 -1 -6 -1 -8v-24c0 -103 5 -163 5 -257l-1 -1v1c-162 -8 -325 -15 -486 -15h-47
v-242c186 0 361 17 543 17c23 0 48 -3 57 -13c-1 -26 -1 -49 -1 -74c0 -67 -1 -135 5 -187v1c1 -27 2 -55 2 -86c0 -15 -5 -26 -22 -29c-111 0 -221 3 -332 3c-128 0 -265 -4 -390 -7l-164 -4c-86 -2 -172 -5 -258 -6l-3 2h1c-4 5 -14 14 -19 19v35c0 367 6 736 6 1069
l1 145c0 76 -6 249 -5 263c1 0 3 -1 7 -3c353 6 788 13 1145 14c2 -1 5 -4 6 -6v-282zM590 1685l-6 -2c-2 -1 -2 -2 -3 -2c-14 15 -23 28 -36 44v-1l-31 38c-39 47 -74 92 -141 160c-56 56 -114 117 -114 139c0 3 3 8 9 13c148 -13 290 -18 440 -18h30c2 0 3 1 6 1
c28 -21 142 -224 182 -284l9 -11c0 -1 2 -4 3 -5c13 -20 31 -49 31 -58c0 -12 -29 -14 -61 -14h-318z" />
    <glyph glyph-name="Eacute" unicode="&#xc9;" horiz-adv-x="1306" 
d="M1267 1224c-1 -22 0 -44 -2 -67c-5 -16 -30 -16 -59 -16h-7c-164 0 -340 3 -504 8c-1 -18 -5 -46 -6 -65l-5 -38c-5 -37 -6 -82 -7 -132l310 7c40 1 77 2 116 2h16c72 0 99 0 99 -24c0 -3 -1 -6 -1 -8v-24c0 -103 5 -163 5 -257l-1 -1v1c-162 -8 -325 -15 -486 -15h-47
v-242c186 0 361 17 543 17c23 0 48 -3 57 -13c-1 -26 -1 -49 -1 -74c0 -67 -1 -135 5 -187v1c1 -27 2 -55 2 -86c0 -15 -5 -26 -22 -29c-111 0 -221 3 -332 3c-128 0 -265 -4 -390 -7l-164 -4c-86 -2 -172 -5 -258 -6l-3 2h1c-4 5 -14 14 -19 19v35c0 367 6 736 6 1069
l1 145c0 76 -6 249 -5 263c1 0 3 -1 7 -3c353 6 788 13 1145 14c2 -1 5 -4 6 -6v-282zM534 2257h70c122 0 277 -9 418 -10v-3l-270 -304c-54 -62 -89 -63 -172 -64l-183 -3c-6 0 -11 -1 -16 -1h-49l-15 29l168 286c19 28 32 51 49 70z" />
    <glyph glyph-name="Ecircumflex" unicode="&#xca;" horiz-adv-x="1306" 
d="M1267 1224c-1 -22 0 -44 -2 -67c-5 -16 -30 -16 -59 -16h-7c-164 0 -340 3 -504 8c-1 -18 -5 -46 -6 -65l-5 -38c-5 -37 -6 -82 -7 -132l310 7c40 1 77 2 116 2h16c72 0 99 0 99 -24c0 -3 -1 -6 -1 -8v-24c0 -103 5 -163 5 -257l-1 -1v1c-162 -8 -325 -15 -486 -15h-47
v-242c186 0 361 17 543 17c23 0 48 -3 57 -13c-1 -26 -1 -49 -1 -74c0 -67 -1 -135 5 -187v1c1 -27 2 -55 2 -86c0 -15 -5 -26 -22 -29c-111 0 -221 3 -332 3c-128 0 -265 -4 -390 -7l-164 -4c-86 -2 -172 -5 -258 -6l-3 2h1c-4 5 -14 14 -19 19v35c0 367 6 736 6 1069
l1 145c0 76 -6 249 -5 263c1 0 3 -1 7 -3c353 6 788 13 1145 14c2 -1 5 -4 6 -6v-282zM581 1684h-267h-11c-16 0 -32 -3 -49 -3c-27 0 -57 3 -57 12c0 1 0 2 1 6l11 17c53 77 110 157 170 236l22 35c34 55 46 57 341 62l177 3c20 -8 54 -61 83 -103v1l62 -92
c15 -23 32 -45 47 -65l20 -28c21 -30 48 -61 48 -76c0 -6 -8 -10 -27 -10c-4 0 -7 1 -11 1h-62c-105 0 -196 -7 -295 -7c-33 17 -46 50 -64 86l-30 60c-41 -37 -83 -135 -109 -135z" />
    <glyph glyph-name="Edieresis" unicode="&#xcb;" horiz-adv-x="1306" 
d="M1267 1224c-1 -22 0 -44 -2 -67c-5 -16 -30 -16 -59 -16h-7c-164 0 -340 3 -504 8c-1 -18 -5 -46 -6 -65l-5 -38c-5 -37 -6 -82 -7 -132l310 7c40 1 77 2 116 2h16c72 0 99 0 99 -24c0 -3 -1 -6 -1 -8v-24c0 -103 5 -163 5 -257l-1 -1v1c-162 -8 -325 -15 -486 -15h-47
v-242c186 0 361 17 543 17c23 0 48 -3 57 -13c-1 -26 -1 -49 -1 -74c0 -67 -1 -135 5 -187v1c1 -27 2 -55 2 -86c0 -15 -5 -26 -22 -29c-111 0 -221 3 -332 3c-128 0 -265 -4 -390 -7l-164 -4c-86 -2 -172 -5 -258 -6l-3 2h1c-4 5 -14 14 -19 19v35c0 367 6 736 6 1069
l1 145c0 76 -6 249 -5 263c1 0 3 -1 7 -3c353 6 788 13 1145 14c2 -1 5 -4 6 -6v-282zM1154 2035v4c4 -115 6 -231 7 -346c-1 -2 -3 -8 -3 -10l-7 1c-113 -11 -216 -5 -333 -14l-26 29c0 68 6 325 24 344c37 -2 67 -3 104 -3c59 0 106 3 170 3c31 0 62 -2 64 -8zM792 1698
l1 -3l-3 7c0 -1 1 -2 2 -3v-1zM1157 1682l14 -1c0 -12 -7 -17 -14 -17c-3 0 -7 1 -10 4zM589 1842c0 -46 0 -109 1 -156c-8 -9 -43 -11 -81 -11c-7 0 -13 1 -21 1h-51c-60 0 -138 -7 -187 -7c-9 12 -15 23 -24 35c0 104 3 317 22 339c108 -2 223 0 335 -4h-2
c6 -2 7 -11 7 -25c0 -4 -1 -8 -1 -11v-32c0 -34 2 -76 2 -98v-31z" />
    <glyph glyph-name="Igrave" unicode="&#xcc;" horiz-adv-x="829" 
d="M711 1488v-304v-58c0 -279 7 -541 7 -814c0 -6 1 -11 3 -15v-2c2 -4 3 -8 3 -13c0 -48 3 -101 4 -147l4 -144c-3 -7 -11 -14 -18 -17h-34c-195 0 -379 -9 -560 -9c-8 4 -18 10 -26 15c0 6 1 9 1 17l3 110c2 96 -2 187 11 282c0 288 4 582 12 877c-2 42 -3 86 -3 127v33
c-3 23 -4 48 -4 72c0 5 2 10 5 14c148 -9 284 -13 440 -13c56 0 106 1 156 6c1 -2 2 -7 3 -17h-7zM381 1682l-6 -2c-2 -1 -2 -2 -3 -2c-14 15 -23 28 -36 44v-1l-31 38c-39 47 -74 92 -141 160c-56 56 -114 117 -114 139c0 3 3 8 9 13c148 -13 290 -18 440 -18h30
c2 0 3 1 6 1c28 -21 142 -224 182 -284l9 -11c0 -1 2 -4 3 -5c13 -20 31 -49 31 -58c0 -12 -29 -14 -61 -14h-318z" />
    <glyph glyph-name="Iacute" unicode="&#xcd;" horiz-adv-x="832" 
d="M715 1488v-304v-58c0 -279 7 -541 7 -814c0 -6 1 -11 3 -15v-2c2 -4 3 -8 3 -13c0 -48 3 -101 4 -147l4 -144c-3 -7 -11 -14 -18 -17h-34c-195 0 -379 -9 -560 -9c-8 4 -18 10 -26 15c0 6 1 9 1 17l3 110c2 96 -2 187 11 282c0 288 4 582 12 877c-2 42 -3 86 -3 127v33
c-3 23 -4 48 -4 72c0 5 2 10 5 14c148 -9 284 -13 440 -13c56 0 106 1 156 6c1 -2 2 -7 3 -17h-7zM393 2055h70c122 0 277 -9 418 -10v-3l-270 -304c-54 -62 -89 -63 -172 -64l-183 -3c-6 0 -11 -1 -16 -1h-49l-15 29l168 286c19 28 32 51 49 70z" />
    <glyph glyph-name="Icircumflex" unicode="&#xce;" horiz-adv-x="843" 
d="M713 1488v-304v-58c0 -279 7 -541 7 -814c0 -6 1 -11 3 -15v-2c2 -4 3 -8 3 -13c0 -48 3 -101 4 -147l4 -144c-3 -7 -11 -14 -18 -17h-34c-195 0 -379 -9 -560 -9c-8 4 -18 10 -26 15c0 6 1 9 1 17l3 110c2 96 -2 187 11 282c0 288 4 582 12 877c-2 42 -3 86 -3 127v33
c-3 23 -4 48 -4 72c0 5 2 10 5 14c148 -9 284 -13 440 -13c56 0 106 1 156 6c1 -2 2 -7 3 -17h-7zM380 1687h-267h-11c-16 0 -32 -3 -49 -3c-27 0 -57 3 -57 12c0 1 0 2 1 6l11 17c53 77 110 157 170 236l22 35c34 55 46 57 341 62l177 3c20 -8 54 -61 83 -103v1l62 -92
c15 -23 32 -45 47 -65l20 -28c21 -30 48 -61 48 -76c0 -6 -8 -10 -27 -10c-4 0 -7 1 -11 1h-62c-105 0 -196 -7 -295 -7c-33 17 -46 50 -64 86l-30 60c-41 -37 -83 -135 -109 -135z" />
    <glyph glyph-name="Idieresis" unicode="&#xcf;" horiz-adv-x="829" 
d="M707 1488v-304v-58c0 -279 7 -541 7 -814c0 -6 1 -11 3 -15v-2c2 -4 3 -8 3 -13c0 -48 3 -101 4 -147l4 -144c-3 -7 -11 -14 -18 -17h-34c-195 0 -379 -9 -560 -9c-8 4 -18 10 -26 15c0 6 1 9 1 17l3 110c2 96 -2 187 11 282c0 288 4 582 12 877c-2 42 -3 86 -3 127v33
c-3 23 -4 48 -4 72c0 5 2 10 5 14c148 -9 284 -13 440 -13c56 0 106 1 156 6c1 -2 2 -7 3 -17h-7zM932 2042v4c4 -115 6 -231 7 -346c-1 -2 -3 -8 -3 -10l-7 1c-113 -11 -216 -5 -333 -14l-26 29c0 68 6 325 24 344c37 -2 67 -3 104 -3c59 0 106 3 170 3c31 0 62 -2 64 -8z
M570 1705l1 -3l-3 7c0 -1 1 -2 2 -3v-1zM935 1689l14 -1c0 -12 -7 -17 -14 -17c-3 0 -7 1 -10 4zM367 1849c0 -46 0 -109 1 -156c-8 -9 -43 -11 -81 -11c-7 0 -13 1 -21 1h-51c-60 0 -138 -7 -187 -7c-9 12 -15 23 -24 35c0 104 3 317 22 339c108 -2 223 0 335 -4h-2
c6 -2 7 -11 7 -25c0 -4 -1 -8 -1 -11v-32c0 -34 2 -76 2 -98v-31z" />
    <glyph glyph-name="Eth" unicode="&#xd0;" 
d="M875 -27h-25c-86 0 -174 3 -264 3c-151 0 -302 -4 -453 -9c-18 28 -21 54 -21 78c0 15 1 29 1 43v156c0 76 2 153 2 222v168c-25 -1 -111 -1 -142 -1c-9 4 -18 11 -24 15c0 5 1 8 1 14v16c0 27 2 56 2 82v11c0 14 -2 28 -2 41c0 22 2 45 15 45h149c-1 47 -1 115 -1 163
v164c0 7 1 15 1 23v286c0 12 228 19 283 19h116c62 0 121 3 185 3c214 0 518 -21 687 -162l9 -7h-1c41 -37 229 -214 229 -587c0 -503 -352 -778 -743 -782zM929 1173c-79 52 -166 37 -244 43c-10 -15 -19 -29 -24 -40v1l-20 -37v-57c0 -53 1 -134 2 -190v-35h50
c14 0 29 -1 42 -1h66c12 -10 16 -60 16 -101c0 -10 -1 -20 -1 -28v-52c0 -27 -13 -31 -28 -31c-6 0 -12 1 -18 1h-121l3 -179c0 -19 -1 -43 -1 -67c0 -53 6 -107 44 -112c58 1 114 4 159 14c192 67 199 365 199 479c0 123 -4 304 -124 392z" />
    <glyph glyph-name="Ntilde" unicode="&#xd1;" horiz-adv-x="1727" 
d="M1626 288v-25c0 -54 2 -126 2 -176v-50c0 -19 1 -35 1 -47c-5 -7 -28 -8 -49 -8h-26c-111 0 -214 -4 -314 -4c-103 0 -200 0 -298 1c-19 21 -86 224 -109 291l-191 507l-36 -5c0 -30 -1 -71 -1 -102v-271c0 -92 4 -186 4 -271v-112c0 -23 1 -44 -20 -47
c-66 2 -130 3 -189 3h-31c-46 0 -109 -4 -151 -4h-20c-21 0 -48 -2 -72 -2l-3 2c-15 14 -33 29 -33 45v18c0 6 1 14 1 20l5 390c0 325 0 642 12 971l2 83c0 10 584 15 689 16c6 -4 12 -24 18 -44v3l6 -20c61 -174 132 -362 197 -531v1c30 -78 62 -156 91 -237l34 2
c0 273 4 560 4 815c0 7 67 8 146 8c91 0 194 -5 251 -5h74c6 -284 7 -535 7 -803c0 -22 -1 -44 -1 -67v-345zM1044 2214l23 19l253 -7c5 -2 10 -11 13 -15c-16 -251 -128 -344 -284 -344c-43 0 -92 9 -142 21l-31 9h1l-28 9c-48 15 -105 33 -140 34c-36 0 -39 -27 -44 -49
c0 -12 -197 -12 -232 -12h-27c-3 3 -6 10 -6 18c0 235 111 341 296 341c56 0 125 -20 186 -37v1c31 -11 61 -19 87 -26l30 -6c1 0 4 0 14 -10l25 28c2 7 5 18 6 26zM1005 2208l9 10l7 -17z" />
    <glyph glyph-name="Ograve" unicode="&#xd2;" 
d="M833 1178c-193 0 -207 -216 -219 -367l-4 -51c0 -2 -1 -4 -1 -5v-3c-2 -21 -4 -52 -4 -81c0 -153 33 -364 197 -372c240 0 246 260 246 489c0 159 -21 390 -215 390zM1460 230l-46 -61c-133 -154 -398 -224 -600 -227c-177 0 -330 29 -469 120
c-251 163 -310 439 -310 690c0 4 2 12 2 22c12 129 30 277 97 402c147 255 424 376 723 376c157 0 429 -49 560 -223c72 -90 123 -168 153 -272c26 -82 38 -198 38 -281c0 -208 -38 -406 -148 -546zM727 1697l-6 -2c-2 -1 -2 -2 -3 -2c-14 15 -23 28 -36 44v-1l-31 38
c-39 47 -74 92 -141 160c-56 56 -114 117 -114 139c0 3 3 8 9 13c148 -13 290 -18 440 -18h30c2 0 3 1 6 1c28 -21 142 -224 182 -284l9 -11c0 -1 2 -4 3 -5c13 -20 31 -49 31 -58c0 -12 -29 -14 -61 -14h-318z" />
    <glyph glyph-name="Oacute" unicode="&#xd3;" 
d="M833 1178c-193 0 -207 -216 -219 -367l-4 -51c0 -2 -1 -4 -1 -5v-3c-2 -21 -4 -52 -4 -81c0 -153 33 -364 197 -372c240 0 246 260 246 489c0 159 -21 390 -215 390zM1460 230l-46 -61c-133 -154 -398 -224 -600 -227c-177 0 -330 29 -469 120
c-251 163 -310 439 -310 690c0 4 2 12 2 22c12 129 30 277 97 402c147 255 424 376 723 376c157 0 429 -49 560 -223c72 -90 123 -168 153 -272c26 -82 38 -198 38 -281c0 -208 -38 -406 -148 -546zM680 2065h70c122 0 277 -9 418 -10v-3l-270 -304
c-54 -62 -89 -63 -172 -64l-183 -3c-6 0 -11 -1 -16 -1h-49l-15 29l168 286c19 28 32 51 49 70z" />
    <glyph glyph-name="Ocircumflex" unicode="&#xd4;" 
d="M833 1178c-193 0 -207 -216 -219 -367l-4 -51c0 -2 -1 -4 -1 -5v-3c-2 -21 -4 -52 -4 -81c0 -153 33 -364 197 -372c240 0 246 260 246 489c0 159 -21 390 -215 390zM1460 230l-46 -61c-133 -154 -398 -224 -600 -227c-177 0 -330 29 -469 120
c-251 163 -310 439 -310 690c0 4 2 12 2 22c12 129 30 277 97 402c147 255 424 376 723 376c157 0 429 -49 560 -223c72 -90 123 -168 153 -272c26 -82 38 -198 38 -281c0 -208 -38 -406 -148 -546zM732 1693h-267h-11c-16 0 -32 -3 -49 -3c-27 0 -57 3 -57 12c0 1 0 2 1 6
l11 17c53 77 110 157 170 236l22 35c34 55 46 57 341 62l177 3c20 -8 54 -61 83 -103v1l62 -92c15 -23 32 -45 47 -65l20 -28c21 -30 48 -61 48 -76c0 -6 -8 -10 -27 -10c-4 0 -7 1 -11 1h-62c-105 0 -196 -7 -295 -7c-33 17 -46 50 -64 86l-30 60
c-41 -37 -83 -135 -109 -135z" />
    <glyph glyph-name="Otilde" unicode="&#xd5;" 
d="M833 1178c-193 0 -207 -216 -219 -367l-4 -51c0 -2 -1 -4 -1 -5v-3c-2 -21 -4 -52 -4 -81c0 -153 33 -364 197 -372c240 0 246 260 246 489c0 159 -21 390 -215 390zM1460 230l-46 -61c-133 -154 -398 -224 -600 -227c-177 0 -330 29 -469 120
c-251 163 -310 439 -310 690c0 4 2 12 2 22c12 129 30 277 97 402c147 255 424 376 723 376c157 0 429 -49 560 -223c72 -90 123 -168 153 -272c26 -82 38 -198 38 -281c0 -208 -38 -406 -148 -546zM995 2025l23 19l253 -7c5 -2 10 -11 13 -15c-16 -251 -128 -344 -284 -344
c-43 0 -92 9 -142 21l-31 9h1l-28 9c-48 15 -105 33 -140 34c-36 0 -39 -27 -44 -49c0 -12 -197 -12 -232 -12h-27c-3 3 -6 10 -6 18c0 235 111 341 296 341c56 0 125 -20 186 -37v1c31 -11 61 -19 87 -26l30 -6c1 0 4 0 14 -10l25 28c2 7 5 18 6 26zM956 2019l9 10l7 -17z
" />
    <glyph glyph-name="Odieresis" unicode="&#xd6;" 
d="M833 1178c-193 0 -207 -216 -219 -367l-4 -51c0 -2 -1 -4 -1 -5v-3c-2 -21 -4 -52 -4 -81c0 -153 33 -364 197 -372c240 0 246 260 246 489c0 159 -21 390 -215 390zM1460 230l-46 -61c-133 -154 -398 -224 -600 -227c-177 0 -330 29 -469 120
c-251 163 -310 439 -310 690c0 4 2 12 2 22c12 129 30 277 97 402c147 255 424 376 723 376c157 0 429 -49 560 -223c72 -90 123 -168 153 -272c26 -82 38 -198 38 -281c0 -208 -38 -406 -148 -546zM1318 2268v4c4 -115 6 -231 7 -346c-1 -2 -3 -8 -3 -10l-7 1
c-113 -11 -216 -5 -333 -14l-26 29c0 68 6 325 24 344c37 -2 67 -3 104 -3c59 0 106 3 170 3c31 0 62 -2 64 -8zM956 1931l1 -3l-3 7c0 -1 1 -2 2 -3v-1zM1321 1915l14 -1c0 -12 -7 -17 -14 -17c-3 0 -7 1 -10 4zM753 2075c0 -46 0 -109 1 -156c-8 -9 -43 -11 -81 -11
c-7 0 -13 1 -21 1h-51c-60 0 -138 -7 -187 -7c-9 12 -15 23 -24 35c0 104 3 317 22 339c108 -2 223 0 335 -4h-2c6 -2 7 -11 7 -25c0 -4 -1 -8 -1 -11v-32c0 -34 2 -76 2 -98v-31z" />
    <glyph glyph-name="multiply" unicode="&#xd7;" horiz-adv-x="1283" 
d="M1100 783l-53 -54l-192 -189l228 -224l20 -19c17 -16 32 -31 32 -39c0 -13 -58 -70 -107 -117l-39 -37c-6 -7 -11 -10 -17 -17h1c-16 -16 -28 -30 -34 -34l-276 267c-48 -54 -116 -116 -170 -170l-100 -99l-10 -3c-24 4 -62 53 -88 72l-29 30c-42 39 -100 90 -100 104
c0 22 146 154 205 214l64 65c-70 76 -154 161 -225 232l-20 17c-12 10 -22 27 -23 32c0 11 28 40 58 66l61 61c24 24 73 82 97 82l96 -98l179 -180l272 274c3 2 0 2 4 2c14 0 84 -75 130 -126l44 -45c14 -14 27 -27 30 -34c-2 -2 -9 -8 -15 -12zM939 53c-1 -1 -2 -1 -2 -1
c1 0 2 0 2 1z" />
    <glyph glyph-name="Oslash" unicode="&#xd8;" 
d="M1460 230l-46 -61c-133 -154 -398 -224 -600 -227c-135 0 -256 18 -385 72l-41 -68c-36 -59 -82 -126 -102 -130l-19 6c-5 0 -13 4 -20 7l13 34v-1l19 49v-1l85 136l-13 12c-257 167 -316 443 -316 694c0 4 2 12 2 22c12 129 30 277 97 402c147 255 424 376 723 376
c111 0 266 -26 411 -101l119 187c-2 -3 -3 -5 -3 -6c1 0 50 -15 50 -24c0 -18 -65 -116 -114 -188c211 -156 288 -409 288 -644c0 -208 -38 -406 -148 -546zM833 1178c-193 0 -207 -216 -219 -367l-4 -51c0 -2 -1 -4 -1 -5v-3c-2 -21 -4 -52 -4 -81c0 -57 7 -129 22 -215
l383 596c-37 74 -89 126 -177 126zM1037 969l-371 -589c36 -51 83 -78 136 -81c240 0 246 260 246 489c0 38 -3 92 -11 181z" />
    <glyph glyph-name="Ugrave" unicode="&#xd9;" horiz-adv-x="1615" 
d="M833 -62c-328 0 -693 129 -729 555c3 251 5 513 5 773c-1 0 -5 54 -5 116c0 48 1 97 9 119h21c129 7 264 8 401 8c32 -8 88 -3 131 -8l31 -4c5 -146 8 -389 9 -545l-3 -202c0 -70 -3 -118 -3 -200c0 -85 12 -200 116 -200c68 0 115 72 118 140l4 10l3 337c0 10 1 20 1 30
c0 144 -2 304 -6 448l-2 73c-1 22 -2 46 -2 70c0 26 4 49 11 57c201 0 386 0 582 -3l5 -4l-4 3c4 -6 9 -8 17 -12h-1l11 -7c-7 -165 -8 -320 -8 -486v-172c0 -19 1 -38 1 -59c0 -93 -3 -188 -3 -281c0 -444 -367 -556 -710 -556zM752 1682l-6 -2c-2 -1 -2 -2 -3 -2
c-14 15 -23 28 -36 44v-1l-31 38c-39 47 -74 92 -141 160c-56 56 -114 117 -114 139c0 3 3 8 9 13c148 -13 290 -18 440 -18h30c2 0 3 1 6 1c28 -21 142 -224 182 -284l9 -11c0 -1 2 -4 3 -5c13 -20 31 -49 31 -58c0 -12 -29 -14 -61 -14h-318z" />
    <glyph glyph-name="Uacute" unicode="&#xda;" horiz-adv-x="1615" 
d="M833 -62c-328 0 -693 129 -729 555c3 251 5 513 5 773c-1 0 -5 54 -5 116c0 48 1 97 9 119h21c129 7 264 8 401 8c32 -8 88 -3 131 -8l31 -4c5 -146 8 -389 9 -545l-3 -202c0 -70 -3 -118 -3 -200c0 -85 12 -200 116 -200c68 0 115 72 118 140l4 10l3 337c0 10 1 20 1 30
c0 144 -2 304 -6 448l-2 73c-1 22 -2 46 -2 70c0 26 4 49 11 57c201 0 386 0 582 -3l5 -4l-4 3c4 -6 9 -8 17 -12h-1l11 -7c-7 -165 -8 -320 -8 -486v-172c0 -19 1 -38 1 -59c0 -93 -3 -188 -3 -281c0 -444 -367 -556 -710 -556zM695 2058h70c122 0 277 -9 418 -10v-3
l-270 -304c-54 -62 -89 -63 -172 -64l-183 -3c-6 0 -11 -1 -16 -1h-49l-15 29l168 286c19 28 32 51 49 70z" />
    <glyph glyph-name="Ucircumflex" unicode="&#xdb;" horiz-adv-x="1615" 
d="M833 -62c-328 0 -693 129 -729 555c3 251 5 513 5 773c-1 0 -5 54 -5 116c0 48 1 97 9 119h21c129 7 264 8 401 8c32 -8 88 -3 131 -8l31 -4c5 -146 8 -389 9 -545l-3 -202c0 -70 -3 -118 -3 -200c0 -85 12 -200 116 -200c68 0 115 72 118 140l4 10l3 337c0 10 1 20 1 30
c0 144 -2 304 -6 448l-2 73c-1 22 -2 46 -2 70c0 26 4 49 11 57c201 0 386 0 582 -3l5 -4l-4 3c4 -6 9 -8 17 -12h-1l11 -7c-7 -165 -8 -320 -8 -486v-172c0 -19 1 -38 1 -59c0 -93 -3 -188 -3 -281c0 -444 -367 -556 -710 -556zM721 1687h-267h-11c-16 0 -32 -3 -49 -3
c-27 0 -57 3 -57 12c0 1 0 2 1 6l11 17c53 77 110 157 170 236l22 35c34 55 46 57 341 62l177 3c20 -8 54 -61 83 -103v1l62 -92c15 -23 32 -45 47 -65l20 -28c21 -30 48 -61 48 -76c0 -6 -8 -10 -27 -10c-4 0 -7 1 -11 1h-62c-105 0 -196 -7 -295 -7c-33 17 -46 50 -64 86
l-30 60c-41 -37 -83 -135 -109 -135z" />
    <glyph glyph-name="Udieresis" unicode="&#xdc;" horiz-adv-x="1615" 
d="M833 -62c-328 0 -693 129 -729 555c3 251 5 513 5 773c-1 0 -5 54 -5 116c0 48 1 97 9 119h21c129 7 264 8 401 8c32 -8 88 -3 131 -8l31 -4c5 -146 8 -389 9 -545l-3 -202c0 -70 -3 -118 -3 -200c0 -85 12 -200 116 -200c68 0 115 72 118 140l4 10l3 337c0 10 1 20 1 30
c0 144 -2 304 -6 448l-2 73c-1 22 -2 46 -2 70c0 26 4 49 11 57c201 0 386 0 582 -3l5 -4l-4 3c4 -6 9 -8 17 -12h-1l11 -7c-7 -165 -8 -320 -8 -486v-172c0 -19 1 -38 1 -59c0 -93 -3 -188 -3 -281c0 -444 -367 -556 -710 -556zM1307 2268v4c4 -115 6 -231 7 -346
c-1 -2 -3 -8 -3 -10l-7 1c-113 -11 -216 -5 -333 -14l-26 29c0 68 6 325 24 344c37 -2 67 -3 104 -3c59 0 106 3 170 3c31 0 62 -2 64 -8zM945 1931l1 -3l-3 7c0 -1 1 -2 2 -3v-1zM1310 1915l14 -1c0 -12 -7 -17 -14 -17c-3 0 -7 1 -10 4zM742 2075c0 -46 0 -109 1 -156
c-8 -9 -43 -11 -81 -11c-7 0 -13 1 -21 1h-51c-60 0 -138 -7 -187 -7c-9 12 -15 23 -24 35c0 104 3 317 22 339c108 -2 223 0 335 -4h-2c6 -2 7 -11 7 -25c0 -4 -1 -8 -1 -11v-32c0 -34 2 -76 2 -98v-31z" />
    <glyph glyph-name="Yacute" unicode="&#xdd;" horiz-adv-x="1524" 
d="M1070 396v-413c-3 -9 -10 -16 -20 -16c-197 0 -378 -4 -573 -4c-19 24 -22 43 -22 64c0 42 2 84 2 125v29c0 11 1 20 1 30l1 73c0 231 -85 406 -174 589l-149 298c-26 49 -47 93 -83 158l-6 11v-1c-36 55 -80 127 -80 162c0 4 15 5 32 5h257c106 0 213 0 321 -3
c25 -5 117 -304 167 -481l45 -159c79 206 160 471 215 638c1 8 80 8 148 8h128c24 0 46 0 77 -2h173c11 0 23 1 33 1c6 -3 11 -10 15 -25l-30 -59v1l-65 -125c-63 -116 -135 -244 -190 -364v1l-34 -65l-187 -374c-2 -34 -2 -69 -2 -102zM682 2030h70c122 0 277 -9 418 -10
v-3l-270 -304c-54 -62 -89 -63 -172 -64l-183 -3c-6 0 -11 -1 -16 -1h-49l-15 29l168 286c19 28 32 51 49 70z" />
    <glyph glyph-name="Thorn" unicode="&#xde;" horiz-adv-x="1527" 
d="M719 106c0 -11 1 -21 1 -31v-82c-2 -10 -6 -16 -14 -18l-572 -9c-18 51 -17 96 -17 154v407c0 157 2 271 2 411l-1 420c0 1 1 2 1 3v107c0 55 -1 102 17 154l572 -9c8 -2 12 -8 14 -19v-81c0 -10 -1 -20 -1 -30l3 -106c83 -1 184 -3 266 -10h7c17 1 30 2 43 2
c259 0 491 -174 491 -496c0 -420 -353 -497 -587 -517h1l-216 -9c-4 -78 -7 -163 -10 -241zM992 957c-43 113 -187 112 -306 112c5 -28 10 -274 10 -370l41 -59c130 4 270 50 270 235c0 32 -4 60 -15 82z" />
    <glyph glyph-name="germandbls" unicode="&#xdf;" horiz-adv-x="1559" 
d="M725 32l-3 -1c-52 51 -74 113 -91 182l-38 -2v-71c0 -54 1 -155 4 -158c-50 -3 -98 -4 -149 -4c-118 0 -227 4 -337 4h-9h-24c0 241 -5 482 -5 739c0 113 1 251 4 361c3 102 30 232 97 301c133 115 338 182 557 182c96 0 192 -11 280 -28c186 -20 432 -105 432 -347
c0 -69 -21 -136 -65 -188l1 1c-49 -54 -153 -128 -153 -179c0 -62 157 -119 181 -142v1c126 -78 199 -171 199 -351c0 -298 -298 -398 -510 -398c-122 0 -272 12 -371 98zM596 1009l-4 -9c1 -105 1 -214 1 -322v-365l46 45l362 3c40 -5 -13 -110 66 -110c3 0 10 1 17 3l20 1
c11 29 16 48 16 57c0 71 -72 115 -125 145l1 -1c-112 89 -303 175 -303 346c0 80 44 157 106 212h-1l32 23c49 35 109 79 109 141c0 83 -64 108 -136 108c-169 0 -205 -151 -207 -277zM720 30l7 -15l-14 -15l-17 12l17 20l9 -1c1 0 1 -1 2 -1h-4zM77 -22c0 2 0 3 -1 3h-4
c2 1 4 1 6 1v-2c0 -1 -1 -1 -1 -2z" />
    <glyph glyph-name="agrave" unicode="&#xe0;" horiz-adv-x="1575" 
d="M1475 199c0 -65 10 -124 29 -180l10 -22h-452c-12 0 -23 1 -36 1c-21 0 -40 0 -61 -1c-18 34 -43 100 -61 164c-16 -34 -70 -96 -91 -96c-68 -33 -143 -71 -210 -80l-15 -2c-36 -5 -88 -19 -131 -19c-215 0 -422 130 -422 363c0 138 53 256 226 298c74 18 146 22 224 29
l33 3c9 0 41 7 46 7c4 0 7 -1 10 -1h24c16 0 38 1 53 5l54 7c92 6 180 17 180 155c-5 8 -6 17 -6 27c0 51 -43 101 -96 101h-5c-90 0 -96 -116 -96 -163l-2 -3c-7 -4 -8 -5 -10 -5l-4 1c-12 1 -25 3 -56 3h-516c4 59 17 104 35 153v-1c87 212 368 285 566 292l60 3
c9 0 23 3 32 3c4 0 8 -1 12 -3h13c16 0 33 2 45 2c19 0 42 -4 63 -7l29 -4c14 -2 29 0 45 -2c424 -56 478 -374 478 -663c4 -13 7 -30 7 -42c0 -26 -5 -48 -5 -69v-116c1 -2 1 -8 1 -17c0 -19 -2 -51 -2 -68v-9c3 -5 3 -9 3 -14c0 -3 -1 -6 -1 -9v-21zM889 330l2 10
c0 20 1 39 1 62v30c0 11 1 22 1 32c0 25 0 50 -8 96c-83 -45 -197 -43 -197 -156c0 -67 42 -128 105 -128c30 0 75 18 96 54zM767 1430l-6 -2c-2 -1 -2 -2 -3 -2c-14 15 -23 28 -36 44v-1l-31 38c-39 47 -74 92 -141 160c-56 56 -114 117 -114 139c0 3 3 8 9 13
c148 -13 290 -18 440 -18h30c2 0 3 1 6 1c28 -21 142 -224 182 -284l9 -11c0 -1 2 -4 3 -5c13 -20 31 -49 31 -58c0 -12 -29 -14 -61 -14h-318z" />
    <glyph glyph-name="aacute" unicode="&#xe1;" horiz-adv-x="1575" 
d="M1475 199c0 -65 10 -124 29 -180l10 -22h-452c-12 0 -23 1 -36 1c-21 0 -40 0 -61 -1c-18 34 -43 100 -61 164c-16 -34 -70 -96 -91 -96c-68 -33 -143 -71 -210 -80l-15 -2c-36 -5 -88 -19 -131 -19c-215 0 -422 130 -422 363c0 138 53 256 226 298c74 18 146 22 224 29
l33 3c9 0 41 7 46 7c4 0 7 -1 10 -1h24c16 0 38 1 53 5l54 7c92 6 180 17 180 155c-5 8 -6 17 -6 27c0 51 -43 101 -96 101h-5c-90 0 -96 -116 -96 -163l-2 -3c-7 -4 -8 -5 -10 -5l-4 1c-12 1 -25 3 -56 3h-516c4 59 17 104 35 153v-1c87 212 368 285 566 292l60 3
c9 0 23 3 32 3c4 0 8 -1 12 -3h13c16 0 33 2 45 2c19 0 42 -4 63 -7l29 -4c14 -2 29 0 45 -2c424 -56 478 -374 478 -663c4 -13 7 -30 7 -42c0 -26 -5 -48 -5 -69v-116c1 -2 1 -8 1 -17c0 -19 -2 -51 -2 -68v-9c3 -5 3 -9 3 -14c0 -3 -1 -6 -1 -9v-21zM889 330l2 10
c0 20 1 39 1 62v30c0 11 1 22 1 32c0 25 0 50 -8 96c-83 -45 -197 -43 -197 -156c0 -67 42 -128 105 -128c30 0 75 18 96 54zM662 1794h70c122 0 277 -9 418 -10v-3l-270 -304c-54 -62 -89 -63 -172 -64l-183 -3c-6 0 -11 -1 -16 -1h-49l-15 29l168 286c19 28 32 51 49 70z
" />
    <glyph glyph-name="acircumflex" unicode="&#xe2;" horiz-adv-x="1575" 
d="M1475 199c0 -65 10 -124 29 -180l10 -22h-452c-12 0 -23 1 -36 1c-21 0 -40 0 -61 -1c-18 34 -43 100 -61 164c-16 -34 -70 -96 -91 -96c-68 -33 -143 -71 -210 -80l-15 -2c-36 -5 -88 -19 -131 -19c-215 0 -422 130 -422 363c0 138 53 256 226 298c74 18 146 22 224 29
l33 3c9 0 41 7 46 7c4 0 7 -1 10 -1h24c16 0 38 1 53 5l54 7c92 6 180 17 180 155c-5 8 -6 17 -6 27c0 51 -43 101 -96 101h-5c-90 0 -96 -116 -96 -163l-2 -3c-7 -4 -8 -5 -10 -5l-4 1c-12 1 -25 3 -56 3h-516c4 59 17 104 35 153v-1c87 212 368 285 566 292l60 3
c9 0 23 3 32 3c4 0 8 -1 12 -3h13c16 0 33 2 45 2c19 0 42 -4 63 -7l29 -4c14 -2 29 0 45 -2c424 -56 478 -374 478 -663c4 -13 7 -30 7 -42c0 -26 -5 -48 -5 -69v-116c1 -2 1 -8 1 -17c0 -19 -2 -51 -2 -68v-9c3 -5 3 -9 3 -14c0 -3 -1 -6 -1 -9v-21zM889 330l2 10
c0 20 1 39 1 62v30c0 11 1 22 1 32c0 25 0 50 -8 96c-83 -45 -197 -43 -197 -156c0 -67 42 -128 105 -128c30 0 75 18 96 54zM687 1410h-267h-11c-16 0 -32 -3 -49 -3c-27 0 -57 3 -57 12c0 1 0 2 1 6l11 17c53 77 110 157 170 236l22 35c34 55 46 57 341 62l177 3
c20 -8 54 -61 83 -103v1l62 -92c15 -23 32 -45 47 -65l20 -28c21 -30 48 -61 48 -76c0 -6 -8 -10 -27 -10c-4 0 -7 1 -11 1h-62c-105 0 -196 -7 -295 -7c-33 17 -46 50 -64 86l-30 60c-41 -37 -83 -135 -109 -135z" />
    <glyph glyph-name="atilde" unicode="&#xe3;" horiz-adv-x="1575" 
d="M1475 199c0 -65 10 -124 29 -180l10 -22h-452c-12 0 -23 1 -36 1c-21 0 -40 0 -61 -1c-18 34 -43 100 -61 164c-16 -34 -70 -96 -91 -96c-68 -33 -143 -71 -210 -80l-15 -2c-36 -5 -88 -19 -131 -19c-215 0 -422 130 -422 363c0 138 53 256 226 298c74 18 146 22 224 29
l33 3c9 0 41 7 46 7c4 0 7 -1 10 -1h24c16 0 38 1 53 5l54 7c92 6 180 17 180 155c-5 8 -6 17 -6 27c0 51 -43 101 -96 101h-5c-90 0 -96 -116 -96 -163l-2 -3c-7 -4 -8 -5 -10 -5l-4 1c-12 1 -25 3 -56 3h-516c4 59 17 104 35 153v-1c87 212 368 285 566 292l60 3
c9 0 23 3 32 3c4 0 8 -1 12 -3h13c16 0 33 2 45 2c19 0 42 -4 63 -7l29 -4c14 -2 29 0 45 -2c424 -56 478 -374 478 -663c4 -13 7 -30 7 -42c0 -26 -5 -48 -5 -69v-116c1 -2 1 -8 1 -17c0 -19 -2 -51 -2 -68v-9c3 -5 3 -9 3 -14c0 -3 -1 -6 -1 -9v-21zM889 330l2 10
c0 20 1 39 1 62v30c0 11 1 22 1 32c0 25 0 50 -8 96c-83 -45 -197 -43 -197 -156c0 -67 42 -128 105 -128c30 0 75 18 96 54zM971 1751l23 19l253 -7c5 -2 10 -11 13 -15c-16 -251 -128 -344 -284 -344c-43 0 -92 9 -142 21l-31 9h1l-28 9c-48 15 -105 33 -140 34
c-36 0 -39 -27 -44 -49c0 -12 -197 -12 -232 -12h-27c-3 3 -6 10 -6 18c0 235 111 341 296 341c56 0 125 -20 186 -37v1c31 -11 61 -19 87 -26l30 -6c1 0 4 0 14 -10l25 28c2 7 5 18 6 26zM932 1745l9 10l7 -17z" />
    <glyph glyph-name="adieresis" unicode="&#xe4;" horiz-adv-x="1575" 
d="M1475 199c0 -65 10 -124 29 -180l10 -22h-452c-12 0 -23 1 -36 1c-21 0 -40 0 -61 -1c-18 34 -43 100 -61 164c-16 -34 -70 -96 -91 -96c-68 -33 -143 -71 -210 -80l-15 -2c-36 -5 -88 -19 -131 -19c-215 0 -422 130 -422 363c0 138 53 256 226 298c74 18 146 22 224 29
l33 3c9 0 41 7 46 7c4 0 7 -1 10 -1h24c16 0 38 1 53 5l54 7c92 6 180 17 180 155c-5 8 -6 17 -6 27c0 51 -43 101 -96 101h-5c-90 0 -96 -116 -96 -163l-2 -3c-7 -4 -8 -5 -10 -5l-4 1c-12 1 -25 3 -56 3h-516c4 59 17 104 35 153v-1c87 212 368 285 566 292l60 3
c9 0 23 3 32 3c4 0 8 -1 12 -3h13c16 0 33 2 45 2c19 0 42 -4 63 -7l29 -4c14 -2 29 0 45 -2c424 -56 478 -374 478 -663c4 -13 7 -30 7 -42c0 -26 -5 -48 -5 -69v-116c1 -2 1 -8 1 -17c0 -19 -2 -51 -2 -68v-9c3 -5 3 -9 3 -14c0 -3 -1 -6 -1 -9v-21zM889 330l2 10
c0 20 1 39 1 62v30c0 11 1 22 1 32c0 25 0 50 -8 96c-83 -45 -197 -43 -197 -156c0 -67 42 -128 105 -128c30 0 75 18 96 54zM1255 1805v4c4 -115 6 -231 7 -346c-1 -2 -3 -8 -3 -10l-7 1c-113 -11 -216 -5 -333 -14l-26 29c0 68 6 325 24 344c37 -2 67 -3 104 -3
c59 0 106 3 170 3c31 0 62 -2 64 -8zM893 1468l1 -3l-3 7c0 -1 1 -2 2 -3v-1zM1258 1452l14 -1c0 -12 -7 -17 -14 -17c-3 0 -7 1 -10 4zM690 1612c0 -46 0 -109 1 -156c-8 -9 -43 -11 -81 -11c-7 0 -13 1 -21 1h-51c-60 0 -138 -7 -187 -7c-9 12 -15 23 -24 35
c0 104 3 317 22 339c108 -2 223 0 335 -4h-2c6 -2 7 -11 7 -25c0 -4 -1 -8 -1 -11v-32c0 -34 2 -76 2 -98v-31z" />
    <glyph glyph-name="aring" unicode="&#xe5;" horiz-adv-x="1575" 
d="M1475 199c0 -65 10 -124 29 -180l10 -22h-452c-12 0 -23 1 -36 1c-21 0 -40 0 -61 -1c-18 34 -43 100 -61 164c-16 -34 -70 -96 -91 -96c-68 -33 -143 -71 -210 -80l-15 -2c-36 -5 -88 -19 -131 -19c-215 0 -422 130 -422 363c0 138 53 256 226 298c74 18 146 22 224 29
l33 3c9 0 41 7 46 7c4 0 7 -1 10 -1h24c16 0 38 1 53 5l54 7c92 6 180 17 180 155c-5 8 -6 17 -6 27c0 51 -43 101 -96 101h-5c-90 0 -96 -116 -96 -163l-2 -3c-7 -4 -8 -5 -10 -5l-4 1c-12 1 -25 3 -56 3h-516c4 59 17 104 35 153v-1c87 212 368 285 566 292l60 3
c9 0 23 3 32 3c4 0 8 -1 12 -3h13c16 0 33 2 45 2c19 0 42 -4 63 -7l29 -4c14 -2 29 0 45 -2c424 -56 478 -374 478 -663c4 -13 7 -30 7 -42c0 -26 -5 -48 -5 -69v-116c1 -2 1 -8 1 -17c0 -19 -2 -51 -2 -68v-9c3 -5 3 -9 3 -14c0 -3 -1 -6 -1 -9v-21zM889 330l2 10
c0 20 1 39 1 62v30c0 11 1 22 1 32c0 25 0 50 -8 96c-83 -45 -197 -43 -197 -156c0 -67 42 -128 105 -128c30 0 75 18 96 54zM790 1977c152 0 293 -119 293 -282c0 -165 -138 -284 -283 -284c-175 0 -275 143 -296 278c0 1 1 0 2 2c17 137 102 286 284 286zM794 1830
c-63 0 -126 -42 -141 -122c0 -99 82 -148 144 -148c67 0 131 45 131 135c0 89 -67 135 -134 135z" />
    <glyph glyph-name="ae" unicode="&#xe6;" horiz-adv-x="2100" 
d="M1323 1038c-15 0 -60 3 -77 4c0 -47 11 -52 11 -70l22 -88c2 0 14 -1 18 -1h46c124 0 242 6 373 6c51 0 35 -35 52 -65l11 -39c10 -15 6 -23 13 -36l15 -51c9 -32 17 -55 42 -127c-92 0 -161 -8 -269 -8h-110c-20 0 -61 2 -83 3l9 -36c0 -6 1 -9 5 -16l31 -107
c2 0 15 -1 18 -1h15c99 0 202 7 301 7l134 3c23 0 48 -9 64 -16l22 -71l11 -28l-1 1l54 -180c2 -13 10 -15 10 -29l7 -24c3 -9 5 -18 5 -20s-2 -5 -9 -5h-14c-23 0 -44 3 -69 3h-50c-4 0 -8 1 -12 1h-92c-3 0 -5 1 -8 1h-51c-79 0 -160 1 -240 2c-8 -4 -20 -4 -36 -4h-97
c-28 -1 -69 -1 -97 -1c-20 0 -38 0 -59 1l-88 -4v4h-62c-19 0 -34 -2 -54 -2c-31 0 -64 3 -66 19l-41 154v-1c-9 41 -9 41 -53 41h-334c-7 -21 -18 -59 -25 -88l-26 -111c-8 -13 -50 -17 -93 -17c-4 0 -8 1 -12 1h-71c-44 -3 -86 -3 -125 -3h-209c-2 0 -5 -1 -8 -1l-16 16
c0 1 -1 3 -2 4l23 70c8 26 11 53 27 79h-1l64 186l24 79h-1l201 601l21 61c34 87 59 167 85 251h-1c1 3 4 7 7 12l1 3c36 -1 70 -1 108 -1h147c9 -1 24 -1 34 -1h101c8 0 21 -1 34 -1h35c26 0 52 -1 79 -1h16c37 0 66 -2 92 -5c82 3 175 4 301 4h53c9 0 17 1 25 1h196
c23 -6 45 -105 58 -147l65 -213l-7 -6c-4 -1 -8 -1 -11 -1s-6 0 -9 1h-14c-4 0 -9 1 -13 1l-213 2c-15 0 -29 -1 -42 -1c-39 0 -75 0 -115 5zM585 606l5 -42c11 0 45 1 60 2l161 -5c1 0 3 1 5 1h5c35 0 61 0 61 43c0 27 -8 53 -15 79v-3l-8 30c-3 9 -6 18 -6 25l-28 126
c-4 16 -7 31 -10 49l-15 78c-4 6 -5 14 -7 21v-3l-18 80c-5 20 -19 37 -37 45c-36 -13 -58 -98 -72 -160l-9 -49c-4 -9 -5 -13 -6 -18l-6 -23c-16 -78 -34 -153 -51 -224c0 -10 -5 -19 -5 -29v1c-2 -7 -4 -14 -4 -24zM-50 65l3 -6l-1 -3c0 -1 -5 -3 -9 -3h11v2
c3 0 5 -17 5 -16c0 -4 -1 -6 -4 -7l-11 -27c-5 5 -8 15 -8 25c0 8 2 16 5 23h2h-2c2 4 5 8 9 12zM1150 43l1 -10l-10 26zM1754 1033c0 0 -5 1 -7 4c2 1 3 1 4 1c2 0 3 -1 3 -5zM1850 570h6c-4 -1 -4 -2 -4 -3v-2l-2 5s-1 0 -1 1zM407 1404l-7 -3z" />
    <glyph glyph-name="ccedilla" unicode="&#xe7;" horiz-adv-x="1520" 
d="M764 1240c62 0 128 -5 184 -22l20 -6c-1 0 -1 0 -1 1h2l15 -4c169 -42 350 -135 436 -294l2 -7c36 -73 55 -139 67 -226l-23 8h-626l-5 37c-7 51 -17 116 -54 153l-8 5c-4 1 -8 3 -12 7c-108 -8 -92 -249 -102 -278c0 -26 5 -107 5 -105l10 -10h-11
c3 -41 23 -155 88 -155c68 0 86 122 86 175c77 4 157 4 232 4h38c25 0 61 -1 96 -1h96c59 0 131 -1 193 -1c-20 -206 -122 -365 -303 -454c-21 -7 -40 -16 -55 -23l-38 -18c-86 -33 -200 -61 -291 -61c-7 0 -14 0 -19 4c-28 0 -45 -5 -80 -5s-99 9 -120 14
c-33 0 -65 8 -95 17l-13 4c-129 30 -260 93 -340 187l-18 21c-64 83 -99 201 -113 301l-3 21c-2 16 -4 34 -4 48c1 188 83 431 282 537l135 72c120 44 303 54 347 54zM729 -2l138 -2c7 -1 11 -5 11 -11c0 -22 -24 -41 -59 -106c165 0 252 -76 252 -181
c0 -153 -154 -233 -322 -233c-112 0 -288 25 -288 66c0 15 14 45 29 71l13 29c1 4 4 9 5 13v-1c4 12 9 21 18 26c22 -8 38 -16 60 -23h-1c38 -14 76 -24 115 -24c13 0 110 0 110 63c0 43 -60 44 -78 44c-5 -2 -17 -5 -32 -8l-22 -7c-13 0 -23 8 -36 17l1 -1l-22 14h1
c-21 12 -44 29 -44 59l106 190c2 2 10 5 15 6h5c2 0 5 -1 8 -1h17zM678 -286v-20l-5 -1l-2 19z" />
    <glyph glyph-name="egrave" unicode="&#xe8;" horiz-adv-x="1475" 
d="M1426 645c0 -10 0 -41 1 -65h-824v-33c5 -19 6 -38 6 -56c0 -106 17 -128 43 -176v1l11 -21c16 -17 31 -24 52 -30c77 16 93 98 105 159l2 10c36 10 68 10 102 10c42 0 86 -3 128 -3h369c-8 -81 -31 -154 -72 -224h1c-111 -175 -411 -250 -571 -250c-6 0 -12 1 -16 2h-23
c-3 0 -6 -1 -9 -1h-9c-5 0 -8 0 -20 2c-8 -5 -18 -6 -24 -6c-13 0 -33 7 -53 7h1c-6 2 -14 3 -35 3c-5 -2 -10 -3 -15 -3c-39 0 -82 14 -126 27v-1l-26 8l2 -1c-19 7 -21 7 -24 8c-199 58 -354 215 -394 412c-6 44 -19 78 -19 107c0 6 1 14 2 19c-2 9 -2 18 -2 26s0 17 1 26
v15c0 287 187 501 465 584h-1l24 7c23 4 57 11 76 19l-1 -1l14 4c37 6 79 9 112 9c22 0 44 -2 67 -4l42 -4c59 -6 87 -6 152 -23v1l21 -9c123 -38 241 -100 327 -198v1c26 -31 106 -148 106 -186l8 -27l5 -29c11 -39 19 -78 19 -116zM852 712l21 13c-15 86 -40 233 -135 233
c-79 0 -123 -144 -134 -250c32 2 87 4 118 4h130zM717 1430l-6 -2c-2 -1 -2 -2 -3 -2c-14 15 -23 28 -36 44v-1l-31 38c-39 47 -74 92 -141 160c-56 56 -114 117 -114 139c0 3 3 8 9 13c148 -13 290 -18 440 -18h30c2 0 3 1 6 1c28 -21 142 -224 182 -284l9 -11
c0 -1 2 -4 3 -5c13 -20 31 -49 31 -58c0 -12 -29 -14 -61 -14h-318z" />
    <glyph glyph-name="eacute" unicode="&#xe9;" horiz-adv-x="1475" 
d="M1426 645c0 -10 0 -41 1 -65h-824v-33c5 -19 6 -38 6 -56c0 -106 17 -128 43 -176v1l11 -21c16 -17 31 -24 52 -30c77 16 93 98 105 159l2 10c36 10 68 10 102 10c42 0 86 -3 128 -3h369c-8 -81 -31 -154 -72 -224h1c-111 -175 -411 -250 -571 -250c-6 0 -12 1 -16 2h-23
c-3 0 -6 -1 -9 -1h-9c-5 0 -8 0 -20 2c-8 -5 -18 -6 -24 -6c-13 0 -33 7 -53 7h1c-6 2 -14 3 -35 3c-5 -2 -10 -3 -15 -3c-39 0 -82 14 -126 27v-1l-26 8l2 -1c-19 7 -21 7 -24 8c-199 58 -354 215 -394 412c-6 44 -19 78 -19 107c0 6 1 14 2 19c-2 9 -2 18 -2 26s0 17 1 26
v15c0 287 187 501 465 584h-1l24 7c23 4 57 11 76 19l-1 -1l14 4c37 6 79 9 112 9c22 0 44 -2 67 -4l42 -4c59 -6 87 -6 152 -23v1l21 -9c123 -38 241 -100 327 -198v1c26 -31 106 -148 106 -186l8 -27l5 -29c11 -39 19 -78 19 -116zM852 712l21 13c-15 86 -40 233 -135 233
c-79 0 -123 -144 -134 -250c32 2 87 4 118 4h130zM612 1794h70c122 0 277 -9 418 -10v-3l-270 -304c-54 -62 -89 -63 -172 -64l-183 -3c-6 0 -11 -1 -16 -1h-49l-15 29l168 286c19 28 32 51 49 70z" />
    <glyph glyph-name="ecircumflex" unicode="&#xea;" horiz-adv-x="1475" 
d="M1426 645c0 -10 0 -41 1 -65h-824v-33c5 -19 6 -38 6 -56c0 -106 17 -128 43 -176v1l11 -21c16 -17 31 -24 52 -30c77 16 93 98 105 159l2 10c36 10 68 10 102 10c42 0 86 -3 128 -3h369c-8 -81 -31 -154 -72 -224h1c-111 -175 -411 -250 -571 -250c-6 0 -12 1 -16 2h-23
c-3 0 -6 -1 -9 -1h-9c-5 0 -8 0 -20 2c-8 -5 -18 -6 -24 -6c-13 0 -33 7 -53 7h1c-6 2 -14 3 -35 3c-5 -2 -10 -3 -15 -3c-39 0 -82 14 -126 27v-1l-26 8l2 -1c-19 7 -21 7 -24 8c-199 58 -354 215 -394 412c-6 44 -19 78 -19 107c0 6 1 14 2 19c-2 9 -2 18 -2 26s0 17 1 26
v15c0 287 187 501 465 584h-1l24 7c23 4 57 11 76 19l-1 -1l14 4c37 6 79 9 112 9c22 0 44 -2 67 -4l42 -4c59 -6 87 -6 152 -23v1l21 -9c123 -38 241 -100 327 -198v1c26 -31 106 -148 106 -186l8 -27l5 -29c11 -39 19 -78 19 -116zM852 712l21 13c-15 86 -40 233 -135 233
c-79 0 -123 -144 -134 -250c32 2 87 4 118 4h130zM637 1410h-267h-11c-16 0 -32 -3 -49 -3c-27 0 -57 3 -57 12c0 1 0 2 1 6l11 17c53 77 110 157 170 236l22 35c34 55 46 57 341 62l177 3c20 -8 54 -61 83 -103v1l62 -92c15 -23 32 -45 47 -65l20 -28c21 -30 48 -61 48 -76
c0 -6 -8 -10 -27 -10c-4 0 -7 1 -11 1h-62c-105 0 -196 -7 -295 -7c-33 17 -46 50 -64 86l-30 60c-41 -37 -83 -135 -109 -135z" />
    <glyph glyph-name="edieresis" unicode="&#xeb;" horiz-adv-x="1475" 
d="M1426 645c0 -10 0 -41 1 -65h-824v-33c5 -19 6 -38 6 -56c0 -106 17 -128 43 -176v1l11 -21c16 -17 31 -24 52 -30c77 16 93 98 105 159l2 10c36 10 68 10 102 10c42 0 86 -3 128 -3h369c-8 -81 -31 -154 -72 -224h1c-111 -175 -411 -250 -571 -250c-6 0 -12 1 -16 2h-23
c-3 0 -6 -1 -9 -1h-9c-5 0 -8 0 -20 2c-8 -5 -18 -6 -24 -6c-13 0 -33 7 -53 7h1c-6 2 -14 3 -35 3c-5 -2 -10 -3 -15 -3c-39 0 -82 14 -126 27v-1l-26 8l2 -1c-19 7 -21 7 -24 8c-199 58 -354 215 -394 412c-6 44 -19 78 -19 107c0 6 1 14 2 19c-2 9 -2 18 -2 26s0 17 1 26
v15c0 287 187 501 465 584h-1l24 7c23 4 57 11 76 19l-1 -1l14 4c37 6 79 9 112 9c22 0 44 -2 67 -4l42 -4c59 -6 87 -6 152 -23v1l21 -9c123 -38 241 -100 327 -198v1c26 -31 106 -148 106 -186l8 -27l5 -29c11 -39 19 -78 19 -116zM852 712l21 13c-15 86 -40 233 -135 233
c-79 0 -123 -144 -134 -250c32 2 87 4 118 4h130zM1205 1805v4c4 -115 6 -231 7 -346c-1 -2 -3 -8 -3 -10l-7 1c-113 -11 -216 -5 -333 -14l-26 29c0 68 6 325 24 344c37 -2 67 -3 104 -3c59 0 106 3 170 3c31 0 62 -2 64 -8zM843 1468l1 -3l-3 7c0 -1 1 -2 2 -3v-1z
M1208 1452l14 -1c0 -12 -7 -17 -14 -17c-3 0 -7 1 -10 4zM640 1612c0 -46 0 -109 1 -156c-8 -9 -43 -11 -81 -11c-7 0 -13 1 -21 1h-51c-60 0 -138 -7 -187 -7c-9 12 -15 23 -24 35c0 104 3 317 22 339c108 -2 223 0 335 -4h-2c6 -2 7 -11 7 -25c0 -4 -1 -8 -1 -11v-32
c0 -34 2 -76 2 -98v-31z" />
    <glyph glyph-name="igrave" unicode="&#xec;" horiz-adv-x="669" 
d="M587 -25h-294c-13 -2 -27 -5 -39 -6c-57 0 -116 1 -172 2l-19 16v13c0 6 -1 13 -1 21v45c0 114 1 219 4 327l3 214c0 128 8 276 8 411v28l130 1c6 0 12 -1 19 -1h68c9 0 17 1 25 1l265 -4c1 0 3 1 5 1c1 0 2 -1 2 -5l1 -63c0 -13 -2 -25 -1 -38v-9v-67
c0 -95 2 -189 10 -270l4 -42c5 -55 7 -108 8 -175v-27c0 -2 -1 -3 -1 -4v-31c0 -3 1 -6 1 -9l1 -150c0 -79 -12 -179 -27 -179zM314 1430l-6 -2c-2 -1 -2 -2 -3 -2c-14 15 -23 28 -36 44v-1l-31 38c-39 47 -74 92 -141 160c-56 56 -114 117 -114 139c0 3 3 8 9 13
c148 -13 290 -18 440 -18h30c2 0 3 1 6 1c28 -21 142 -224 182 -284l9 -11c0 -1 2 -4 3 -5c13 -20 31 -49 31 -58c0 -12 -29 -14 -61 -14h-318z" />
    <glyph glyph-name="iacute" unicode="&#xed;" horiz-adv-x="669" 
d="M587 -25h-294c-13 -2 -27 -5 -39 -6c-57 0 -116 1 -172 2l-19 16v13c0 6 -1 13 -1 21v45c0 114 1 219 4 327l3 214c0 128 8 276 8 411v28l130 1c6 0 12 -1 19 -1h68c9 0 17 1 25 1l265 -4c1 0 3 1 5 1c1 0 2 -1 2 -5l1 -63c0 -13 -2 -25 -1 -38v-9v-67
c0 -95 2 -189 10 -270l4 -42c5 -55 7 -108 8 -175v-27c0 -2 -1 -3 -1 -4v-31c0 -3 1 -6 1 -9l1 -150c0 -79 -12 -179 -27 -179zM209 1794h70c122 0 277 -9 418 -10v-3l-270 -304c-54 -62 -89 -63 -172 -64l-183 -3c-6 0 -11 -1 -16 -1h-49l-15 29l168 286c19 28 32 51 49 70
z" />
    <glyph glyph-name="icircumflex" unicode="&#xee;" horiz-adv-x="669" 
d="M587 -25h-294c-13 -2 -27 -5 -39 -6c-57 0 -116 1 -172 2l-19 16v13c0 6 -1 13 -1 21v45c0 114 1 219 4 327l3 214c0 128 8 276 8 411v28l130 1c6 0 12 -1 19 -1h68c9 0 17 1 25 1l265 -4c1 0 3 1 5 1c1 0 2 -1 2 -5l1 -63c0 -13 -2 -25 -1 -38v-9v-67
c0 -95 2 -189 10 -270l4 -42c5 -55 7 -108 8 -175v-27c0 -2 -1 -3 -1 -4v-31c0 -3 1 -6 1 -9l1 -150c0 -79 -12 -179 -27 -179zM235 1410h-267h-11c-16 0 -32 -3 -49 -3c-27 0 -57 3 -57 12c0 1 0 2 1 6l11 17c53 77 110 157 170 236l22 35c34 55 46 57 341 62l177 3
c20 -8 54 -61 83 -103v1l62 -92c15 -23 32 -45 47 -65l20 -28c21 -30 48 -61 48 -76c0 -6 -8 -10 -27 -10c-4 0 -7 1 -11 1h-62c-105 0 -196 -7 -295 -7c-33 17 -46 50 -64 86l-30 60c-41 -37 -83 -135 -109 -135z" />
    <glyph glyph-name="idieresis" unicode="&#xef;" horiz-adv-x="669" 
d="M587 -25h-294c-13 -2 -27 -5 -39 -6c-57 0 -116 1 -172 2l-19 16v13c0 6 -1 13 -1 21v45c0 114 1 219 4 327l3 214c0 128 8 276 8 411v28l130 1c6 0 12 -1 19 -1h68c9 0 17 1 25 1l265 -4c1 0 3 1 5 1c1 0 2 -1 2 -5l1 -63c0 -13 -2 -25 -1 -38v-9v-67
c0 -95 2 -189 10 -270l4 -42c5 -55 7 -108 8 -175v-27c0 -2 -1 -3 -1 -4v-31c0 -3 1 -6 1 -9l1 -150c0 -79 -12 -179 -27 -179zM802 1805v4c4 -115 6 -231 7 -346c-1 -2 -3 -8 -3 -10l-7 1c-113 -11 -216 -5 -333 -14l-26 29c0 68 6 325 24 344c37 -2 67 -3 104 -3
c59 0 106 3 170 3c31 0 62 -2 64 -8zM440 1468l1 -3l-3 7c0 -1 1 -2 2 -3v-1zM805 1452l14 -1c0 -12 -7 -17 -14 -17c-3 0 -7 1 -10 4zM237 1612c0 -46 0 -109 1 -156c-8 -9 -43 -11 -81 -11c-7 0 -13 1 -21 1h-51c-60 0 -138 -7 -187 -7c-9 12 -15 23 -24 35
c0 104 3 317 22 339c108 -2 223 0 335 -4h-2c6 -2 7 -11 7 -25c0 -4 -1 -8 -1 -11v-32c0 -34 2 -76 2 -98v-31z" />
    <glyph glyph-name="eth" unicode="&#xf0;" horiz-adv-x="1453" 
d="M799 46l-44 -2c-12 -1 -33 -2 -44 -2c-36 0 -69 0 -106 3h-111c-8 0 -15 1 -24 1c-106 0 -259 -6 -349 -6c-15 29 -16 46 -16 66v137c2 83 2 164 2 250v66c0 24 1 60 1 84c-31 -1 -77 -1 -110 -1c-10 4 -16 9 -24 15c0 5 1 7 1 13v16c0 29 2 57 2 84v11c0 13 -2 28 -2 41
c0 22 2 47 15 47h119c-3 24 -3 36 -3 47l-3 49v163c-4 66 -8 140 -8 203v46l-5 4c1 2 5 3 10 3h11c14 0 24 1 36 4h-1c109 12 204 14 312 14h134c221 0 539 -16 678 -203c43 -53 159 -203 159 -471c0 -473 -344 -671 -624 -685zM626 328h36c251 0 251 273 256 403v81
c-3 17 -4 32 -5 49c-13 239 -157 269 -270 269h-27l-11 -37v2l-14 -23c0 -12 0 -29 1 -37v-11c0 -4 1 -8 1 -12v-60c0 -17 -2 -27 -2 -51v-31h49c6 0 12 -1 18 -1h56c11 0 13 -57 13 -103c0 -10 -1 -19 -1 -29v-53c0 -13 -2 -28 -12 -28c-33 0 -86 0 -119 -1v-55
c0 -4 1 -9 1 -15v-43c0 -10 -1 -19 -1 -27v-22c0 -78 4 -150 31 -165z" />
    <glyph glyph-name="ntilde" unicode="&#xf1;" horiz-adv-x="1460" 
d="M1396 190c0 -64 1 -128 1 -191h-585l-2 500c0 22 4 61 4 102c0 64 -9 153 -81 153c-76 0 -87 -88 -87 -145c0 -11 0 -32 1 -44v-15c0 -5 1 -11 1 -17v-533c-104 0 -195 -1 -298 -1h-299c0 205 -1 398 -1 600v598l266 -1c91 0 176 1 268 1c13 -50 22 -75 43 -156l19 -75
c32 80 38 98 49 112l16 20c67 94 184 142 302 142c220 0 386 -203 386 -416c0 -7 -1 -14 -3 -19v-615zM913 1751l23 19l253 -7c5 -2 10 -11 13 -15c-16 -251 -128 -344 -284 -344c-43 0 -92 9 -142 21l-31 9h1l-28 9c-48 15 -105 33 -140 34c-36 0 -39 -27 -44 -49
c0 -12 -197 -12 -232 -12h-27c-3 3 -6 10 -6 18c0 235 111 341 296 341c56 0 125 -20 186 -37v1c31 -11 61 -19 87 -26l30 -6c1 0 4 0 14 -10l25 28c2 7 5 18 6 26zM874 1745l9 10l7 -17z" />
    <glyph glyph-name="ograve" unicode="&#xf2;" horiz-adv-x="1569" 
d="M1511 593v-8c-2 -100 -28 -210 -76 -297h1c-142 -218 -418 -324 -660 -324c-218 0 -363 46 -513 148l-9 6c-196 130 -232 335 -232 515c0 5 1 11 3 15v16c-3 4 -3 6 -3 8l1 7c1 1 0 2 1 4h-1c5 46 23 179 74 230c0 10 8 16 14 25v-1c3 3 6 11 9 15l6 9
c68 88 166 168 270 207l35 13c37 18 118 39 185 48l32 3c21 2 47 1 59 6l43 -1c3 1 6 1 9 1c1 0 2 0 7 -1l-1 1c4 -2 11 -3 18 -3c4 4 8 4 14 4c136 0 260 -25 369 -89l20 -9c188 -90 327 -254 327 -536l-1 -5c-2 -3 -1 -5 -1 -7zM891 599c-2 123 -28 298 -107 298
c-99 0 -112 -235 -112 -316c0 -77 24 -283 108 -283c99 0 111 192 111 301zM764 1430l-6 -2c-2 -1 -2 -2 -3 -2c-14 15 -23 28 -36 44v-1l-31 38c-39 47 -74 92 -141 160c-56 56 -114 117 -114 139c0 3 3 8 9 13c148 -13 290 -18 440 -18h30c2 0 3 1 6 1
c28 -21 142 -224 182 -284l9 -11c0 -1 2 -4 3 -5c13 -20 31 -49 31 -58c0 -12 -29 -14 -61 -14h-318z" />
    <glyph glyph-name="oacute" unicode="&#xf3;" horiz-adv-x="1569" 
d="M1511 593v-8c-2 -100 -28 -210 -76 -297h1c-142 -218 -418 -324 -660 -324c-218 0 -363 46 -513 148l-9 6c-196 130 -232 335 -232 515c0 5 1 11 3 15v16c-3 4 -3 6 -3 8l1 7c1 1 0 2 1 4h-1c5 46 23 179 74 230c0 10 8 16 14 25v-1c3 3 6 11 9 15l6 9
c68 88 166 168 270 207l35 13c37 18 118 39 185 48l32 3c21 2 47 1 59 6l43 -1c3 1 6 1 9 1c1 0 2 0 7 -1l-1 1c4 -2 11 -3 18 -3c4 4 8 4 14 4c136 0 260 -25 369 -89l20 -9c188 -90 327 -254 327 -536l-1 -5c-2 -3 -1 -5 -1 -7zM891 599c-2 123 -28 298 -107 298
c-99 0 -112 -235 -112 -316c0 -77 24 -283 108 -283c99 0 111 192 111 301zM659 1794h70c122 0 277 -9 418 -10v-3l-270 -304c-54 -62 -89 -63 -172 -64l-183 -3c-6 0 -11 -1 -16 -1h-49l-15 29l168 286c19 28 32 51 49 70z" />
    <glyph glyph-name="ocircumflex" unicode="&#xf4;" horiz-adv-x="1569" 
d="M1511 593v-8c-2 -100 -28 -210 -76 -297h1c-142 -218 -418 -324 -660 -324c-218 0 -363 46 -513 148l-9 6c-196 130 -232 335 -232 515c0 5 1 11 3 15v16c-3 4 -3 6 -3 8l1 7c1 1 0 2 1 4h-1c5 46 23 179 74 230c0 10 8 16 14 25v-1c3 3 6 11 9 15l6 9
c68 88 166 168 270 207l35 13c37 18 118 39 185 48l32 3c21 2 47 1 59 6l43 -1c3 1 6 1 9 1c1 0 2 0 7 -1l-1 1c4 -2 11 -3 18 -3c4 4 8 4 14 4c136 0 260 -25 369 -89l20 -9c188 -90 327 -254 327 -536l-1 -5c-2 -3 -1 -5 -1 -7zM891 599c-2 123 -28 298 -107 298
c-99 0 -112 -235 -112 -316c0 -77 24 -283 108 -283c99 0 111 192 111 301zM684 1410h-267h-11c-16 0 -32 -3 -49 -3c-27 0 -57 3 -57 12c0 1 0 2 1 6l11 17c53 77 110 157 170 236l22 35c34 55 46 57 341 62l177 3c20 -8 54 -61 83 -103v1l62 -92c15 -23 32 -45 47 -65
l20 -28c21 -30 48 -61 48 -76c0 -6 -8 -10 -27 -10c-4 0 -7 1 -11 1h-62c-105 0 -196 -7 -295 -7c-33 17 -46 50 -64 86l-30 60c-41 -37 -83 -135 -109 -135z" />
    <glyph glyph-name="otilde" unicode="&#xf5;" horiz-adv-x="1569" 
d="M1511 593v-8c-2 -100 -28 -210 -76 -297h1c-142 -218 -418 -324 -660 -324c-218 0 -363 46 -513 148l-9 6c-196 130 -232 335 -232 515c0 5 1 11 3 15v16c-3 4 -3 6 -3 8l1 7c1 1 0 2 1 4h-1c5 46 23 179 74 230c0 10 8 16 14 25v-1c3 3 6 11 9 15l6 9
c68 88 166 168 270 207l35 13c37 18 118 39 185 48l32 3c21 2 47 1 59 6l43 -1c3 1 6 1 9 1c1 0 2 0 7 -1l-1 1c4 -2 11 -3 18 -3c4 4 8 4 14 4c136 0 260 -25 369 -89l20 -9c188 -90 327 -254 327 -536l-1 -5c-2 -3 -1 -5 -1 -7zM891 599c-2 123 -28 298 -107 298
c-99 0 -112 -235 -112 -316c0 -77 24 -283 108 -283c99 0 111 192 111 301zM968 1751l23 19l253 -7c5 -2 10 -11 13 -15c-16 -251 -128 -344 -284 -344c-43 0 -92 9 -142 21l-31 9h1l-28 9c-48 15 -105 33 -140 34c-36 0 -39 -27 -44 -49c0 -12 -197 -12 -232 -12h-27
c-3 3 -6 10 -6 18c0 235 111 341 296 341c56 0 125 -20 186 -37v1c31 -11 61 -19 87 -26l30 -6c1 0 4 0 14 -10l25 28c2 7 5 18 6 26zM929 1745l9 10l7 -17z" />
    <glyph glyph-name="odieresis" unicode="&#xf6;" horiz-adv-x="1569" 
d="M1511 593v-8c-2 -100 -28 -210 -76 -297h1c-142 -218 -418 -324 -660 -324c-218 0 -363 46 -513 148l-9 6c-196 130 -232 335 -232 515c0 5 1 11 3 15v16c-3 4 -3 6 -3 8l1 7c1 1 0 2 1 4h-1c5 46 23 179 74 230c0 10 8 16 14 25v-1c3 3 6 11 9 15l6 9
c68 88 166 168 270 207l35 13c37 18 118 39 185 48l32 3c21 2 47 1 59 6l43 -1c3 1 6 1 9 1c1 0 2 0 7 -1l-1 1c4 -2 11 -3 18 -3c4 4 8 4 14 4c136 0 260 -25 369 -89l20 -9c188 -90 327 -254 327 -536l-1 -5c-2 -3 -1 -5 -1 -7zM891 599c-2 123 -28 298 -107 298
c-99 0 -112 -235 -112 -316c0 -77 24 -283 108 -283c99 0 111 192 111 301zM1252 1805v4c4 -115 6 -231 7 -346c-1 -2 -3 -8 -3 -10l-7 1c-113 -11 -216 -5 -333 -14l-26 29c0 68 6 325 24 344c37 -2 67 -3 104 -3c59 0 106 3 170 3c31 0 62 -2 64 -8zM890 1468l1 -3l-3 7
c0 -1 1 -2 2 -3v-1zM1255 1452l14 -1c0 -12 -7 -17 -14 -17c-3 0 -7 1 -10 4zM687 1612c0 -46 0 -109 1 -156c-8 -9 -43 -11 -81 -11c-7 0 -13 1 -21 1h-51c-60 0 -138 -7 -187 -7c-9 12 -15 23 -24 35c0 104 3 317 22 339c108 -2 223 0 335 -4h-2c6 -2 7 -11 7 -25
c0 -4 -1 -8 -1 -11v-32c0 -34 2 -76 2 -98v-31z" />
    <glyph glyph-name="divide" unicode="&#xf7;" horiz-adv-x="1282" 
d="M469 672c143 -4 280 -8 423 -8c97 0 207 1 304 3c2 0 3 -1 3 -2c0 -83 -9 -141 -9 -203v-46c0 -5 1 -7 1 -11c-4 -6 -13 -7 -32 -7c2 0 2 1 2 1c-104 -3 -218 -6 -322 -6h-25c-57 0 -114 -4 -165 -8l-254 -9c-91 -3 -180 -8 -275 -9c-13 18 -16 36 -16 56
c0 85 7 226 36 252h59c90 0 178 0 270 -3zM796 64v1c-22 -55 -78 -89 -136 -89c-65 0 -149 43 -149 137c0 91 65 156 143 156c76 0 153 -54 153 -145c0 -24 -5 -42 -11 -60zM779 852c-27 -36 -79 -57 -123 -57c-74 0 -139 55 -139 143c0 90 71 144 146 144
c73 0 150 -51 150 -139c0 -37 -13 -62 -34 -91z" />
    <glyph glyph-name="oslash" unicode="&#xf8;" horiz-adv-x="1455" 
d="M248 -60c5 12 16 29 25 48l61 116l-28 19c-62 42 -117 96 -167 165v-1c-72 114 -100 250 -112 384l-3 61c0 5 4 15 4 22c15 153 53 343 174 484l24 26c40 43 88 71 146 96l40 17c56 24 132 40 201 52h-1c23 3 47 4 69 5h4c19 0 41 1 55 3c74 -2 175 -11 284 -48l139 257
c0 1 26 -9 35 -13l32 -15c0 -1 7 -3 11 -3c3 -2 6 -3 6 -3c0 -41 -89 -177 -127 -263c45 -32 105 -70 137 -113l21 -29c97 -122 146 -268 146 -466c0 -170 -33 -346 -134 -474l-42 -53c-127 -150 -385 -200 -552 -200c-82 0 -172 18 -255 43c-51 -97 -100 -217 -140 -217
l-28 7h-13c-10 3 -17 5 -23 8l-9 3l19 80c0 1 1 2 1 2zM727 1098c-128 0 -170 -76 -197 -173h1c-17 -48 -19 -106 -19 -151v-50c0 -60 5 -136 23 -244l308 574c-35 29 -74 44 -116 44zM914 963l-309 -596c33 -15 73 -28 105 -28c218 0 227 214 227 384v38
c0 43 -4 103 -23 202zM1239 1616l3 -1h-1c-1 0 -2 1 -2 1z" />
    <glyph glyph-name="ugrave" unicode="&#xf9;" horiz-adv-x="1538" 
d="M762 363c62 0 61 78 61 108v724c112 0 221 1 329 1h326c0 -397 1 -798 1 -1195h-560l-47 162c-95 -146 -226 -199 -351 -199c-129 0 -230 32 -323 110l1 7c-25 7 -68 69 -80 91c-56 102 -65 229 -65 347c0 11 1 22 1 32v644h318c106 0 208 1 318 1v-96
c0 -205 -2 -426 -2 -635c0 -52 15 -102 73 -102zM749 1430l-6 -2c-2 -1 -2 -2 -3 -2c-14 15 -23 28 -36 44v-1l-31 38c-39 47 -74 92 -141 160c-56 56 -114 117 -114 139c0 3 3 8 9 13c148 -13 290 -18 440 -18h30c2 0 3 1 6 1c28 -21 142 -224 182 -284l9 -11
c0 -1 2 -4 3 -5c13 -20 31 -49 31 -58c0 -12 -29 -14 -61 -14h-318z" />
    <glyph glyph-name="uacute" unicode="&#xfa;" horiz-adv-x="1538" 
d="M762 363c62 0 61 78 61 108v724c112 0 221 1 329 1h326c0 -397 1 -798 1 -1195h-560l-47 162c-95 -146 -226 -199 -351 -199c-129 0 -230 32 -323 110l1 7c-25 7 -68 69 -80 91c-56 102 -65 229 -65 347c0 11 1 22 1 32v644h318c106 0 208 1 318 1v-96
c0 -205 -2 -426 -2 -635c0 -52 15 -102 73 -102zM643 1794h70c122 0 277 -9 418 -10v-3l-270 -304c-54 -62 -89 -63 -172 -64l-183 -3c-6 0 -11 -1 -16 -1h-49l-15 29l168 286c19 28 32 51 49 70z" />
    <glyph glyph-name="ucircumflex" unicode="&#xfb;" horiz-adv-x="1538" 
d="M762 363c62 0 61 78 61 108v724c112 0 221 1 329 1h326c0 -397 1 -798 1 -1195h-560l-47 162c-95 -146 -226 -199 -351 -199c-129 0 -230 32 -323 110l1 7c-25 7 -68 69 -80 91c-56 102 -65 229 -65 347c0 11 1 22 1 32v644h318c106 0 208 1 318 1v-96
c0 -205 -2 -426 -2 -635c0 -52 15 -102 73 -102zM669 1410h-267h-11c-16 0 -32 -3 -49 -3c-27 0 -57 3 -57 12c0 1 0 2 1 6l11 17c53 77 110 157 170 236l22 35c34 55 46 57 341 62l177 3c20 -8 54 -61 83 -103v1l62 -92c15 -23 32 -45 47 -65l20 -28c21 -30 48 -61 48 -76
c0 -6 -8 -10 -27 -10c-4 0 -7 1 -11 1h-62c-105 0 -196 -7 -295 -7c-33 17 -46 50 -64 86l-30 60c-41 -37 -83 -135 -109 -135z" />
    <glyph glyph-name="udieresis" unicode="&#xfc;" horiz-adv-x="1538" 
d="M762 363c62 0 61 78 61 108v724c112 0 221 1 329 1h326c0 -397 1 -798 1 -1195h-560l-47 162c-95 -146 -226 -199 -351 -199c-129 0 -230 32 -323 110l1 7c-25 7 -68 69 -80 91c-56 102 -65 229 -65 347c0 11 1 22 1 32v644h318c106 0 208 1 318 1v-96
c0 -205 -2 -426 -2 -635c0 -52 15 -102 73 -102zM1236 1805v4c4 -115 6 -231 7 -346c-1 -2 -3 -8 -3 -10l-7 1c-113 -11 -216 -5 -333 -14l-26 29c0 68 6 325 24 344c37 -2 67 -3 104 -3c59 0 106 3 170 3c31 0 62 -2 64 -8zM874 1468l1 -3l-3 7c0 -1 1 -2 2 -3v-1z
M1239 1452l14 -1c0 -12 -7 -17 -14 -17c-3 0 -7 1 -10 4zM671 1612c0 -46 0 -109 1 -156c-8 -9 -43 -11 -81 -11c-7 0 -13 1 -21 1h-51c-60 0 -138 -7 -187 -7c-9 12 -15 23 -24 35c0 104 3 317 22 339c108 -2 223 0 335 -4h-2c6 -2 7 -11 7 -25c0 -4 -1 -8 -1 -11v-32
c0 -34 2 -76 2 -98v-31z" />
    <glyph glyph-name="yacute" unicode="&#xfd;" horiz-adv-x="1403" 
d="M504 -545l-94 -1c-22 0 -56 -4 -81 -4c-13 0 -28 1 -39 3c-7 -2 -13 -2 -21 -2c-22 0 -40 3 -61 3c-15 0 -25 -3 -39 -3c-6 0 -15 1 -25 2h-7c-15 1 -32 2 -41 2c-4 -1 -10 -2 -15 -2h-21l-19 51c-2 6 -2 9 -2 14c0 4 0 11 1 15v7c0 4 1 7 1 10v114c0 57 0 118 -1 175
c14 2 23 2 32 2c8 0 15 0 25 -3c14 3 27 3 37 3h8c8 5 26 8 41 10l14 2c15 2 31 7 41 9v-1c80 29 90 105 95 181c0 58 -21 117 -40 177l-16 50l-293 926h305c96 0 201 1 301 1l45 -259c11 -87 22 -161 32 -241l97 500h591v2l20 -2l-5 -20h-2l-264 -732
c-29 -73 -53 -145 -74 -218c-15 -49 -48 -118 -61 -163l-4 -11c-53 -137 -98 -295 -174 -431c-70 -119 -181 -159 -287 -166zM576 1794h70c122 0 277 -9 418 -10v-3l-270 -304c-54 -62 -89 -63 -172 -64l-183 -3c-6 0 -11 -1 -16 -1h-49l-15 29l168 286c19 28 32 51 49 70z
" />
    <glyph glyph-name="thorn" unicode="&#xfe;" horiz-adv-x="1366" 
d="M108 1375v265l-7 105c5 11 20 14 61 14h465c5 -8 3 -25 3 -34v-325c87 0 167 -10 254 -10h16c3 0 5 1 7 1h22c96 0 188 -27 269 -80h-1c102 -71 174 -224 174 -359c0 -162 -70 -277 -198 -380l1 1c-91 -47 -199 -68 -300 -74l-35 -2c-35 -6 -94 -7 -143 -7h-14
c-6 0 -15 0 -37 -3v-108c0 -107 2 -214 9 -322c-6 -12 -23 -15 -63 -15h-475c-4 11 -10 30 -13 45v313c0 16 0 33 2 51v263c0 215 3 430 3 661zM606 1083v-71l-4 -37c-4 -37 -9 -83 -9 -126c0 -44 4 -40 21 -75h-1c0 -8 7 -15 7 -18l10 10c6 -3 10 -3 15 -3
c124 0 247 43 247 191c0 156 -123 165 -248 165h-16c-8 -8 -13 -15 -16 -24z" />
    <glyph glyph-name="ydieresis" unicode="&#xff;" horiz-adv-x="1403" 
d="M504 -545l-94 -1c-22 0 -56 -4 -81 -4c-13 0 -28 1 -39 3c-7 -2 -13 -2 -21 -2c-22 0 -40 3 -61 3c-15 0 -25 -3 -39 -3c-6 0 -15 1 -25 2h-7c-15 1 -32 2 -41 2c-4 -1 -10 -2 -15 -2h-21l-19 51c-2 6 -2 9 -2 14c0 4 0 11 1 15v7c0 4 1 7 1 10v114c0 57 0 118 -1 175
c14 2 23 2 32 2c8 0 15 0 25 -3c14 3 27 3 37 3h8c8 5 26 8 41 10l14 2c15 2 31 7 41 9v-1c80 29 90 105 95 181c0 58 -21 117 -40 177l-16 50l-293 926h305c96 0 201 1 301 1l45 -259c11 -87 22 -161 32 -241l97 500h591v2l20 -2l-5 -20h-2l-264 -732
c-29 -73 -53 -145 -74 -218c-15 -49 -48 -118 -61 -163l-4 -11c-53 -137 -98 -295 -174 -431c-70 -119 -181 -159 -287 -166zM1169 1805v4c4 -115 6 -231 7 -346c-1 -2 -3 -8 -3 -10l-7 1c-113 -11 -216 -5 -333 -14l-26 29c0 68 6 325 24 344c37 -2 67 -3 104 -3
c59 0 106 3 170 3c31 0 62 -2 64 -8zM807 1468l1 -3l-3 7c0 -1 1 -2 2 -3v-1zM1172 1452l14 -1c0 -12 -7 -17 -14 -17c-3 0 -7 1 -10 4zM604 1612c0 -46 0 -109 1 -156c-8 -9 -43 -11 -81 -11c-7 0 -13 1 -21 1h-51c-60 0 -138 -7 -187 -7c-9 12 -15 23 -24 35
c0 104 3 317 22 339c108 -2 223 0 335 -4h-2c6 -2 7 -11 7 -25c0 -4 -1 -8 -1 -11v-32c0 -34 2 -76 2 -98v-31z" />
    <glyph glyph-name="dotlessi" unicode="&#x131;" horiz-adv-x="669" 
d="M587 -25h-294c-13 -2 -27 -5 -39 -6c-57 0 -116 1 -172 2l-19 16v13c0 6 -1 13 -1 21v45c0 114 1 219 4 327l3 214c0 128 8 276 8 411v28l130 1c6 0 12 -1 19 -1h68c9 0 17 1 25 1l265 -4c1 0 3 1 5 1c1 0 2 -1 2 -5l1 -63c0 -13 -2 -25 -1 -38v-9v-67
c0 -95 2 -189 10 -270l4 -42c5 -55 7 -108 8 -175v-27c0 -2 -1 -3 -1 -4v-31c0 -3 1 -6 1 -9l1 -150c0 -79 -12 -179 -27 -179z" />
    <glyph glyph-name="Lslash" unicode="&#x141;" horiz-adv-x="1264" 
d="M1270 380c-5 -15 -6 -38 -6 -56v-23c0 -25 0 -53 7 -76c0 -81 0 -152 -1 -233c-6 -26 -760 -26 -987 -26c-52 0 -99 1 -149 2c-14 26 -17 59 -17 99c0 19 3 44 3 65v459l-21 -2c-6 -1 -25 -9 -32 -12l-38 -15c-12 2 -20 6 -29 11l-24 77l-15 34v-1c-13 39 -29 83 -29 116
c0 13 41 24 61 31l26 9l-1 -1l103 34v198c0 15 1 32 1 48c0 21 -1 48 -2 80v11c0 43 -5 93 -5 144c0 68 10 139 23 165c19 -1 30 -1 55 -1h46c51 0 110 2 168 2c150 0 292 -6 318 -37c0 -119 -9 -230 -9 -348v-48l122 45l-1 -1c3 1 9 4 14 5l6 2c31 11 61 22 77 22
c28 -58 50 -117 71 -176l2 -7c3 -9 14 -30 14 -43c0 -3 -3 -6 -12 -10h1l-294 -106l-9 -26v-378l42 -23c132 8 203 11 410 11c61 0 110 -3 112 -17c-1 -2 -1 -4 -1 -4zM1270 380l3 6v-1c5 8 11 12 17 12l7 -17l-10 -8l-3 1l2 -1z" />
    <glyph glyph-name="lslash" unicode="&#x142;" horiz-adv-x="1128" 
d="M640 425h153c7 0 13 -1 20 -1h217c21 0 47 2 76 2c14 0 30 0 30 -16v-134c0 -56 0 -152 1 -213c-7 -15 -43 -17 -80 -17h-72c-92 0 -180 -4 -272 -4h-293c-21 -1 -48 -2 -67 -2h-8c-12 -1 -29 -2 -39 -2h-100c-9 0 -18 1 -28 1l-70 1c-2 0 -4 2 -11 16v240
c0 25 1 64 2 89l3 102c0 4 -1 9 -1 13c0 17 3 43 12 93c-41 -17 -109 -52 -135 -62l-21 3c-3 0 -8 1 -11 2l-12 29l1 -1l-5 14c-1 2 -3 6 -4 10v-2l-2 8l-13 24v-1l-4 10c-12 29 -25 59 -25 82c0 4 1 7 3 8h-1l225 99c1 74 1 159 1 233c0 54 -7 128 -7 196
c0 71 7 134 25 157c108 -3 204 -5 312 -5h47c36 0 70 0 109 -1c7 1 13 1 22 1c3 -1 13 -3 31 -3h5c4 -4 11 -14 17 -25v-11c0 -22 0 -43 -3 -65v-44c-4 -24 -2 -55 -4 -84l-2 -104l135 60c26 11 58 26 72 26c9 0 48 -93 73 -154l7 -15c0 -1 1 -4 1 -5c-2 0 -6 -2 -12 -4
l-289 -132v-63c-3 -45 -3 -91 -3 -136v-61c0 -46 -3 -112 -6 -152z" />
    <glyph glyph-name="OE" unicode="&#x152;" horiz-adv-x="1992" 
d="M1985 1112l-28 -27c-145 4 -292 3 -444 5l-3 -143c124 3 296 5 368 5c44 0 50 -7 50 -55c0 -91 -2 -183 -2 -268v-82c-2 -5 -5 -9 -9 -11h-48c-100 0 -239 2 -363 4v-164c34 1 86 1 120 1c25 0 51 -1 75 -1h219c14 0 35 0 51 2c2 -2 3 -5 6 -9l-4 -379c-1 0 -2 0 -3 1
l-927 -10c-71 -1 -141 -4 -210 -4c-137 0 -271 12 -400 79c-261 100 -392 384 -392 658c0 85 10 217 35 307c52 142 133 302 259 365l102 58h-2c137 48 297 67 438 67c85 0 173 -8 260 -17l832 18c8 -1 14 -6 15 -14c1 -129 4 -259 5 -386zM1982 -15l-11 -10c0 2 2 4 2 6v9
c6 -3 8 -5 9 -5zM961 312l20 39c-11 257 -19 508 -19 782c-2 24 -80 47 -112 54h-8c-2 0 -2 0 -3 1h1c-6 1 -16 1 -24 1c-219 0 -228 -298 -228 -453c17 -114 -43 -458 231 -458c51 0 91 13 142 34zM845 383l29 11l11 -33c-8 -8 -13 -11 -32 -11z" />
    <glyph glyph-name="oe" unicode="&#x153;" horiz-adv-x="1942" 
d="M1224 411v-37c0 -73 22 -150 132 -150c70 0 87 55 115 66c25 -1 49 -2 74 -2c119 0 230 6 336 6c25 0 39 -2 39 -15c0 -31 -19 -64 -28 -87l-6 -15v1c-96 -173 -300 -232 -481 -232c-124 0 -301 21 -409 129c-103 -93 -257 -119 -376 -119c-365 0 -585 215 -585 519
c0 110 17 273 110 395c116 124 259 220 453 220c13 0 27 0 40 -1c16 2 34 3 53 3c109 0 224 -41 324 -104c107 82 247 118 390 118c493 0 554 -373 554 -627c0 -23 -2 -46 -16 -63l-6 -8h-14c-89 0 -171 2 -257 2h-187c-78 0 -175 0 -255 1zM664 843
c-160 0 -180 -224 -180 -328c0 -112 12 -317 164 -317c183 0 185 213 185 329c0 121 -2 316 -169 316zM1378 869c-98 0 -160 -92 -165 -208c0 -37 24 -45 50 -45h16c2 0 5 1 9 1c42 0 104 -6 158 -6c78 0 112 10 112 59v33c0 66 -70 166 -180 166z" />
    <glyph glyph-name="Scaron" unicode="&#x160;" horiz-adv-x="1486" 
d="M1185 24c-145 -64 -328 -82 -474 -82c-227 0 -492 57 -575 221c-63 89 -71 142 -80 232l-2 19c7 -1 15 -1 21 -1c173 0 336 9 516 9c52 0 21 -136 175 -136c71 0 147 39 147 126c0 104 -143 113 -247 145l-56 13c-1 0 -5 1 -7 2c-385 82 -537 212 -537 449
c0 407 393 537 725 537c155 0 328 -30 445 -101l1 -2c165 -113 183 -216 194 -334l-23 -24l-92 -5c-84 -5 -169 -7 -258 -7c-51 0 -101 1 -152 5c-59 4 -14 99 -139 99c-10 0 -151 -18 -151 -93c0 -79 197 -113 266 -123c243 -56 590 -154 590 -495
c0 -247 -122 -383 -287 -454zM742 2094l26 -1c21 28 40 56 56 85c0 0 0 1 1 2l30 52c33 0 58 -1 88 -1h275l4 -6c-6 -26 -47 -81 -69 -109c-14 -23 -27 -44 -38 -65l-6 -12v1c-45 -78 -92 -160 -165 -171c-31 -5 -70 -6 -113 -6c-102 0 -200 -2 -302 -5
c-42 27 -69 81 -97 126l-16 25h2c-22 31 -49 74 -63 97l-9 15c-3 3 -7 10 -10 14l-19 27l1 -1c-18 27 -37 55 -37 67c0 11 23 12 48 12c13 0 23 -1 33 -1h162c86 0 138 -7 171 -71v1c9 -19 27 -45 47 -75zM1235 1463l5 -8c-1 0 -3 1 -4 2zM825 2182l1 3c0 -1 0 -2 -1 -3z
" />
    <glyph glyph-name="scaron" unicode="&#x161;" horiz-adv-x="1314" 
d="M222 112l-20 12c-115 92 -153 205 -166 326c0 1 1 4 2 4c6 0 22 -3 38 -3c3 0 9 0 13 1h53c20 0 58 0 81 1h10c11 0 23 0 32 -1c62 3 139 3 207 3h46c54 -9 21 -124 160 -124h6c60 1 116 28 120 102c0 92 -181 113 -284 146l-62 16h1c-278 82 -411 203 -411 392
c0 228 191 385 406 437c73 15 147 19 227 19c116 0 245 -19 346 -58c73 -34 111 -64 137 -97l36 -40c48 -54 64 -124 71 -195l-24 -26l1 -2l-160 -1h-22c-60 0 -121 3 -180 3h-6c-33 0 -43 -1 -60 32c-19 37 -45 52 -144 52c-17 0 -120 -8 -120 -67c0 -75 140 -73 176 -98
l41 -12c197 -48 531 -131 531 -438c0 -403 -365 -463 -658 -485c-121 5 -323 26 -424 101zM1248 1025h18l-8 -12zM1259 1012l-2 -1zM736 1873v-1c11 25 25 43 37 60h55c20 0 41 -1 62 -1h258c2 0 3 -1 3 -3c0 -18 -34 -63 -58 -95l-134 -198c-26 -46 -43 -76 -148 -76
l-173 -2c-24 0 -49 -2 -74 -3c-4 0 -9 1 -13 1c-37 0 -78 -2 -118 -2l-20 17l-171 250l-21 29c-22 30 -48 68 -49 80c0 3 5 9 11 13c108 0 204 -9 311 -9h12c48 -1 71 -10 104 -67l54 -99c31 41 47 68 63 93v-1c3 4 6 8 9 14zM753 1949l19 7l9 -14l-9 -10h-15z" />
    <glyph glyph-name="Ydieresis" unicode="&#x178;" horiz-adv-x="1524" 
d="M1070 396v-413c-3 -9 -10 -16 -20 -16c-197 0 -378 -4 -573 -4c-19 24 -22 43 -22 64c0 42 2 84 2 125v29c0 11 1 20 1 30l1 73c0 231 -85 406 -174 589l-149 298c-26 49 -47 93 -83 158l-6 11v-1c-36 55 -80 127 -80 162c0 4 15 5 32 5h257c106 0 213 0 321 -3
c25 -5 117 -304 167 -481l45 -159c79 206 160 471 215 638c1 8 80 8 148 8h128c24 0 46 0 77 -2h173c11 0 23 1 33 1c6 -3 11 -10 15 -25l-30 -59v1l-65 -125c-63 -116 -135 -244 -190 -364v1l-34 -65l-187 -374c-2 -34 -2 -69 -2 -102zM1260 2028v4c4 -115 6 -231 7 -346
c-1 -2 -3 -8 -3 -10l-7 1c-113 -11 -216 -5 -333 -14l-26 29c0 68 6 325 24 344c37 -2 67 -3 104 -3c59 0 106 3 170 3c31 0 62 -2 64 -8zM898 1691l1 -3l-3 7c0 -1 1 -2 2 -3v-1zM1263 1675l14 -1c0 -12 -7 -17 -14 -17c-3 0 -7 1 -10 4zM695 1835c0 -46 0 -109 1 -156
c-8 -9 -43 -11 -81 -11c-7 0 -13 1 -21 1h-51c-60 0 -138 -7 -187 -7c-9 12 -15 23 -24 35c0 104 3 317 22 339c108 -2 223 0 335 -4h-2c6 -2 7 -11 7 -25c0 -4 -1 -8 -1 -11v-32c0 -34 2 -76 2 -98v-31z" />
    <glyph glyph-name="Zcaron" unicode="&#x17d;" horiz-adv-x="1395" 
d="M729 371h53c80 0 387 8 580 8c13 0 15 -98 15 -178v-112c0 -21 2 -39 2 -65c0 -46 -19 -49 -57 -49h-26c-402 0 -800 -10 -1199 -10c-34 0 -50 3 -71 34c0 27 0 273 -7 340l16 13l141 171l481 593c-88 0 -230 -3 -295 -3l-74 -2c-73 -2 -144 -3 -219 -3
c-14 7 -7 41 -10 68v19c0 2 1 5 1 8v59c0 86 -9 203 -9 229c0 4 1 6 1 6c1 0 4 -1 9 -4c321 -1 690 5 1009 10l217 3c39 -1 66 -8 66 -61c0 -20 -2 -36 -2 -56v-10c0 -95 -3 -152 -3 -200v-13c-14 -92 -128 -223 -219 -322l-77 -84l-209 -250zM778 1956v-1
c11 25 25 43 37 60h55c20 0 41 -1 62 -1h258c2 0 3 -1 3 -3c0 -18 -34 -63 -58 -95l-134 -198c-26 -46 -43 -76 -148 -76l-173 -2c-24 0 -49 -2 -74 -3c-4 0 -9 1 -13 1c-37 0 -78 -2 -118 -2l-20 17l-171 250l-21 29c-22 30 -48 68 -49 80c0 3 5 9 11 13
c108 0 204 -9 311 -9h12c48 -1 71 -10 104 -67l54 -99c31 41 47 68 63 93v-1c3 4 6 8 9 14zM795 2032l19 7l9 -14l-9 -10h-15z" />
    <glyph glyph-name="zcaron" unicode="&#x17e;" horiz-adv-x="1440" 
d="M146 821v375h1253s-1 -3 -4 -3l-113 -182l-365 -641h189c71 0 152 -1 219 -1v-370h-1180c-15 0 -56 -3 -87 -3c-15 0 -29 0 -47 3l1 -1c-5 0 -11 3 -15 3c13 26 21 38 29 51l11 17l273 424l202 326h-56c-76 0 -146 2 -228 2h-82zM801 1713v-1c11 25 25 43 37 60h55
c20 0 41 -1 62 -1h258c2 0 3 -1 3 -3c0 -18 -34 -63 -58 -95l-134 -198c-26 -46 -43 -76 -148 -76l-173 -2c-24 0 -49 -2 -74 -3c-4 0 -9 1 -13 1c-37 0 -78 -2 -118 -2l-20 17l-171 250l-21 29c-22 30 -48 68 -49 80c0 3 5 9 11 13c108 0 204 -9 311 -9h12
c48 -1 71 -10 104 -67l54 -99c31 41 47 68 63 93v-1c3 4 6 8 9 14zM818 1789l19 7l9 -14l-9 -10h-15z" />
    <glyph glyph-name="florin" unicode="&#x192;" horiz-adv-x="1497" 
d="M1315 1485l-47 -295l-11 -9c-13 0 -51 8 -78 15v11c-2 0 -17 1 -21 1h-14c-41 0 -71 -25 -88 -102c0 0 1 0 2 1c-15 -51 -36 -154 -40 -190c87 -18 124 -16 192 -28c2 0 6 1 9 1h16c4 0 7 0 8 -1v-84c3 -73 7 -142 7 -223c0 -14 0 -27 -1 -30c-97 -11 -191 -6 -289 -17
l-48 -264c-6 -32 -10 -74 -16 -115l-4 -29c-18 -130 -47 -292 -95 -385c-83 -142 -234 -193 -385 -193c-17 0 -313 13 -313 59c0 11 3 23 7 34l2 15c15 74 30 256 51 272c3 0 11 -4 22 -15l6 6c27 -11 45 -14 60 -14c61 0 97 48 112 127c16 86 30 174 43 264l6 43
c8 57 21 130 31 185l-50 -1c-8 0 -20 2 -32 5h-24c-9 0 -16 1 -23 1h-19c-19 0 -35 0 -52 1l-1 1c-16 18 -20 25 -23 78v-1c-1 32 -2 72 -2 113c0 84 3 166 30 183c84 8 177 19 257 28l8 62c69 443 231 563 488 566c28 -3 290 0 324 -47c-1 -12 -4 -19 -5 -29zM180 -76
l-11 12l9 52l41 -25c-21 -21 -13 -20 -30 -41c-1 0 -7 2 -8 2h-1zM1176 1171h-18l-16 28h21c2 0 14 -1 16 -1v-10c-1 -9 -3 -15 -3 -17zM1081 1142l7 -17l-6 -5l-15 10c4 8 11 12 14 12zM1267 1186c0 1 1 2 1 4l9 -12l-7 3c-3 0 -3 2 -3 5z" />
    <glyph glyph-name="uni0200" unicode="&#x200;" horiz-adv-x="1639" 
d="M1550 -24c-21 0 -41 -1 -62 -1h-61c-32 0 -65 -1 -97 -1c-83 0 -161 1 -243 7h2c-3 1 -5 6 -7 12l-5 21c-6 65 -34 167 -47 199l-428 -4c-19 -74 -41 -154 -59 -228c-9 -9 -52 -10 -95 -10c-8 0 -17 1 -25 1h-58c-87 0 -173 -6 -260 -6h-30c-11 0 -19 -1 -28 -1h-70
c-5 5 -10 11 -15 18c81 285 179 575 271 858l23 71h-1l27 83c54 167 115 333 165 503c1 4 2 7 5 9h166c119 0 238 5 355 5l96 -5c19 0 50 5 79 5c30 0 60 -4 60 -24c168 -471 305 -936 455 -1392l14 -50c3 -12 4 -21 20 -57c-2 -15 -27 -13 -88 -13h-59zM866 1146l-4 9
c-6 17 -9 34 -42 48c-29 -7 -122 -429 -161 -602l-11 -66h59c11 0 25 -1 41 -1c94 0 239 1 239 1s-15 119 -23 175l-38 171c-20 88 -42 176 -60 265zM603 1911h12c4 0 8 1 12 1c14 -15 30 -41 44 -64v1l11 -22v1l45 -79c37 -65 78 -128 118 -191l-10 -17c-2 -2 -3 -6 -5 -8
l-4 -6c-7 2 -15 3 -22 3l-167 -4c-48 7 -60 1 -99 7c-7 -1 -16 -2 -23 -2c-51 0 -68 19 -92 49l-25 32l-249 289v1c67 0 144 3 210 4l209 4c9 0 26 0 35 1zM1211 1912l77 2c18 -23 36 -49 53 -81l167 -278l-19 -29l-215 7c-8 0 -17 1 -24 1h-20c-81 0 -99 0 -161 71
l-257 294c0 0 1 0 1 2l1 1c89 0 176 7 263 7zM608 1941l27 -9v-20h-5c-4 0 -8 0 -22 29zM831 1526l-10 -10c0 1 2 4 2 5l5 6c1 -1 1 -1 3 -1zM148 1902l1 -1h-2z" />
    <glyph glyph-name="uni0201" unicode="&#x201;" horiz-adv-x="1575" 
d="M1475 199c0 -65 10 -124 29 -180l10 -22h-452c-12 0 -23 1 -36 1c-21 0 -40 0 -61 -1c-18 34 -43 100 -61 164c-16 -34 -70 -96 -91 -96c-68 -33 -143 -71 -210 -80l-15 -2c-36 -5 -88 -19 -131 -19c-215 0 -422 130 -422 363c0 138 53 256 226 298c74 18 146 22 224 29
l33 3c9 0 41 7 46 7c4 0 7 -1 10 -1h24c16 0 38 1 53 5l54 7c92 6 180 17 180 155c-5 8 -6 17 -6 27c0 51 -43 101 -96 101h-5c-90 0 -96 -116 -96 -163l-2 -3c-7 -4 -8 -5 -10 -5l-4 1c-12 1 -25 3 -56 3h-516c4 59 17 104 35 153v-1c87 212 368 285 566 292l60 3
c9 0 23 3 32 3c4 0 8 -1 12 -3h13c16 0 33 2 45 2c19 0 42 -4 63 -7l29 -4c14 -2 29 0 45 -2c424 -56 478 -374 478 -663c4 -13 7 -30 7 -42c0 -26 -5 -48 -5 -69v-116c1 -2 1 -8 1 -17c0 -19 -2 -51 -2 -68v-9c3 -5 3 -9 3 -14c0 -3 -1 -6 -1 -9v-21zM889 330l2 10
c0 20 1 39 1 62v30c0 11 1 22 1 32c0 25 0 50 -8 96c-83 -45 -197 -43 -197 -156c0 -67 42 -128 105 -128c30 0 75 18 96 54zM571 1791h12c4 0 8 1 12 1c14 -15 30 -41 44 -64v1l11 -22v1l45 -79c37 -65 78 -128 118 -191l-10 -17c-2 -2 -3 -6 -5 -8l-4 -6c-7 2 -15 3 -22 3
l-167 -4c-48 7 -60 1 -99 7c-7 -1 -16 -2 -23 -2c-51 0 -68 19 -92 49l-25 32l-249 289v1c67 0 144 3 210 4l209 4c9 0 26 0 35 1zM1179 1792l77 2c18 -23 36 -49 53 -81l167 -278l-19 -29l-215 7c-8 0 -17 1 -24 1h-20c-81 0 -99 0 -161 71l-257 294c0 0 1 0 1 2l1 1
c89 0 176 7 263 7zM576 1821l27 -9v-20h-5c-4 0 -8 0 -22 29zM799 1406l-10 -10c0 1 2 4 2 5l5 6c1 -1 1 -1 3 -1zM116 1782l1 -1h-2z" />
    <glyph glyph-name="uni0202" unicode="&#x202;" horiz-adv-x="1639" 
d="M1550 -24c-21 0 -41 -1 -62 -1h-61c-32 0 -65 -1 -97 -1c-83 0 -161 1 -243 7h2c-3 1 -5 6 -7 12l-5 21c-6 65 -34 167 -47 199l-428 -4c-19 -74 -41 -154 -59 -228c-9 -9 -52 -10 -95 -10c-8 0 -17 1 -25 1h-58c-87 0 -173 -6 -260 -6h-30c-11 0 -19 -1 -28 -1h-70
c-5 5 -10 11 -15 18c81 285 179 575 271 858l23 71h-1l27 83c54 167 115 333 165 503c1 4 2 7 5 9h166c119 0 238 5 355 5l96 -5c19 0 50 5 79 5c30 0 60 -4 60 -24c168 -471 305 -936 455 -1392l14 -50c3 -12 4 -21 20 -57c-2 -15 -27 -13 -88 -13h-59zM866 1146l-4 9
c-6 17 -9 34 -42 48c-29 -7 -122 -429 -161 -602l-11 -66h59c11 0 25 -1 41 -1c94 0 239 1 239 1s-15 119 -23 175l-38 171c-20 88 -42 176 -60 265zM415 1507l-12 15l-11 16c15 67 36 142 72 199c72 114 222 166 364 166c143 0 303 -75 381 -203c21 -44 42 -115 54 -166
c-2 -7 -11 -8 -21 -8h-8c-2 0 -5 1 -7 1l-277 -6c-6 5 -10 14 -12 21l-7 19h1c-12 39 -26 84 -95 84c-122 0 -62 -128 -162 -128c-44 0 -90 -5 -134 -5l-92 -3c-14 -1 -23 -3 -31 -2h-3zM423 1475l-27 16l4 17c1 0 16 -1 20 -1z" />
    <glyph glyph-name="uni0203" unicode="&#x203;" horiz-adv-x="1575" 
d="M1475 199c0 -65 10 -124 29 -180l10 -22h-452c-12 0 -23 1 -36 1c-21 0 -40 0 -61 -1c-18 34 -43 100 -61 164c-16 -34 -70 -96 -91 -96c-68 -33 -143 -71 -210 -80l-15 -2c-36 -5 -88 -19 -131 -19c-215 0 -422 130 -422 363c0 138 53 256 226 298c74 18 146 22 224 29
l33 3c9 0 41 7 46 7c4 0 7 -1 10 -1h24c16 0 38 1 53 5l54 7c92 6 180 17 180 155c-5 8 -6 17 -6 27c0 51 -43 101 -96 101h-5c-90 0 -96 -116 -96 -163l-2 -3c-7 -4 -8 -5 -10 -5l-4 1c-12 1 -25 3 -56 3h-516c4 59 17 104 35 153v-1c87 212 368 285 566 292l60 3
c9 0 23 3 32 3c4 0 8 -1 12 -3h13c16 0 33 2 45 2c19 0 42 -4 63 -7l29 -4c14 -2 29 0 45 -2c424 -56 478 -374 478 -663c4 -13 7 -30 7 -42c0 -26 -5 -48 -5 -69v-116c1 -2 1 -8 1 -17c0 -19 -2 -51 -2 -68v-9c3 -5 3 -9 3 -14c0 -3 -1 -6 -1 -9v-21zM889 330l2 10
c0 20 1 39 1 62v30c0 11 1 22 1 32c0 25 0 50 -8 96c-83 -45 -197 -43 -197 -156c0 -67 42 -128 105 -128c30 0 75 18 96 54zM383 1387l-12 15l-11 16c15 67 36 142 72 199c72 114 222 166 364 166c143 0 303 -75 381 -203c21 -44 42 -115 54 -166c-2 -7 -11 -8 -21 -8h-8
c-2 0 -5 1 -7 1l-277 -6c-6 5 -10 14 -12 21l-7 19h1c-12 39 -26 84 -95 84c-122 0 -62 -128 -162 -128c-44 0 -90 -5 -134 -5l-92 -3c-14 -1 -23 -3 -31 -2h-3zM391 1355l-27 16l4 17c1 0 16 -1 20 -1z" />
    <glyph glyph-name="uni0204" unicode="&#x204;" horiz-adv-x="1306" 
d="M1267 1224c-1 -22 0 -44 -2 -67c-5 -16 -30 -16 -59 -16h-7c-164 0 -340 3 -504 8c-1 -18 -5 -46 -6 -65l-5 -38c-5 -37 -6 -82 -7 -132l310 7c40 1 77 2 116 2h16c72 0 99 0 99 -24c0 -3 -1 -6 -1 -8v-24c0 -103 5 -163 5 -257l-1 -1v1c-162 -8 -325 -15 -486 -15h-47
v-242c186 0 361 17 543 17c23 0 48 -3 57 -13c-1 -26 -1 -49 -1 -74c0 -67 -1 -135 5 -187v1c1 -27 2 -55 2 -86c0 -15 -5 -26 -22 -29c-111 0 -221 3 -332 3c-128 0 -265 -4 -390 -7l-164 -4c-86 -2 -172 -5 -258 -6l-3 2h1c-4 5 -14 14 -19 19v35c0 367 6 736 6 1069
l1 145c0 76 -6 249 -5 263c1 0 3 -1 7 -3c353 6 788 13 1145 14c2 -1 5 -4 6 -6v-282zM437 1911h12c4 0 8 1 12 1c14 -15 30 -41 44 -64v1l11 -22v1l45 -79c37 -65 78 -128 118 -191l-10 -17c-2 -2 -3 -6 -5 -8l-4 -6c-7 2 -15 3 -22 3l-167 -4c-48 7 -60 1 -99 7
c-7 -1 -16 -2 -23 -2c-51 0 -68 19 -92 49l-25 32l-249 289v1c67 0 144 3 210 4l209 4c9 0 26 0 35 1zM1045 1912l77 2c18 -23 36 -49 53 -81l167 -278l-19 -29l-215 7c-8 0 -17 1 -24 1h-20c-81 0 -99 0 -161 71l-257 294c0 0 1 0 1 2l1 1c89 0 176 7 263 7zM442 1941
l27 -9v-20h-5c-4 0 -8 0 -22 29zM665 1526l-10 -10c0 1 2 4 2 5l5 6c1 -1 1 -1 3 -1zM-18 1902l1 -1h-2z" />
    <glyph glyph-name="uni0205" unicode="&#x205;" horiz-adv-x="1475" 
d="M1426 645c0 -10 0 -41 1 -65h-824v-33c5 -19 6 -38 6 -56c0 -106 17 -128 43 -176v1l11 -21c16 -17 31 -24 52 -30c77 16 93 98 105 159l2 10c36 10 68 10 102 10c42 0 86 -3 128 -3h369c-8 -81 -31 -154 -72 -224h1c-111 -175 -411 -250 -571 -250c-6 0 -12 1 -16 2h-23
c-3 0 -6 -1 -9 -1h-9c-5 0 -8 0 -20 2c-8 -5 -18 -6 -24 -6c-13 0 -33 7 -53 7h1c-6 2 -14 3 -35 3c-5 -2 -10 -3 -15 -3c-39 0 -82 14 -126 27v-1l-26 8l2 -1c-19 7 -21 7 -24 8c-199 58 -354 215 -394 412c-6 44 -19 78 -19 107c0 6 1 14 2 19c-2 9 -2 18 -2 26s0 17 1 26
v15c0 287 187 501 465 584h-1l24 7c23 4 57 11 76 19l-1 -1l14 4c37 6 79 9 112 9c22 0 44 -2 67 -4l42 -4c59 -6 87 -6 152 -23v1l21 -9c123 -38 241 -100 327 -198v1c26 -31 106 -148 106 -186l8 -27l5 -29c11 -39 19 -78 19 -116zM852 712l21 13c-15 86 -40 233 -135 233
c-79 0 -123 -144 -134 -250c32 2 87 4 118 4h130zM521 1791h12c4 0 8 1 12 1c14 -15 30 -41 44 -64v1l11 -22v1l45 -79c37 -65 78 -128 118 -191l-10 -17c-2 -2 -3 -6 -5 -8l-4 -6c-7 2 -15 3 -22 3l-167 -4c-48 7 -60 1 -99 7c-7 -1 -16 -2 -23 -2c-51 0 -68 19 -92 49
l-25 32l-249 289v1c67 0 144 3 210 4l209 4c9 0 26 0 35 1zM1129 1792l77 2c18 -23 36 -49 53 -81l167 -278l-19 -29l-215 7c-8 0 -17 1 -24 1h-20c-81 0 -99 0 -161 71l-257 294c0 0 1 0 1 2l1 1c89 0 176 7 263 7zM526 1821l27 -9v-20h-5c-4 0 -8 0 -22 29zM749 1406
l-10 -10c0 1 2 4 2 5l5 6c1 -1 1 -1 3 -1zM66 1782l1 -1h-2z" />
    <glyph glyph-name="uni0206" unicode="&#x206;" horiz-adv-x="1306" 
d="M1267 1224c-1 -22 0 -44 -2 -67c-5 -16 -30 -16 -59 -16h-7c-164 0 -340 3 -504 8c-1 -18 -5 -46 -6 -65l-5 -38c-5 -37 -6 -82 -7 -132l310 7c40 1 77 2 116 2h16c72 0 99 0 99 -24c0 -3 -1 -6 -1 -8v-24c0 -103 5 -163 5 -257l-1 -1v1c-162 -8 -325 -15 -486 -15h-47
v-242c186 0 361 17 543 17c23 0 48 -3 57 -13c-1 -26 -1 -49 -1 -74c0 -67 -1 -135 5 -187v1c1 -27 2 -55 2 -86c0 -15 -5 -26 -22 -29c-111 0 -221 3 -332 3c-128 0 -265 -4 -390 -7l-164 -4c-86 -2 -172 -5 -258 -6l-3 2h1c-4 5 -14 14 -19 19v35c0 367 6 736 6 1069
l1 145c0 76 -6 249 -5 263c1 0 3 -1 7 -3c353 6 788 13 1145 14c2 -1 5 -4 6 -6v-282zM248 1507l-12 15l-11 16c15 67 36 142 72 199c72 114 222 166 364 166c143 0 303 -75 381 -203c21 -44 42 -115 54 -166c-2 -7 -11 -8 -21 -8h-8c-2 0 -5 1 -7 1l-277 -6
c-6 5 -10 14 -12 21l-7 19h1c-12 39 -26 84 -95 84c-122 0 -62 -128 -162 -128c-44 0 -90 -5 -134 -5l-92 -3c-14 -1 -23 -3 -31 -2h-3zM256 1475l-27 16l4 17c1 0 16 -1 20 -1z" />
    <glyph glyph-name="uni0207" unicode="&#x207;" horiz-adv-x="1475" 
d="M1426 645c0 -10 0 -41 1 -65h-824v-33c5 -19 6 -38 6 -56c0 -106 17 -128 43 -176v1l11 -21c16 -17 31 -24 52 -30c77 16 93 98 105 159l2 10c36 10 68 10 102 10c42 0 86 -3 128 -3h369c-8 -81 -31 -154 -72 -224h1c-111 -175 -411 -250 -571 -250c-6 0 -12 1 -16 2h-23
c-3 0 -6 -1 -9 -1h-9c-5 0 -8 0 -20 2c-8 -5 -18 -6 -24 -6c-13 0 -33 7 -53 7h1c-6 2 -14 3 -35 3c-5 -2 -10 -3 -15 -3c-39 0 -82 14 -126 27v-1l-26 8l2 -1c-19 7 -21 7 -24 8c-199 58 -354 215 -394 412c-6 44 -19 78 -19 107c0 6 1 14 2 19c-2 9 -2 18 -2 26s0 17 1 26
v15c0 287 187 501 465 584h-1l24 7c23 4 57 11 76 19l-1 -1l14 4c37 6 79 9 112 9c22 0 44 -2 67 -4l42 -4c59 -6 87 -6 152 -23v1l21 -9c123 -38 241 -100 327 -198v1c26 -31 106 -148 106 -186l8 -27l5 -29c11 -39 19 -78 19 -116zM852 712l21 13c-15 86 -40 233 -135 233
c-79 0 -123 -144 -134 -250c32 2 87 4 118 4h130zM333 1387l-12 15l-11 16c15 67 36 142 72 199c72 114 222 166 364 166c143 0 303 -75 381 -203c21 -44 42 -115 54 -166c-2 -7 -11 -8 -21 -8h-8c-2 0 -5 1 -7 1l-277 -6c-6 5 -10 14 -12 21l-7 19h1c-12 39 -26 84 -95 84
c-122 0 -62 -128 -162 -128c-44 0 -90 -5 -134 -5l-92 -3c-14 -1 -23 -3 -31 -2h-3zM341 1355l-27 16l4 17c1 0 16 -1 20 -1z" />
    <glyph glyph-name="uni0208" unicode="&#x208;" horiz-adv-x="842" 
d="M716 1488v-304v-58c0 -279 7 -541 7 -814c0 -6 1 -11 3 -15v-2c2 -4 3 -8 3 -13c0 -48 3 -101 4 -147l4 -144c-3 -7 -11 -14 -18 -17h-34c-195 0 -379 -9 -560 -9c-8 4 -18 10 -26 15c0 6 1 9 1 17l3 110c2 96 -2 187 11 282c0 288 4 582 12 877c-2 42 -3 86 -3 127v33
c-3 23 -4 48 -4 72c0 5 2 10 5 14c148 -9 284 -13 440 -13c56 0 106 1 156 6c1 -2 2 -7 3 -17h-7zM205 1911h12c4 0 8 1 12 1c14 -15 30 -41 44 -64v1l11 -22v1l45 -79c37 -65 78 -128 118 -191l-10 -17c-2 -2 -3 -6 -5 -8l-4 -6c-7 2 -15 3 -22 3l-167 -4
c-48 7 -60 1 -99 7c-7 -1 -16 -2 -23 -2c-51 0 -68 19 -92 49l-25 32l-249 289v1c67 0 144 3 210 4l209 4c9 0 26 0 35 1zM813 1912l77 2c18 -23 36 -49 53 -81l167 -278l-19 -29l-215 7c-8 0 -17 1 -24 1h-20c-81 0 -99 0 -161 71l-257 294c0 0 1 0 1 2l1 1
c89 0 176 7 263 7zM210 1941l27 -9v-20h-5c-4 0 -8 0 -22 29zM433 1526l-10 -10c0 1 2 4 2 5l5 6c1 -1 1 -1 3 -1zM-250 1902l1 -1h-2z" />
    <glyph glyph-name="uni0209" unicode="&#x209;" horiz-adv-x="669" 
d="M587 -25h-294c-13 -2 -27 -5 -39 -6c-57 0 -116 1 -172 2l-19 16v13c0 6 -1 13 -1 21v45c0 114 1 219 4 327l3 214c0 128 8 276 8 411v28l130 1c6 0 12 -1 19 -1h68c9 0 17 1 25 1l265 -4c1 0 3 1 5 1c1 0 2 -1 2 -5l1 -63c0 -13 -2 -25 -1 -38v-9v-67
c0 -95 2 -189 10 -270l4 -42c5 -55 7 -108 8 -175v-27c0 -2 -1 -3 -1 -4v-31c0 -3 1 -6 1 -9l1 -150c0 -79 -12 -179 -27 -179zM119 1791h12c4 0 8 1 12 1c14 -15 30 -41 44 -64v1l11 -22v1l45 -79c37 -65 78 -128 118 -191l-10 -17c-2 -2 -3 -6 -5 -8l-4 -6
c-7 2 -15 3 -22 3l-167 -4c-48 7 -60 1 -99 7c-7 -1 -16 -2 -23 -2c-51 0 -68 19 -92 49l-25 32l-249 289v1c67 0 144 3 210 4l209 4c9 0 26 0 35 1zM727 1792l77 2c18 -23 36 -49 53 -81l167 -278l-19 -29l-215 7c-8 0 -17 1 -24 1h-20c-81 0 -99 0 -161 71l-257 294
c0 0 1 0 1 2l1 1c89 0 176 7 263 7zM124 1821l27 -9v-20h-5c-4 0 -8 0 -22 29zM347 1406l-10 -10c0 1 2 4 2 5l5 6c1 -1 1 -1 3 -1zM-336 1782l1 -1h-2z" />
    <glyph glyph-name="uni020A" unicode="&#x20a;" horiz-adv-x="842" 
d="M716 1488v-304v-58c0 -279 7 -541 7 -814c0 -6 1 -11 3 -15v-2c2 -4 3 -8 3 -13c0 -48 3 -101 4 -147l4 -144c-3 -7 -11 -14 -18 -17h-34c-195 0 -379 -9 -560 -9c-8 4 -18 10 -26 15c0 6 1 9 1 17l3 110c2 96 -2 187 11 282c0 288 4 582 12 877c-2 42 -3 86 -3 127v33
c-3 23 -4 48 -4 72c0 5 2 10 5 14c148 -9 284 -13 440 -13c56 0 106 1 156 6c1 -2 2 -7 3 -17h-7zM16 1507l-12 15l-11 16c15 67 36 142 72 199c72 114 222 166 364 166c143 0 303 -75 381 -203c21 -44 42 -115 54 -166c-2 -7 -11 -8 -21 -8h-8c-2 0 -5 1 -7 1l-277 -6
c-6 5 -10 14 -12 21l-7 19h1c-12 39 -26 84 -95 84c-122 0 -62 -128 -162 -128c-44 0 -90 -5 -134 -5l-92 -3c-14 -1 -23 -3 -31 -2h-3zM24 1475l-27 16l4 17c1 0 16 -1 20 -1z" />
    <glyph glyph-name="uni020B" unicode="&#x20b;" horiz-adv-x="764" 
d="M587 -25h-294c-13 -2 -27 -5 -39 -6c-57 0 -116 1 -172 2l-19 16v13c0 6 -1 13 -1 21v45c0 114 1 219 4 327l3 214c0 128 8 276 8 411v28l130 1c6 0 12 -1 19 -1h68c9 0 17 1 25 1l265 -4c1 0 3 1 5 1c1 0 2 -1 2 -5l1 -63c0 -13 -2 -25 -1 -38v-9v-67
c0 -95 2 -189 10 -270l4 -42c5 -55 7 -108 8 -175v-27c0 -2 -1 -3 -1 -4v-31c0 -3 1 -6 1 -9l1 -150c0 -79 -12 -179 -27 -179zM-23 1387l-12 15l-11 16c15 67 36 142 72 199c72 114 222 166 364 166c143 0 303 -75 381 -203c21 -44 42 -115 54 -166c-2 -7 -11 -8 -21 -8h-8
c-2 0 -5 1 -7 1l-277 -6c-6 5 -10 14 -12 21l-7 19h1c-12 39 -26 84 -95 84c-122 0 -62 -128 -162 -128c-44 0 -90 -5 -134 -5l-92 -3c-14 -1 -23 -3 -31 -2h-3zM-15 1355l-27 16l4 17c1 0 16 -1 20 -1z" />
    <glyph glyph-name="uni020C" unicode="&#x20c;" 
d="M833 1178c-193 0 -207 -216 -219 -367l-4 -51c0 -2 -1 -4 -1 -5v-3c-2 -21 -4 -52 -4 -81c0 -153 33 -364 197 -372c240 0 246 260 246 489c0 159 -21 390 -215 390zM1460 230l-46 -61c-133 -154 -398 -224 -600 -227c-177 0 -330 29 -469 120
c-251 163 -310 439 -310 690c0 4 2 12 2 22c12 129 30 277 97 402c147 255 424 376 723 376c157 0 429 -49 560 -223c72 -90 123 -168 153 -272c26 -82 38 -198 38 -281c0 -208 -38 -406 -148 -546zM606 1911h12c4 0 8 1 12 1c14 -15 30 -41 44 -64v1l11 -22v1l45 -79
c37 -65 78 -128 118 -191l-10 -17c-2 -2 -3 -6 -5 -8l-4 -6c-7 2 -15 3 -22 3l-167 -4c-48 7 -60 1 -99 7c-7 -1 -16 -2 -23 -2c-51 0 -68 19 -92 49l-25 32l-249 289v1c67 0 144 3 210 4l209 4c9 0 26 0 35 1zM1214 1912l77 2c18 -23 36 -49 53 -81l167 -278l-19 -29
l-215 7c-8 0 -17 1 -24 1h-20c-81 0 -99 0 -161 71l-257 294c0 0 1 0 1 2l1 1c89 0 176 7 263 7zM611 1941l27 -9v-20h-5c-4 0 -8 0 -22 29zM834 1526l-10 -10c0 1 2 4 2 5l5 6c1 -1 1 -1 3 -1zM151 1902l1 -1h-2z" />
    <glyph glyph-name="uni020D" unicode="&#x20d;" horiz-adv-x="1569" 
d="M1511 593v-8c-2 -100 -28 -210 -76 -297h1c-142 -218 -418 -324 -660 -324c-218 0 -363 46 -513 148l-9 6c-196 130 -232 335 -232 515c0 5 1 11 3 15v16c-3 4 -3 6 -3 8l1 7c1 1 0 2 1 4h-1c5 46 23 179 74 230c0 10 8 16 14 25v-1c3 3 6 11 9 15l6 9
c68 88 166 168 270 207l35 13c37 18 118 39 185 48l32 3c21 2 47 1 59 6l43 -1c3 1 6 1 9 1c1 0 2 0 7 -1l-1 1c4 -2 11 -3 18 -3c4 4 8 4 14 4c136 0 260 -25 369 -89l20 -9c188 -90 327 -254 327 -536l-1 -5c-2 -3 -1 -5 -1 -7zM891 599c-2 123 -28 298 -107 298
c-99 0 -112 -235 -112 -316c0 -77 24 -283 108 -283c99 0 111 192 111 301zM568 1791h12c4 0 8 1 12 1c14 -15 30 -41 44 -64v1l11 -22v1l45 -79c37 -65 78 -128 118 -191l-10 -17c-2 -2 -3 -6 -5 -8l-4 -6c-7 2 -15 3 -22 3l-167 -4c-48 7 -60 1 -99 7c-7 -1 -16 -2 -23 -2
c-51 0 -68 19 -92 49l-25 32l-249 289v1c67 0 144 3 210 4l209 4c9 0 26 0 35 1zM1176 1792l77 2c18 -23 36 -49 53 -81l167 -278l-19 -29l-215 7c-8 0 -17 1 -24 1h-20c-81 0 -99 0 -161 71l-257 294c0 0 1 0 1 2l1 1c89 0 176 7 263 7zM573 1821l27 -9v-20h-5
c-4 0 -8 0 -22 29zM796 1406l-10 -10c0 1 2 4 2 5l5 6c1 -1 1 -1 3 -1zM113 1782l1 -1h-2z" />
    <glyph glyph-name="uni020E" unicode="&#x20e;" 
d="M833 1178c-193 0 -207 -216 -219 -367l-4 -51c0 -2 -1 -4 -1 -5v-3c-2 -21 -4 -52 -4 -81c0 -153 33 -364 197 -372c240 0 246 260 246 489c0 159 -21 390 -215 390zM1460 230l-46 -61c-133 -154 -398 -224 -600 -227c-177 0 -330 29 -469 120
c-251 163 -310 439 -310 690c0 4 2 12 2 22c12 129 30 277 97 402c147 255 424 376 723 376c157 0 429 -49 560 -223c72 -90 123 -168 153 -272c26 -82 38 -198 38 -281c0 -208 -38 -406 -148 -546zM418 1507l-12 15l-11 16c15 67 36 142 72 199c72 114 222 166 364 166
c143 0 303 -75 381 -203c21 -44 42 -115 54 -166c-2 -7 -11 -8 -21 -8h-8c-2 0 -5 1 -7 1l-277 -6c-6 5 -10 14 -12 21l-7 19h1c-12 39 -26 84 -95 84c-122 0 -62 -128 -162 -128c-44 0 -90 -5 -134 -5l-92 -3c-14 -1 -23 -3 -31 -2h-3zM426 1475l-27 16l4 17
c1 0 16 -1 20 -1z" />
    <glyph glyph-name="uni020F" unicode="&#x20f;" horiz-adv-x="1569" 
d="M1511 593v-8c-2 -100 -28 -210 -76 -297h1c-142 -218 -418 -324 -660 -324c-218 0 -363 46 -513 148l-9 6c-196 130 -232 335 -232 515c0 5 1 11 3 15v16c-3 4 -3 6 -3 8l1 7c1 1 0 2 1 4h-1c5 46 23 179 74 230c0 10 8 16 14 25v-1c3 3 6 11 9 15l6 9
c68 88 166 168 270 207l35 13c37 18 118 39 185 48l32 3c21 2 47 1 59 6l43 -1c3 1 6 1 9 1c1 0 2 0 7 -1l-1 1c4 -2 11 -3 18 -3c4 4 8 4 14 4c136 0 260 -25 369 -89l20 -9c188 -90 327 -254 327 -536l-1 -5c-2 -3 -1 -5 -1 -7zM891 599c-2 123 -28 298 -107 298
c-99 0 -112 -235 -112 -316c0 -77 24 -283 108 -283c99 0 111 192 111 301zM380 1387l-12 15l-11 16c15 67 36 142 72 199c72 114 222 166 364 166c143 0 303 -75 381 -203c21 -44 42 -115 54 -166c-2 -7 -11 -8 -21 -8h-8c-2 0 -5 1 -7 1l-277 -6c-6 5 -10 14 -12 21l-7 19
h1c-12 39 -26 84 -95 84c-122 0 -62 -128 -162 -128c-44 0 -90 -5 -134 -5l-92 -3c-14 -1 -23 -3 -31 -2h-3zM388 1355l-27 16l4 17c1 0 16 -1 20 -1z" />
    <glyph glyph-name="uni0210" unicode="&#x210;" horiz-adv-x="1561" 
d="M1542 122c8 -45 16 -90 28 -130l-4 -3c-124 -8 -241 -11 -369 -11c-66 0 -125 2 -190 5h-6c-25 0 -53 184 -66 295l-5 43c-6 151 -48 186 -158 186c-4 0 -9 -1 -13 -1h-53v-304c0 -10 1 -21 1 -32v-183c-2 -6 -8 -11 -15 -12c-192 -7 -383 -2 -575 -5c-3 1 -5 2 -6 2
s-2 -1 -2 -1c-2 0 -3 1 -6 3l2 90c0 10 -1 20 -1 30c0 138 4 276 4 415v73c0 24 1 49 1 75l1 259c0 11 1 21 1 34c0 74 -3 148 -3 227c0 105 4 211 4 319c0 7 25 8 57 8c16 0 40 -1 64 -1h61c41 0 85 -1 127 -1l138 2c107 0 214 3 321 3c62 0 123 -1 185 -4
c299 -8 456 -146 456 -384c0 -173 -108 -284 -286 -369c295 -93 272 -397 297 -577zM1576 -5l-5 -3v2c0 1 2 1 5 1zM1571 -8v-1s-1 0 -1 1h1zM929 1178c-51 22 -106 26 -160 26h-58c-10 -15 -11 -56 -11 -118c0 -83 0 -203 5 -255c136 3 313 38 313 216
c0 72 -40 108 -89 131zM564 1911h12c4 0 8 1 12 1c14 -15 30 -41 44 -64v1l11 -22v1l45 -79c37 -65 78 -128 118 -191l-10 -17c-2 -2 -3 -6 -5 -8l-4 -6c-7 2 -15 3 -22 3l-167 -4c-48 7 -60 1 -99 7c-7 -1 -16 -2 -23 -2c-51 0 -68 19 -92 49l-25 32l-249 289v1
c67 0 144 3 210 4l209 4c9 0 26 0 35 1zM1172 1912l77 2c18 -23 36 -49 53 -81l167 -278l-19 -29l-215 7c-8 0 -17 1 -24 1h-20c-81 0 -99 0 -161 71l-257 294c0 0 1 0 1 2l1 1c89 0 176 7 263 7zM569 1941l27 -9v-20h-5c-4 0 -8 0 -22 29zM792 1526l-10 -10c0 1 2 4 2 5
l5 6c1 -1 1 -1 3 -1zM109 1902l1 -1h-2z" />
    <glyph glyph-name="uni0211" unicode="&#x211;" horiz-adv-x="1186" 
d="M1086 1238h37v-558c-17 4 -35 5 -52 5c-282 0 -317 -215 -317 -396c0 -35 2 -80 2 -105v-184c-124 0 -236 -1 -356 -1h-355c0 204 -1 396 -1 597v601c94 0 174 1 266 1h266l11 -67v1l11 -68c8 -49 17 -112 27 -160h35c21 97 65 190 142 243l40 23c5 9 22 15 36 22l-4 -1
l23 9c53 21 110 39 169 40c8 0 15 0 20 -2zM377 1791h12c4 0 8 1 12 1c14 -15 30 -41 44 -64v1l11 -22v1l45 -79c37 -65 78 -128 118 -191l-10 -17c-2 -2 -3 -6 -5 -8l-4 -6c-7 2 -15 3 -22 3l-167 -4c-48 7 -60 1 -99 7c-7 -1 -16 -2 -23 -2c-51 0 -68 19 -92 49l-25 32
l-249 289v1c67 0 144 3 210 4l209 4c9 0 26 0 35 1zM985 1792l77 2c18 -23 36 -49 53 -81l167 -278l-19 -29l-215 7c-8 0 -17 1 -24 1h-20c-81 0 -99 0 -161 71l-257 294c0 0 1 0 1 2l1 1c89 0 176 7 263 7zM382 1821l27 -9v-20h-5c-4 0 -8 0 -22 29zM605 1406l-10 -10
c0 1 2 4 2 5l5 6c1 -1 1 -1 3 -1zM-78 1782l1 -1h-2z" />
    <glyph glyph-name="uni0212" unicode="&#x212;" horiz-adv-x="1561" 
d="M1542 122c8 -45 16 -90 28 -130l-4 -3c-124 -8 -241 -11 -369 -11c-66 0 -125 2 -190 5h-6c-25 0 -53 184 -66 295l-5 43c-6 151 -48 186 -158 186c-4 0 -9 -1 -13 -1h-53v-304c0 -10 1 -21 1 -32v-183c-2 -6 -8 -11 -15 -12c-192 -7 -383 -2 -575 -5c-3 1 -5 2 -6 2
s-2 -1 -2 -1c-2 0 -3 1 -6 3l2 90c0 10 -1 20 -1 30c0 138 4 276 4 415v73c0 24 1 49 1 75l1 259c0 11 1 21 1 34c0 74 -3 148 -3 227c0 105 4 211 4 319c0 7 25 8 57 8c16 0 40 -1 64 -1h61c41 0 85 -1 127 -1l138 2c107 0 214 3 321 3c62 0 123 -1 185 -4
c299 -8 456 -146 456 -384c0 -173 -108 -284 -286 -369c295 -93 272 -397 297 -577zM1576 -5l-5 -3v2c0 1 2 1 5 1zM1571 -8v-1s-1 0 -1 1h1zM929 1178c-51 22 -106 26 -160 26h-58c-10 -15 -11 -56 -11 -118c0 -83 0 -203 5 -255c136 3 313 38 313 216
c0 72 -40 108 -89 131zM376 1507l-12 15l-11 16c15 67 36 142 72 199c72 114 222 166 364 166c143 0 303 -75 381 -203c21 -44 42 -115 54 -166c-2 -7 -11 -8 -21 -8h-8c-2 0 -5 1 -7 1l-277 -6c-6 5 -10 14 -12 21l-7 19h1c-12 39 -26 84 -95 84c-122 0 -62 -128 -162 -128
c-44 0 -90 -5 -134 -5l-92 -3c-14 -1 -23 -3 -31 -2h-3zM384 1475l-27 16l4 17c1 0 16 -1 20 -1z" />
    <glyph glyph-name="uni0213" unicode="&#x213;" horiz-adv-x="1186" 
d="M1086 1238h37v-558c-17 4 -35 5 -52 5c-282 0 -317 -215 -317 -396c0 -35 2 -80 2 -105v-184c-124 0 -236 -1 -356 -1h-355c0 204 -1 396 -1 597v601c94 0 174 1 266 1h266l11 -67v1l11 -68c8 -49 17 -112 27 -160h35c21 97 65 190 142 243l40 23c5 9 22 15 36 22l-4 -1
l23 9c53 21 110 39 169 40c8 0 15 0 20 -2zM188 1387l-12 15l-11 16c15 67 36 142 72 199c72 114 222 166 364 166c143 0 303 -75 381 -203c21 -44 42 -115 54 -166c-2 -7 -11 -8 -21 -8h-8c-2 0 -5 1 -7 1l-277 -6c-6 5 -10 14 -12 21l-7 19h1c-12 39 -26 84 -95 84
c-122 0 -62 -128 -162 -128c-44 0 -90 -5 -134 -5l-92 -3c-14 -1 -23 -3 -31 -2h-3zM196 1355l-27 16l4 17c1 0 16 -1 20 -1z" />
    <glyph glyph-name="uni0214" unicode="&#x214;" horiz-adv-x="1615" 
d="M833 -62c-328 0 -693 129 -729 555c3 251 5 513 5 773c-1 0 -5 54 -5 116c0 48 1 97 9 119h21c129 7 264 8 401 8c32 -8 88 -3 131 -8l31 -4c5 -146 8 -389 9 -545l-3 -202c0 -70 -3 -118 -3 -200c0 -85 12 -200 116 -200c68 0 115 72 118 140l4 10l3 337c0 10 1 20 1 30
c0 144 -2 304 -6 448l-2 73c-1 22 -2 46 -2 70c0 26 4 49 11 57c201 0 386 0 582 -3l5 -4l-4 3c4 -6 9 -8 17 -12h-1l11 -7c-7 -165 -8 -320 -8 -486v-172c0 -19 1 -38 1 -59c0 -93 -3 -188 -3 -281c0 -444 -367 -556 -710 -556zM591 1911h12c4 0 8 1 12 1
c14 -15 30 -41 44 -64v1l11 -22v1l45 -79c37 -65 78 -128 118 -191l-10 -17c-2 -2 -3 -6 -5 -8l-4 -6c-7 2 -15 3 -22 3l-167 -4c-48 7 -60 1 -99 7c-7 -1 -16 -2 -23 -2c-51 0 -68 19 -92 49l-25 32l-249 289v1c67 0 144 3 210 4l209 4c9 0 26 0 35 1zM1199 1912l77 2
c18 -23 36 -49 53 -81l167 -278l-19 -29l-215 7c-8 0 -17 1 -24 1h-20c-81 0 -99 0 -161 71l-257 294c0 0 1 0 1 2l1 1c89 0 176 7 263 7zM596 1941l27 -9v-20h-5c-4 0 -8 0 -22 29zM819 1526l-10 -10c0 1 2 4 2 5l5 6c1 -1 1 -1 3 -1zM136 1902l1 -1h-2z" />
    <glyph glyph-name="uni0215" unicode="&#x215;" horiz-adv-x="1538" 
d="M762 363c62 0 61 78 61 108v724c112 0 221 1 329 1h326c0 -397 1 -798 1 -1195h-560l-47 162c-95 -146 -226 -199 -351 -199c-129 0 -230 32 -323 110l1 7c-25 7 -68 69 -80 91c-56 102 -65 229 -65 347c0 11 1 22 1 32v644h318c106 0 208 1 318 1v-96
c0 -205 -2 -426 -2 -635c0 -52 15 -102 73 -102zM553 1791h12c4 0 8 1 12 1c14 -15 30 -41 44 -64v1l11 -22v1l45 -79c37 -65 78 -128 118 -191l-10 -17c-2 -2 -3 -6 -5 -8l-4 -6c-7 2 -15 3 -22 3l-167 -4c-48 7 -60 1 -99 7c-7 -1 -16 -2 -23 -2c-51 0 -68 19 -92 49
l-25 32l-249 289v1c67 0 144 3 210 4l209 4c9 0 26 0 35 1zM1161 1792l77 2c18 -23 36 -49 53 -81l167 -278l-19 -29l-215 7c-8 0 -17 1 -24 1h-20c-81 0 -99 0 -161 71l-257 294c0 0 1 0 1 2l1 1c89 0 176 7 263 7zM558 1821l27 -9v-20h-5c-4 0 -8 0 -22 29zM781 1406
l-10 -10c0 1 2 4 2 5l5 6c1 -1 1 -1 3 -1zM98 1782l1 -1h-2z" />
    <glyph glyph-name="uni0216" unicode="&#x216;" horiz-adv-x="1615" 
d="M833 -62c-328 0 -693 129 -729 555c3 251 5 513 5 773c-1 0 -5 54 -5 116c0 48 1 97 9 119h21c129 7 264 8 401 8c32 -8 88 -3 131 -8l31 -4c5 -146 8 -389 9 -545l-3 -202c0 -70 -3 -118 -3 -200c0 -85 12 -200 116 -200c68 0 115 72 118 140l4 10l3 337c0 10 1 20 1 30
c0 144 -2 304 -6 448l-2 73c-1 22 -2 46 -2 70c0 26 4 49 11 57c201 0 386 0 582 -3l5 -4l-4 3c4 -6 9 -8 17 -12h-1l11 -7c-7 -165 -8 -320 -8 -486v-172c0 -19 1 -38 1 -59c0 -93 -3 -188 -3 -281c0 -444 -367 -556 -710 -556zM403 1507l-12 15l-11 16
c15 67 36 142 72 199c72 114 222 166 364 166c143 0 303 -75 381 -203c21 -44 42 -115 54 -166c-2 -7 -11 -8 -21 -8h-8c-2 0 -5 1 -7 1l-277 -6c-6 5 -10 14 -12 21l-7 19h1c-12 39 -26 84 -95 84c-122 0 -62 -128 -162 -128c-44 0 -90 -5 -134 -5l-92 -3
c-14 -1 -23 -3 -31 -2h-3zM411 1475l-27 16l4 17c1 0 16 -1 20 -1z" />
    <glyph glyph-name="uni0217" unicode="&#x217;" horiz-adv-x="1538" 
d="M762 363c62 0 61 78 61 108v724c112 0 221 1 329 1h326c0 -397 1 -798 1 -1195h-560l-47 162c-95 -146 -226 -199 -351 -199c-129 0 -230 32 -323 110l1 7c-25 7 -68 69 -80 91c-56 102 -65 229 -65 347c0 11 1 22 1 32v644h318c106 0 208 1 318 1v-96
c0 -205 -2 -426 -2 -635c0 -52 15 -102 73 -102zM364 1387l-12 15l-11 16c15 67 36 142 72 199c72 114 222 166 364 166c143 0 303 -75 381 -203c21 -44 42 -115 54 -166c-2 -7 -11 -8 -21 -8h-8c-2 0 -5 1 -7 1l-277 -6c-6 5 -10 14 -12 21l-7 19h1c-12 39 -26 84 -95 84
c-122 0 -62 -128 -162 -128c-44 0 -90 -5 -134 -5l-92 -3c-14 -1 -23 -3 -31 -2h-3zM372 1355l-27 16l4 17c1 0 16 -1 20 -1z" />
    <glyph glyph-name="uni0218" unicode="&#x218;" horiz-adv-x="1333" 
d="M619 1102c0 -70 94 -93 159 -110l35 -9c61 -19 172 -37 292 -76v1c201 -68 368 -176 368 -430c0 -425 -426 -511 -737 -541c-222 0 -521 61 -605 230c-60 86 -68 144 -78 247c3 -1 6 -1 9 -1c181 0 351 9 529 9c50 0 20 -136 175 -136c72 0 147 42 147 126
c0 92 -118 117 -215 138h1c-8 3 -24 3 -35 7h2l-57 15c-34 6 -56 10 -92 22c-314 84 -452 200 -452 422c0 412 391 542 725 542c149 0 328 -26 451 -104h-1c149 -108 181 -200 193 -331l-26 -26c-158 -6 -301 -10 -466 -10c-124 0 -26 102 -174 102h-4
c-27 0 -141 -17 -144 -87zM856 -711c-18 -60 -41 -122 -62 -180l-2 -4c-16 -13 -111 -17 -204 -17c-15 0 -29 1 -42 1h-189l-19 20c33 137 128 624 159 646c17 2 40 2 58 2h158c12 0 37 0 55 1h-1c30 1 63 2 97 2c72 0 137 -3 137 -12v-4c-27 -81 -54 -160 -79 -242l-17 -56
c-9 -31 -19 -62 -30 -94z" />
    <glyph glyph-name="uni0219" unicode="&#x219;" horiz-adv-x="1181" 
d="M222 112l-20 12c-115 92 -153 205 -166 326c0 1 1 4 2 4c6 0 22 -3 38 -3c3 0 9 0 13 1h53c20 0 58 0 81 1h10c11 0 23 0 32 -1c62 3 139 3 207 3h46c54 -9 21 -124 160 -124h6c60 1 116 28 120 102c0 92 -181 113 -284 146l-62 16h1c-278 82 -411 203 -411 392
c0 228 191 385 406 437c73 15 147 19 227 19c116 0 245 -19 346 -58c73 -34 111 -64 137 -97l36 -40c48 -54 64 -124 71 -195l-24 -26l1 -2l-160 -1h-22c-60 0 -121 3 -180 3h-6c-33 0 -43 -1 -60 32c-19 37 -45 52 -144 52c-17 0 -120 -8 -120 -67c0 -75 140 -73 176 -98
l41 -12c197 -48 531 -131 531 -438c0 -403 -365 -463 -658 -485c-121 5 -323 26 -424 101zM1248 1025h18l-8 -12zM1259 1012l-2 -1zM778 -731c-18 -60 -41 -122 -62 -180l-2 -4c-16 -13 -111 -17 -204 -17c-15 0 -29 1 -42 1h-189l-19 20c33 137 128 624 159 646
c17 2 40 2 58 2h158c12 0 37 0 55 1h-1c30 1 63 2 97 2c72 0 137 -3 137 -12v-4c-27 -81 -54 -160 -79 -242l-17 -56c-9 -31 -19 -62 -30 -94z" />
    <glyph glyph-name="uni021A" unicode="&#x21a;" horiz-adv-x="1318" 
d="M1334 1106c-1 -3 -2 -4 -4 -4c-120 0 -237 3 -362 3c-2 -97 -2 -210 -2 -304c0 -74 0 -205 1 -285l4 -530c-3 -8 -10 -14 -20 -15c-75 0 -142 3 -211 3l-1 -1c-23 0 -45 1 -66 1h-183c-37 0 -74 0 -111 -1l-17 15c-6 6 -9 11 -13 16c0 132 4 261 7 391l2 80
c0 151 9 301 9 452l-2 25c-9 121 -3 139 -67 139c-15 0 -32 -2 -40 -2l-248 4c-9 18 -13 67 -13 117c0 32 2 63 2 88v27s-1 160 -3 171c0 0 2 0 8 -2c431 0 850 11 1273 11c55 0 59 -7 59 -26v-264c0 -26 1 -53 1 -80c0 -10 -1 -19 -3 -29zM854 -711
c-18 -60 -41 -122 -62 -180l-2 -4c-16 -13 -111 -17 -204 -17c-15 0 -29 1 -42 1h-189l-19 20c33 137 128 624 159 646c17 2 40 2 58 2h158c12 0 37 0 55 1h-1c30 1 63 2 97 2c72 0 137 -3 137 -12v-4c-27 -81 -54 -160 -79 -242l-17 -56c-9 -31 -19 -62 -30 -94z" />
    <glyph glyph-name="uni021B" unicode="&#x21b;" horiz-adv-x="1042" 
d="M928 370c8 0 17 -1 27 -1s19 1 27 3c0 -127 1 -246 1 -373h-547c-14 0 -30 -2 -34 -2h-11c-6 0 -10 0 -17 2c-203 50 -205 200 -205 349v554h-118c0 51 -1 90 -1 140v143h115v331h309c103 0 202 1 309 1l1 -330h167c0 -52 1 -92 1 -143v-142h-163v-404c0 -4 -1 -9 -1 -15
c0 -78 3 -113 140 -113zM716 -711c-18 -60 -41 -122 -62 -180l-2 -4c-16 -13 -111 -17 -204 -17c-15 0 -29 1 -42 1h-189l-19 20c33 137 128 624 159 646c17 2 40 2 58 2h158c12 0 37 0 55 1h-1c30 1 63 2 97 2c72 0 137 -3 137 -12v-4c-27 -81 -54 -160 -79 -242l-17 -56
c-9 -31 -19 -62 -30 -94z" />
    <glyph glyph-name="circumflex" unicode="&#x2c6;" horiz-adv-x="710" 
d="M259 1410h-267h-11c-16 0 -32 -3 -49 -3c-27 0 -57 3 -57 12c0 1 0 2 1 6l11 17c53 77 110 157 170 236l22 35c34 55 46 57 341 62l177 3c20 -8 54 -61 83 -103v1l62 -92c15 -23 32 -45 47 -65l20 -28c21 -30 48 -61 48 -76c0 -6 -8 -10 -27 -10c-4 0 -7 1 -11 1h-62
c-105 0 -196 -7 -295 -7c-33 17 -46 50 -64 86l-30 60c-41 -37 -83 -135 -109 -135z" />
    <glyph glyph-name="caron" unicode="&#x2c7;" horiz-adv-x="710" 
d="M436 1713v-1c11 25 25 43 37 60h55c20 0 41 -1 62 -1h258c2 0 3 -1 3 -3c0 -18 -34 -63 -58 -95l-134 -198c-26 -46 -43 -76 -148 -76l-173 -2c-24 0 -49 -2 -74 -3c-4 0 -9 1 -13 1c-37 0 -78 -2 -118 -2l-20 17l-171 250l-21 29c-22 30 -48 68 -49 80c0 3 5 9 11 13
c108 0 204 -9 311 -9h12c48 -1 71 -10 104 -67l54 -99c31 41 47 68 63 93v-1c3 4 6 8 9 14zM453 1789l19 7l9 -14l-9 -10h-15z" />
    <glyph glyph-name="breve" unicode="&#x2d8;" horiz-adv-x="683" 
d="M-112 1756l35 48c10 -4 15 -4 21 -4h12c4 0 7 2 13 2l91 -4c20 -1 45 -2 67 -3h5c134 -6 128 4 149 -67c9 -32 28 -62 75 -62c53 0 66 37 76 68h-1c7 20 15 42 34 55c52 -3 103 -3 155 -4l133 -2c2 0 4 1 8 1c22 0 39 -2 41 -30c-13 -56 -31 -124 -56 -173
c-81 -137 -250 -213 -399 -213c-146 0 -303 57 -380 175c-38 63 -64 145 -79 213zM-77 1801v-1l2 -2v3h-2z" />
    <glyph glyph-name="dotaccent" unicode="&#x2d9;" horiz-adv-x="655" 
d="M167 1512h73c92 0 184 -4 272 -7c4 -2 4 -13 4 -25c0 -3 -1 -6 -1 -9l3 -121c1 -32 1 -78 2 -99v-31c0 -25 0 -45 -1 -70v3c-3 -12 -45 -13 -88 -13h-39c-4 0 -8 1 -12 1l-211 -6c-8 8 -7 10 -11 18l-11 16s-2 3 -2 4c0 23 3 41 4 64l3 51c4 65 -1 213 15 224z" />
    <glyph glyph-name="ring" unicode="&#x2da;" horiz-adv-x="598" 
d="M298 1977c152 0 293 -119 293 -282c0 -165 -138 -284 -283 -284c-175 0 -275 143 -296 278c0 1 1 0 2 2c17 137 102 286 284 286zM302 1830c-63 0 -126 -42 -141 -122c0 -99 82 -148 144 -148c67 0 131 45 131 135c0 89 -67 135 -134 135z" />
    <glyph glyph-name="ogonek" unicode="&#x2db;" horiz-adv-x="633" 
d="M621 -307l7 3h2c5 1 8 1 12 1c22 0 49 -109 49 -160c-2 -39 -192 -66 -287 -66c-158 0 -294 55 -294 209c0 169 162 307 307 342c14 -1 25 -1 37 -1l173 -3c8 0 37 -19 37 -30l-12 -29l-13 1c-87 -54 -213 -131 -213 -219c0 -50 45 -65 98 -65c28 0 59 6 86 14l4 7l3 -5
c2 1 2 1 4 1z" />
    <glyph glyph-name="tilde" unicode="&#x2dc;" horiz-adv-x="699" 
d="M518 1751l23 19l253 -7c5 -2 10 -11 13 -15c-16 -251 -128 -344 -284 -344c-43 0 -92 9 -142 21l-31 9h1l-28 9c-48 15 -105 33 -140 34c-36 0 -39 -27 -44 -49c0 -12 -197 -12 -232 -12h-27c-3 3 -6 10 -6 18c0 235 111 341 296 341c56 0 125 -20 186 -37v1
c31 -11 61 -19 87 -26l30 -6c1 0 4 0 14 -10l25 28c2 7 5 18 6 26zM479 1745l9 10l7 -17z" />
    <glyph glyph-name="hungarumlaut" unicode="&#x2dd;" horiz-adv-x="774" 
d="M-23 1794l79 -2l134 -3c85 0 163 -8 264 -8v1v-4l-256 -292c-55 -60 -89 -72 -163 -72h-19c-7 0 -15 -1 -23 -1l-215 -7l-17 26c0 1 -2 2 -2 3l167 278l4 10v-1c13 25 30 52 47 72zM356 1407l-3 6l1 -1l-6 10l1 -1l-10 17c55 88 105 166 158 259l11 22l-2 -3l5 8v-1
c13 25 31 55 45 69c4 0 6 -1 11 -1h12c10 -1 26 -1 36 -1l210 -4c65 -1 144 -4 209 -4l-130 -153l-81 -92l-55 -66c-12 -14 -23 -32 -32 -44c-2 7 -7 22 -8 33c-45 -8 -106 -17 -151 -22l-198 -28c-8 0 -18 -1 -23 -3zM544 1810l36 4c-11 -11 -22 -22 -33 -22zM737 1425
c0 -13 -7 -14 -9 -14c-1 0 -1 0 -1 1c0 2 3 8 9 15c0 -1 1 -2 1 -2zM1034 1782l4 5c0 -4 0 -6 -1 -6s-1 1 -2 1h-1z" />
    <glyph glyph-name="uni030F" unicode="&#x30f;" horiz-adv-x="782" 
d="M214 1791h12c4 0 8 1 12 1c14 -15 30 -41 44 -64v1l11 -22v1l45 -79c37 -65 78 -128 118 -191l-10 -17c-2 -2 -3 -6 -5 -8l-4 -6c-7 2 -15 3 -22 3l-167 -4c-48 7 -60 1 -99 7c-7 -1 -16 -2 -23 -2c-51 0 -68 19 -92 49l-25 32l-249 289v1c67 0 144 3 210 4l209 4
c9 0 26 0 35 1zM822 1792l77 2c18 -23 36 -49 53 -81l167 -278l-19 -29l-215 7c-8 0 -17 1 -24 1h-20c-81 0 -99 0 -161 71l-257 294c0 0 1 0 1 2l1 1c89 0 176 7 263 7zM219 1821l27 -9v-20h-5c-4 0 -8 0 -22 29zM442 1406l-10 -10c0 1 2 4 2 5l5 6c1 -1 1 -1 3 -1z
M-241 1782l1 -1h-2z" />
    <glyph glyph-name="uni0311" unicode="&#x311;" horiz-adv-x="683" 
d="M-66 1387l-12 15l-11 16c15 67 36 142 72 199c72 114 222 166 364 166c143 0 303 -75 381 -203c21 -44 42 -115 54 -166c-2 -7 -11 -8 -21 -8h-8c-2 0 -5 1 -7 1l-277 -6c-6 5 -10 14 -12 21l-7 19h1c-12 39 -26 84 -95 84c-122 0 -62 -128 -162 -128
c-44 0 -90 -5 -134 -5l-92 -3c-14 -1 -23 -3 -31 -2h-3zM-58 1355l-27 16l4 17c1 0 16 -1 20 -1z" />
    <glyph glyph-name="uni0326" unicode="&#x326;" horiz-adv-x="735" 
d="M526 -711c-18 -60 -41 -122 -62 -180l-2 -4c-16 -13 -111 -17 -204 -17c-15 0 -29 1 -42 1h-189l-19 20c33 137 128 624 159 646c17 2 40 2 58 2h158c12 0 37 0 55 1h-1c30 1 63 2 97 2c72 0 137 -3 137 -12v-4c-27 -81 -54 -160 -79 -242l-17 -56
c-9 -31 -19 -62 -30 -94z" />
    <glyph glyph-name="uni03A9" unicode="&#x3a9;" horiz-adv-x="1851" 
d="M65 316c0 8 8 16 15 20h288c-188 168 -273 328 -273 511s68 372 231 501c152 145 378 203 596 203c287 0 531 -89 706 -292v1c101 -124 143 -252 143 -382c0 -196 -111 -389 -321 -559c103 0 230 3 328 3c15 0 17 -13 17 -28c0 -7 0 -14 -1 -21v-11c0 -3 -1 -7 -1 -11
v-77c0 -67 0 -171 7 -185l-5 5c-152 -15 -307 -21 -474 -21c-109 0 -213 2 -319 10c0 0 1 1 1 2v58c0 29 -1 42 -1 82c0 36 -1 102 -4 105c199 140 291 281 291 532c0 201 -94 432 -340 432c-220 0 -364 -169 -364 -417c0 -166 60 -354 192 -466c24 -21 91 -54 104 -68
c0 -73 3 -180 3 -263l-10 3c6 0 6 1 6 1l-803 -16c-11 8 -15 32 -15 59c0 102 3 192 3 289zM1802 -13l-2 2c0 -1 1 -2 2 -2zM890 -22l-3 1z" />
    <glyph glyph-name="pi" unicode="&#x3c0;" horiz-adv-x="1587" 
d="M1587 837l-27 -24c-4 0 -3 -1 -6 -1h-10c-30 -1 -81 -4 -114 -7c-3 -150 -5 -318 -5 -469c0 -114 4 -232 26 -346c-1 -10 -6 -19 -17 -24c-95 1 -201 3 -296 6l-148 4h3c-52 13 -56 207 -56 293c0 170 2 331 5 501v20c0 9 1 27 1 32l-224 8c-12 -248 -41 -522 -102 -755
l-6 -24v1c-7 -30 -19 -66 -27 -72c-152 0 -304 5 -451 11c67 260 118 525 119 787c0 24 -8 39 -26 44c-66 0 -128 -6 -189 -18c-20 7 -41 175 -49 257l-2 20c0 88 338 102 475 102c92 4 184 8 277 8c166 0 331 -4 497 -4c121 0 250 2 370 9c8 -1 15 -8 17 -16
c-12 -56 -10 -108 -15 -163l-11 -109c0 -10 -3 -43 -9 -71zM108 6l23 15v-30h2c-1 -1 -2 -3 -2 -5v-26c-25 24 -33 35 -33 41c0 4 5 4 10 5z" />
    <glyph glyph-name="endash" unicode="&#x2013;" horiz-adv-x="1054" 
d="M1066 378h-3l-202 -3c-280 0 -562 -16 -851 -16h-1c-15 12 -24 21 -24 56c0 31 1 61 2 92v-1c1 12 1 27 1 45c0 26 -1 56 -1 84c0 54 2 102 13 102c139 0 293 -4 435 -4c155 0 334 1 492 5l45 1c13 0 40 2 59 2c16 0 38 -5 43 -11c4 -108 7 -217 7 -325
c0 -14 -2 -27 -15 -27z" />
    <glyph glyph-name="emdash" unicode="&#x2014;" horiz-adv-x="2046" 
d="M2097 526l-3 -139c-2 -2 -7 -5 -10 -6c-249 7 -489 8 -749 8h-47c-373 0 -770 -13 -1142 -25l-74 -3c-22 -1 -46 -2 -68 -2l-11 15c-3 3 -8 9 -11 17c0 102 1 333 -6 343c5 0 9 -2 16 -5h398c264 0 530 4 795 6l779 3c32 0 97 1 130 1c5 -3 7 -14 7 -26
c0 -39 -1 -84 -2 -116v1c-1 -15 -2 -52 -2 -72z" />
    <glyph glyph-name="quoteleft" unicode="&#x2018;" horiz-adv-x="727" 
d="M526 880h-2c-93 -5 -183 -6 -275 -6h-102c-15 0 -31 1 -48 1h-40c-12 18 -14 25 -21 42c33 79 57 155 87 231l55 151v-1l93 230c11 5 59 6 168 6c108 0 240 -3 240 -15c-1 -77 -42 -204 -61 -295l-10 -48c-24 -114 -57 -296 -84 -296z" />
    <glyph glyph-name="quoteright" unicode="&#x2019;" horiz-adv-x="725" 
d="M567 1167c-32 -89 -62 -177 -95 -261c-37 -29 -125 -33 -201 -33h-91c-5 0 -9 -1 -13 -1h-39h-29c-21 0 -47 1 -54 8l-10 14c4 20 10 37 14 57l38 140c-4 1 -11 4 -18 7c22 57 128 342 141 429c12 1 23 1 32 1h166c38 0 80 2 127 2c75 0 153 -2 153 -11
c-2 -4 -2 -8 -2 -11c-24 -58 -40 -116 -62 -177l-29 -81c-10 -27 -19 -56 -28 -83zM483 916l-17 -28l6 18c4 3 8 6 11 10zM485 919l-2 -3z" />
    <glyph glyph-name="quotesinglbase" unicode="&#x201a;" horiz-adv-x="729" 
d="M197 421c1 0 1 1 3 1h102c19 0 36 -1 54 -1h134c13 0 28 1 43 1c73 0 156 -2 156 -11v-12l1 3c-71 -209 -147 -426 -224 -615c-23 -15 -120 -21 -212 -21h-113c-16 0 -26 -2 -40 -2h-34c-4 0 -11 3 -14 4l-3 7c-4 3 -11 12 -16 17c54 230 105 425 163 629zM195 419
l-16 11l17 -9c0 -1 -1 -1 -1 -2z" />
    <glyph glyph-name="quotedblleft" unicode="&#x201c;" horiz-adv-x="1213" 
d="M1161 881c-104 -5 -208 -6 -312 -6h-44c-14 0 -28 1 -42 1h-71l-17 24l147 410v-1c10 21 17 44 24 65h-1c19 58 44 127 73 161c100 -7 190 -9 290 -12c36 0 70 1 105 3c0 -2 1 -16 2 -21l-61 -272c-21 -125 -65 -352 -93 -352zM486 882h-99l-195 -6
c-63 0 -117 -4 -179 -5c-6 14 -12 23 -18 37l56 149c31 84 55 167 91 253v-1l17 41c21 64 58 165 75 178h155c115 0 244 0 244 -1c0 -41 -15 -101 -30 -158v1c-10 -31 -18 -66 -23 -97c-22 -130 -66 -391 -94 -391z" />
    <glyph glyph-name="quotedblright" unicode="&#x201d;" horiz-adv-x="1216" 
d="M1171 1066l-25 -74c-12 -35 -26 -67 -40 -102l-3 -8v1c-8 -14 -124 -16 -234 -16c-17 0 -33 1 -48 1h-125c-6 6 -12 14 -18 21l46 185v-1c10 37 19 82 28 128c0 1 1 6 2 8c23 107 47 234 90 311c2 5 3 10 6 14c61 -2 112 -3 175 -3h66c96 0 236 -1 236 -15l-60 -177z
M482 1057l-26 -86c-17 -51 -29 -87 -36 -87l-6 3c-137 -7 -269 -11 -401 -12l-9 10l2 -2l-10 17s0 1 -1 1c40 144 131 622 171 628c31 1 66 2 103 2h18c6 0 13 -1 21 -1h159c82 0 178 0 178 3v-1c-59 -157 -112 -317 -163 -475z" />
    <glyph glyph-name="quotedblbase" unicode="&#x201e;" horiz-adv-x="1217" 
d="M751 432l62 -2c28 -3 55 -4 81 -4c21 0 42 1 63 1h-1c79 -5 280 1 280 -20v-9c-47 -142 -100 -280 -150 -417l-73 -201c-13 -12 -90 -17 -161 -17c-11 0 -21 1 -30 1h-70c-49 0 -99 -2 -148 -2l-20 23c30 97 60 205 80 311c4 34 42 266 87 336zM94 196
c19 80 50 216 66 228h71s48 1 111 1c118 0 300 -1 305 -6c-1 -3 -2 -3 -2 -5v2l-110 -328l-47 -130c-3 -11 -6 -13 -9 -24l1 1c-28 -66 -47 -159 -63 -159c-1 0 -3 1 -5 2l-341 -15c-13 -1 -22 -1 -32 -1h-25l-18 22c20 84 44 167 65 253c0 7 2 16 2 23zM-5 -221l-3 9l4 -4
c-1 -1 -1 -3 -1 -5z" />
    <glyph glyph-name="dagger" unicode="&#x2020;" horiz-adv-x="1516" 
d="M1069 865h-62l-9 -34l1 1l-5 -13c0 -267 4 -536 4 -832c-2 -8 -9 -18 -16 -18h-150c-18 0 -35 1 -51 1c-74 0 -144 -1 -216 -5c-19 20 -24 33 -24 73c0 257 7 506 7 767v47c-24 0 -61 1 -87 1h-211c-40 0 -45 17 -45 44c0 10 1 21 1 34v13c0 15 -1 32 -2 47v-1
c-1 27 -2 54 -2 81c0 78 3 141 23 141c93 0 186 -7 280 -7c11 0 22 0 47 7c0 85 4 167 4 250v7c0 3 -1 7 -1 11v16c1 10 3 23 7 29l327 -3c21 0 43 3 59 3c25 0 42 -11 42 -72v-67c0 -11 -1 -22 -1 -34v-147c100 0 208 6 311 6c30 0 30 -6 30 -18v-4c0 -99 4 -193 4 -288
v-32c-6 -11 -30 -13 -52 -13h-70c-48 0 -93 5 -143 9z" />
    <glyph glyph-name="daggerdbl" unicode="&#x2021;" horiz-adv-x="1516" 
d="M1341 289c0 -28 -1 -52 -14 -55h3c-25 -1 -49 -2 -73 -2h-78c-58 0 -134 -3 -191 -7v-54c0 -48 2 -93 2 -138c0 -63 -10 -68 -83 -68c-24 0 -57 1 -95 1h-117c-10 0 -21 -1 -32 -1h-82c-26 39 -27 66 -27 111l-1 147c-110 0 -218 4 -334 4c-13 12 -17 61 -17 104
c0 36 3 81 3 116c0 11 -1 27 -1 44c0 37 2 79 14 84c109 0 225 -4 345 -4v141c0 70 2 161 7 230h-65c-37 0 -72 -3 -109 -3c-4 0 -7 1 -7 5h-60c-7 0 -15 -1 -22 -1c-43 0 -90 2 -90 16v306c0 4 2 7 4 9c95 0 237 -7 349 -7c0 81 3 153 3 226c0 21 5 26 27 28
c49 5 96 6 134 6c79 0 144 -5 217 -5c28 0 29 -10 29 -43c0 -4 -1 -7 -1 -10l-1 -63c0 -6 -1 -13 -1 -21v-21c0 -26 -2 -69 -2 -92c107 1 228 1 333 1h19v2c3 -86 5 -237 5 -324c-5 -5 -16 -7 -30 -7h-209c-24 0 -49 1 -73 1l-42 -8c5 -112 8 -249 8 -359
c46 -3 111 -6 157 -6h43c14 0 29 1 44 1h83c15 0 25 -2 25 -27v-101c0 -14 0 -36 1 -49v-20c0 -7 1 -14 1 -20v-54c0 -4 1 -9 1 -13zM380 920v20h10c1 -4 1 -7 1 -10c0 -7 -4 -10 -11 -10z" />
    <glyph glyph-name="bullet" unicode="&#x2022;" horiz-adv-x="1143" 
d="M578 1141c211 0 408 -170 408 -398c0 -229 -188 -396 -400 -396c-253 0 -391 196 -413 384l3 3c19 197 145 407 402 407zM149 731l7 17l17 -4v-13l-9 -10z" />
    <glyph glyph-name="ellipsis" unicode="&#x2026;" horiz-adv-x="2075" 
d="M2016 198v-15c0 -6 -1 -12 -1 -18v-30c0 -49 1 -99 2 -147c-13 -19 -157 -22 -268 -22c-61 0 -111 2 -134 2h-8c-29 0 -59 -2 -91 -2c-5 6 -9 12 -13 15h2l-11 19v6c-1 22 -2 41 -2 64c0 113 4 226 11 339c0 12 89 13 148 13c67 0 119 -3 203 -3c39 -3 136 -2 161 -12
v-153c0 -18 1 -37 1 -56zM1503 -19l-17 -5c0 6 2 9 6 9c3 0 7 -1 11 -4zM1310 157c0 -56 0 -113 5 -165c-28 -19 -213 -26 -326 -26c-25 0 -47 1 -62 1h-26c-29 0 -60 -1 -89 -1l-23 32c-1 20 -1 34 -1 57c0 116 5 238 10 355c0 9 156 10 261 10c16 0 30 -1 42 -1h105
c44 0 93 -3 104 -12v-250zM612 102v-69c0 -4 1 -9 1 -13c0 -20 0 -38 -3 -38s-6 1 -7 1c-164 -10 -325 -18 -494 -18l-23 36c-2 9 -2 16 -2 24c0 33 4 66 4 104v54c0 85 2 221 14 234c117 -1 232 -2 354 -2h46c7 0 15 1 23 1c40 0 81 -1 81 -9l3 -153c1 -46 0 -102 3 -152z
" />
    <glyph glyph-name="perthousand" unicode="&#x2030;" horiz-adv-x="2656" 
d="M1129 379c16 243 96 452 350 452c294 0 347 -247 347 -446c0 -294 -142 -449 -342 -449c-265 0 -356 200 -356 422c0 6 0 13 1 21zM35 1004l1 3c3 232 86 448 348 448c269 0 342 -229 342 -442c0 -83 -12 -189 -43 -266c-64 -117 -189 -191 -308 -191
c-270 0 -345 242 -345 425c1 8 3 18 5 23zM1980 380l2 -10c13 285 126 463 350 463c289 0 340 -274 340 -469c0 -81 -14 -172 -45 -250c-56 -109 -184 -176 -305 -176c-259 0 -343 233 -343 432v5c0 3 1 4 1 5zM642 -72l-1 -2v-1c-9 -16 -65 -17 -113 -17
c-37 0 -63 -1 -100 3c-1 5 -8 25 -11 34l-5 18c8 21 19 32 31 54l412 746l180 329l201 366c2 3 13 3 28 3c14 0 30 -1 47 -1h50c21 0 38 4 55 4c16 0 28 -7 35 -34l-378 -698l-12 -22l-349 -651zM1485 667l-5 -1c-117 -6 -121 -179 -121 -272v-47c4 -102 8 -248 125 -248
c95 0 109 110 109 193c0 19 -2 53 -2 69v64c0 8 1 17 1 24v21c0 71 -9 197 -107 197zM388 1286c-130 0 -125 -186 -125 -279v-4c0 -4 0 -4 1 -7l1 -60c2 -102 16 -216 118 -216c98 0 109 114 109 192c0 7 -1 14 -1 22v65c0 14 3 63 3 107c0 86 -15 180 -106 180zM2331 665
l-6 -1c-118 -9 -106 -180 -114 -273v-8c0 -2 1 -4 1 -5l1 -61c1 -95 6 -219 121 -219c104 0 106 135 106 198c0 9 -1 17 -1 27v62c0 23 2 51 2 73v24c0 88 -21 183 -110 183zM641 -74h1l-1 -5v5zM427 -89l1 15v-16s-1 0 -1 1z" />
    <glyph glyph-name="guilsinglleft" unicode="&#x2039;" horiz-adv-x="734" 
d="M523 524l14 -37l-2 -8c26 -67 59 -133 90 -203l36 -82l29 -57c25 -50 61 -117 61 -148c0 -8 -3 -12 -12 -12h-44c-5 0 -10 1 -14 1c-116 0 -213 -9 -332 -12h-14c-30 19 -65 85 -99 149v-1l-10 21l-91 149v-1l-6 9c-29 35 -130 173 -130 225c0 26 72 114 108 169l6 10
l-1 -1l73 118c50 89 121 216 155 226h-3c94 4 196 4 295 4h49c26 0 55 0 62 -7c-72 -164 -147 -332 -220 -512z" />
    <glyph glyph-name="guilsinglright" unicode="&#x203a;" horiz-adv-x="730" 
d="M215 514l-8 20h6l-121 287c-26 65 -92 171 -92 219c0 5 26 5 54 5h228c32 0 69 3 99 3c23 0 44 -7 65 -46l9 -17c30 -43 56 -91 84 -135h-1c33 -57 66 -116 102 -169l28 -42c30 -45 73 -104 73 -125c0 -14 -25 -55 -48 -90c-3 -3 -5 -1 -9 -13v1l-264 -423l-8 -4
c-2 0 -1 -1 -2 -1l-147 -2c-66 -5 -102 -6 -190 -6c-37 0 -72 1 -72 5c0 1 0 2 1 3zM179 550v9l18 3l4 -14l1 1l5 -15h-14c-12 1 -16 5 -16 10c0 2 1 4 2 6zM420 -11l17 9v-19l-20 5z" />
    <glyph glyph-name="fraction" unicode="&#x2044;" horiz-adv-x="551" 
d="M838 1578l8 -4h3c0 -2 -2 -1 -1 -1l-31 -59c-279 -512 -530 -1041 -823 -1594c-8 -12 -19 -24 -38 -26h-25c-3 0 -6 1 -9 1c-15 0 -29 -1 -42 -1h-118c-14 35 -22 56 -31 88c27 54 58 106 87 159l27 49c14 26 32 56 46 84l154 295l165 312l138 262l134 254l52 94v-2l7 16
c15 35 41 79 59 79h54c18 0 37 -1 55 -1h109c5 0 13 -3 20 -6v1z" />
    <glyph glyph-name="foursuperior" unicode="&#x2074;" horiz-adv-x="1307" 
d="M1202 417l-24 -24c0 -19 5 -93 5 -171c0 -66 -3 -87 -25 -87h-41c-5 0 -10 -1 -15 -1h-46c1 -43 2 -91 2 -131c0 -28 -2 -42 -26 -45c-47 1 -96 2 -143 2c-79 0 -156 0 -236 -5l-27 30c0 49 3 91 3 132v25c0 12 -13 15 -34 15c-30 0 -78 -11 -107 -20l-183 -2
c-29 0 -65 -2 -95 -2c-41 0 -61 -3 -78 27c0 110 0 184 5 260c56 142 127 251 209 377l-1 -1c9 15 21 31 31 46v-1l134 214l-2 -2l9 10c24 2 58 0 85 4l66 2c72 4 146 5 220 5h145l23 -5l2 -10l-2 1v-37c0 -131 -5 -258 -5 -390c0 -24 0 -58 1 -82v-5c0 -3 -1 -9 -1 -13v-12
c-1 -7 -1 -18 -1 -25c0 -29 4 -56 33 -56h45c5 0 11 1 16 1c24 0 33 -1 36 -26c6 1 15 2 22 2zM453 400h12c62 0 127 3 194 3c11 6 18 15 21 25c0 4 -1 10 -1 14v49c0 18 2 62 2 110c0 92 -4 203 -30 209c-7 -4 -13 -9 -15 -13l1 1l-53 -93l-36 -64l-114 -204
c0 -1 2 -4 2 -4l7 -17v1z" />
    <glyph glyph-name="Euro" unicode="&#x20ac;" horiz-adv-x="1444" 
d="M927 419l30 27l509 -8c9 -2 16 -10 19 -18c-12 -101 -22 -174 -76 -244c-122 -188 -375 -237 -579 -245c-60 3 -156 7 -213 26v-1l-61 22c-31 9 -32 10 -92 46l1 -1l-13 9c-168 85 -244 273 -294 441h-79c-8 0 -20 -1 -33 -1c-20 0 -40 2 -42 10l12 46
c15 58 38 137 51 150h64c0 7 1 26 1 35v74h-77c-22 0 -43 1 -49 5l56 194s1 2 2 2l100 3c54 209 193 423 403 488v-1l59 19h-1c70 17 181 24 240 24c192 0 365 -38 505 -195c73 -55 85 -130 97 -203l3 -14c-3 -2 -5 -4 -5 -5h-468c-42 33 -53 85 -157 85
c-119 0 -140 -96 -156 -160l-2 -35h197c62 0 125 1 186 1c7 -1 9 -4 10 -11c-10 -28 -51 -199 -59 -199c-3 0 -4 1 -5 1c-64 -3 -126 -6 -189 -6c-41 0 -102 1 -143 2v-103c41 3 102 7 143 7c5 0 10 -1 16 -1h52c25 0 61 1 87 2c7 -1 12 -5 12 -11c0 -1 0 -1 -1 -2l-55 -210
h-239c11 -86 46 -222 144 -222c74 0 82 94 89 177zM957 446l-28 1l4 17c19 1 36 1 45 1zM1022 789l21 32v-38l-22 2c0 1 0 3 1 4z" />
    <glyph glyph-name="trademark" unicode="&#x2122;" horiz-adv-x="2073" 
d="M1965 636c-11 0 -23 -1 -34 -1h-97c-106 0 -120 28 -120 164c0 38 2 77 2 118v45l-38 7l-18 -62c-24 -83 -54 -197 -74 -242c-15 -33 -65 -41 -118 -41c-19 0 -39 0 -59 1h1c-18 1 -36 2 -54 2c-40 37 -60 107 -76 171l-13 52l-33 109l-38 -6c-3 -86 -5 -222 -5 -307
c-9 -13 -57 -14 -94 -14h-27c-11 0 -22 -1 -32 -1h-59c-46 0 -61 2 -61 21v91c4 259 7 519 9 779c0 3 2 6 4 7c118 0 234 -1 349 -3c11 -2 35 -77 59 -157l33 -95c2 -15 16 -52 28 -89h-1l5 -16c13 -32 38 -124 51 -169l170 519c2 11 12 13 32 13h42c51 0 84 -2 129 -2h59
c42 0 91 0 94 6c0 -106 2 -222 5 -323l3 -125c3 -147 -2 -291 6 -438c-4 -11 -15 -14 -30 -14zM795 1373c0 -19 -2 -35 -10 -49l-2 -1h1c-64 2 -138 2 -210 6v-97c0 -8 -1 -17 -1 -26c0 -186 9 -367 11 -558c-10 -18 -86 -19 -146 -19h-57c-6 0 -10 -1 -15 -1h-41
c-7 0 -12 -1 -17 -1c-15 0 -23 26 -36 41v34c0 199 9 401 12 593v24c-11 0 -32 0 -42 -1h-9c-20 -1 -46 -3 -74 -3c-97 0 -95 10 -95 97v40c0 75 9 79 103 79c56 0 109 -3 165 -3c98 0 192 6 292 6c46 0 101 -2 149 -7c23 -6 22 -92 22 -154zM785 1324l15 6l2 -20
c-1 0 -27 -1 -28 -1c4 4 8 9 11 15z" />
    <glyph glyph-name="partialdiff" unicode="&#x2202;" horiz-adv-x="1456" 
d="M468 1292l73 263c31 3 54 3 84 3c200 0 499 -39 649 -259c121 -178 156 -390 156 -601c0 -217 -43 -399 -178 -569v1c-136 -161 -338 -200 -526 -200c-315 0 -653 178 -676 559c13 307 289 457 549 457c84 -6 189 -23 286 -86c-15 207 -56 330 -308 403l-40 12l1 -1
c-18 6 -36 13 -70 18zM707 229c154 0 185 122 185 244c0 109 -34 229 -186 229c-135 0 -192 -85 -201 -220c0 -119 49 -253 202 -253z" />
    <glyph glyph-name="increment" unicode="&#x2206;" horiz-adv-x="1700" 
d="M84 192l515 1320c179 5 355 12 534 17c62 -188 137 -369 207 -544l36 -90c90 -225 184 -448 263 -690l-1 2c4 -62 4 -115 4 -172v-20h-1558v177zM495 338l41 -64c57 -2 126 -3 184 -3c141 0 285 4 427 12c38 6 45 24 45 57l-64 164l-26 64c-81 198 -163 405 -214 638
c-10 9 -22 17 -40 19h-16c-31 -8 -55 -92 -76 -159l-7 -23l1 1l-12 -33l-13 -48v1l-20 -71l1 1z" />
    <glyph glyph-name="product" unicode="&#x220f;" horiz-adv-x="1819" 
d="M1845 1161l-26 -27h-25c-6 0 -12 1 -17 1h-16c-52 0 -104 -4 -172 -27c0 -222 -1 -452 -1 -675v-665c-2 -8 -6 -13 -13 -17l-452 6c-1 0 -3 1 -4 2c2 250 4 475 4 724c0 218 -1 447 -5 667l-399 -15c21 -464 10 -1086 19 -1360l-460 -12c-2 2 -2 6 -2 16
c-4 125 -5 253 -5 385c0 299 3 581 3 863c0 33 -2 86 -4 118l-243 3c-2 1 -3 1 -3 3c0 75 -3 179 -3 243v68c0 23 -1 46 -1 71c0 5 7 8 14 10l1792 7c10 -1 15 -5 15 -12zM281 -239l-2 -19l-6 1v20h5c0 -1 1 -1 3 -2zM747 -232l-8 4s-1 1 -1 3c7 -4 9 -7 9 -7zM1116 -241
l3 -1z" />
    <glyph glyph-name="summation" unicode="&#x2211;" horiz-adv-x="1422" 
d="M1449 -223l-21 -17c-232 0 -461 -1 -693 -2l-694 -3c-6 3 -13 9 -13 16l2 240c0 6 1 9 4 12l-2 -1l549 613c-176 219 -346 401 -514 604c-9 11 -3 241 -9 291l1315 7c6 -6 8 -41 8 -84c0 -28 -2 -57 -2 -80v-37c0 -28 2 -54 2 -87c0 -27 -1 -51 -1 -67c0 -7 1 -13 1 -15
l-676 -14l410 -450l3 -13v-8l-458 -523c249 1 519 4 768 5c8 -2 15 -7 17 -13z" />
    <glyph glyph-name="minus" unicode="&#x2212;" horiz-adv-x="1273" 
d="M1175 353l-285 -4c-268 0 -509 -12 -772 -17l-21 26c-2 36 -3 63 -3 103c0 9 1 18 1 29v19c0 6 1 12 1 18v40c0 5 -1 10 -1 15c0 30 1 56 12 77c1 0 2 -1 2 -1c1 0 0 1 2 1h22c254 -15 504 -29 758 -29l39 1c77 7 164 1 248 8c8 -15 9 -78 9 -134v-104c0 -4 1 -8 1 -12
c0 -20 -2 -36 -13 -36z" />
    <glyph glyph-name="radical" unicode="&#x221a;" horiz-adv-x="1559" 
d="M1669 1789l-32 -109l-104 -347c-29 -96 -65 -189 -94 -288h1c-118 -356 -242 -784 -345 -1144l-37 -130c-9 -31 -18 -62 -26 -92c-19 -10 -82 -13 -124 -13c-78 0 -157 6 -233 6c-38 91 -74 184 -108 275l-79 202l-183 458l-177 -74c-13 13 -46 123 -65 189l-8 28
c0 1 2 6 3 7l275 111l225 91h3c1 0 2 1 3 1c3 0 6 -3 9 -10v1l39 -111c67 -190 160 -413 225 -644l35 1c111 580 288 1075 418 1647c3 8 10 12 19 15h108c16 0 31 1 45 1h120c43 0 43 -4 65 -36h-1c6 -11 16 -25 23 -35z" />
    <glyph glyph-name="infinity" unicode="&#x221e;" horiz-adv-x="1811" 
d="M1751 625l-1 4c0 -274 -186 -455 -423 -455c-177 0 -306 133 -404 304c-95 -147 -237 -287 -354 -287c-6 0 -9 0 -11 1c-12 -1 -27 -1 -40 -1c-241 0 -413 190 -413 419c0 219 154 432 416 432c177 -3 300 -128 413 -320c104 190 276 325 420 325
c242 0 375 -220 397 -422zM1353 350c163 0 288 106 293 269l3 1c-19 130 -103 275 -277 275c-126 0 -289 -104 -397 -263c97 -170 229 -282 378 -282zM544 349c94 0 207 131 298 286c-95 149 -193 239 -326 242c-162 0 -259 -130 -259 -268c0 -140 105 -260 256 -260h31z
" />
    <glyph glyph-name="integral" unicode="&#x222b;" horiz-adv-x="987" 
d="M981 1753l-18 -146v2c-3 -11 -6 -17 -10 -17h-4c-4 1 -19 3 -18 4l-2 -6c-1 1 -2 1 -3 1l2 7l-3 -1c-33 10 -59 17 -88 17c-100 0 -129 -90 -149 -164l-6 -6h5c-2 -5 -3 -10 -4 -14c1 0 3 1 7 3c-11 -55 -13 -169 -13 -192c0 -174 12 -363 23 -528l2 -31
c10 -165 20 -323 20 -477c0 -168 -32 -367 -143 -508l1 1c-82 -90 -207 -131 -341 -131c-52 0 -194 13 -208 37l11 79c0 4 2 8 2 12c8 64 17 132 27 196h2c25 0 62 -15 106 -15c167 0 172 191 172 340c0 81 -5 107 -5 215c0 10 0 15 1 16c-12 298 -51 572 -51 877
c0 386 183 610 524 610c63 0 140 -5 177 -47c-3 -34 -7 -59 -11 -92l-3 -27c0 -4 -2 -11 -2 -15zM924 1572v-19l-47 17c17 16 19 17 23 17l16 6l-1 1s1 0 2 -1l8 4v-6c0 -1 1 -1 1 -1c-2 -15 -2 -18 -2 -18zM710 1467v-21l-23 -2c0 12 23 23 23 23zM941 1589v-20
c-9 0 -14 2 -14 10c0 3 1 7 2 11c6 -1 11 -1 12 -1zM901 1587c0 1 1 1 2 1c-1 0 -1 -1 -2 -1zM928 1590h-2h2zM926 1591v-1v1z" />
    <glyph glyph-name="approxequal" unicode="&#x2248;" horiz-adv-x="1323" 
d="M1115 1072l36 -4l142 -150l4 -8c0 -2 -3 -8 -6 -15c-93 -127 -218 -246 -375 -246c-164 0 -314 173 -468 173c-52 0 -120 -28 -173 -89l-19 -19c-24 -24 -43 -49 -47 -50c0 0 -1 0 -3 2l-145 147c99 161 234 260 404 260c33 0 68 -3 110 -13h-1
c128 -38 225 -143 325 -143c73 0 143 56 216 155zM34 815h21l1 -13c-22 0 -22 4 -22 13zM1115 596l37 -6l143 -147c1 -4 2 -5 2 -9c0 -3 -1 -5 -3 -7c-86 -128 -213 -251 -365 -251c-191 0 -314 166 -485 166c-55 0 -117 -22 -172 -85l-18 -19c-23 -25 -44 -48 -45 -48
c0 0 -1 0 -3 2l-150 150c92 132 243 253 409 253c174 0 297 -154 436 -154c79 0 149 71 214 155zM55 340v4l1 -2c0 -1 -1 -1 -1 -2z" />
    <glyph glyph-name="notequal" unicode="&#x2260;" horiz-adv-x="1350" 
d="M1041 1180l17 -34l-65 -141h48c57 0 102 -3 154 -3c17 0 46 0 63 1c13 -4 15 -26 15 -64c0 -74 1 -201 -17 -201l-380 -2c-31 -74 -85 -182 -122 -253l504 -4h-1c3 0 5 -3 6 -6c0 -21 -1 -39 -1 -59v-177c-5 -8 -29 -9 -52 -9c-149 0 -292 10 -442 10
c-35 0 -83 -1 -120 -2l-115 -258v1c-1 -2 -3 -3 -4 -3c-65 27 -124 58 -188 84l75 178c-31 -1 -94 -2 -127 -2h-64c-12 0 -23 1 -33 1h-43c-2 0 -4 -1 -6 -1h-6c-7 0 -12 0 -13 -2v58c0 56 -2 119 -2 180c0 10 28 12 61 12c111 0 223 -2 330 -7l115 268
c-79 0 -177 -1 -260 -2l-245 -4c-6 3 -8 21 -8 39c0 11 1 21 1 28v59c-2 38 -2 77 -2 119c0 8 3 15 8 20c75 -5 142 -8 217 -8c127 0 250 7 389 7l40 88c0 15 12 24 18 39l50 120c7 7 11 10 18 10c62 -29 120 -56 187 -80z" />
    <glyph glyph-name="lessequal" unicode="&#x2264;" horiz-adv-x="1353" 
d="M1276 284l-28 -8l-1120 489c-1 1 -3 4 -3 10l2 246c2 -1 5 -1 6 -1c171 87 395 184 572 259l54 23c163 70 329 141 496 224h2c0 -1 0 -3 1 -5v-130c0 -49 1 -98 1 -130c0 -2 -2 -4 -2 -5v1l-5 -19l-860 -338l869 -347h-1c5 -4 10 -12 13 -20zM1280 -49l-22 -26
c-191 2 -375 7 -564 10l-563 10c-2 1 -2 3 -2 7l2 240c0 4 1 7 4 12c183 -11 352 -16 534 -16c187 0 409 7 595 18c6 -1 10 -5 11 -11v-2c0 -42 1 -82 2 -122zM1273 540h20v-9l-18 -3c-1 1 -2 2 -2 4v8zM127 1024v-3h-2c-2 0 -2 0 -3 1c3 0 4 1 5 2zM1259 1528
c-1 0 -2 -1 -2 -2z" />
    <glyph glyph-name="greaterequal" unicode="&#x2265;" horiz-adv-x="1354" 
d="M112 1514l42 37l1107 -518l3 -7v-126c0 -45 -1 -92 -1 -125l-1128 -502c-1 0 -2 -1 -3 -1c1 1 1 2 1 4c0 80 -2 161 -2 240c276 150 569 274 869 383l-876 348h1c-12 8 -14 76 -14 145c0 48 1 96 1 122zM1265 -47l-32 -40l-1105 32c-1 2 -1 4 -1 5l3 236
c343 15 685 9 1116 20c7 -2 12 -6 15 -12zM118 521l-10 6l15 15l7 -6l-9 -12l10 7v-15zM128 -55v-9c0 -1 -1 -1 -1 -1c-3 0 -15 9 -19 10h20zM1284 774l-20 1s5 2 10 2c2 0 5 0 7 -1zM130 189l-1 -3c-2 0 -2 0 -3 1c2 0 3 1 4 2zM131 271h-2l1 1h2c0 -1 -1 -1 -1 -1z
M135 273h2l-3 -1zM134 272h-1h1z" />
    <glyph glyph-name="lozenge" unicode="&#x25ca;" horiz-adv-x="1592" 
d="M956 -76l-300 -5l-484 845c177 277 339 549 483 822c105 5 185 8 277 8h31c96 -162 183 -319 275 -491l200 -362zM1157 732v32c-72 134 -249 401 -305 556l1 -2c-3 36 -15 44 -42 45h-8c-16 -1 -28 -11 -36 -22l-11 -31c-3 -6 -20 -55 -34 -79l-235 -449l16 -28l-18 -9
l248 -472c3 -29 24 -110 71 -125h12c18 1 36 11 44 30c63 154 159 311 262 492zM778 1308l-6 -15l-18 3v8c4 8 2 7 10 15z" />
    <glyph glyph-name="uni272E" unicode="&#x272e;" horiz-adv-x="1702" 
d="M1039 863h481l-371 -349l111 -444l-388 249l-393 -249l113 446l-367 319h475l173 441z" />
    <glyph glyph-name="uni272F" unicode="&#x272f;" horiz-adv-x="1387" 
d="M816 1284h350l-269 -253c25 -106 54 -216 80 -323l-281 182l-286 -182l84 325l-149 130l-117 102h343l125 318z" />
    <glyph glyph-name="uni278A" unicode="&#x278a;" horiz-adv-x="1715" 
d="M1121 420c-2 131 -3 258 -3 388v97c0 11 1 22 1 33v80c0 51 0 69 -36 76c-14 -2 -24 -2 -35 -2c-97 0 -204 1 -298 3c-37 -68 -156 -125 -209 -149l-106 -49h1c-21 -9 -22 -116 -22 -218v-110c4 -23 20 -37 52 -37c60 20 117 47 175 82c-5 -218 -6 -376 -6 -600
c0 -24 5 -35 15 -48l20 -26c32 -4 46 -4 61 -4h51c17 0 33 1 51 1h146c7 0 15 -1 23 -1c58 0 119 8 125 45c0 145 -6 290 -6 439zM870 1299c423 0 813 -339 813 -794c0 -457 -374 -791 -796 -791c-509 0 -783 397 -823 779l5 6c38 388 285 800 801 800z" />
    <glyph glyph-name="uni278B" unicode="&#x278b;" horiz-adv-x="1719" 
d="M1297 -57l55 -1c47 5 48 23 48 55v13c0 49 4 98 4 138c0 90 -18 152 -107 152s-169 -5 -245 -5c173 115 341 251 341 469c0 256 -246 361 -504 361c-204 0 -436 -73 -494 -269c-12 -40 -15 -90 -18 -135c3 -39 30 -43 62 -43h58c11 0 22 -1 34 -1h179c23 0 48 0 73 1
c62 11 16 120 90 120c27 0 45 -17 45 -44c0 -60 -62 -126 -105 -164c-44 -38 -97 -81 -150 -117l-54 -37c-170 -123 -229 -142 -229 -182c0 -69 -3 -116 -3 -206c0 -36 5 -69 19 -88l18 -25c214 8 433 13 648 13c29 0 59 -1 93 -2h9c44 -1 85 -2 133 -3zM873 1299
c424 0 814 -339 814 -794c0 -457 -374 -791 -796 -791c-459 0 -786 361 -786 724c0 17 0 36 3 57l7 57c38 379 273 747 758 747z" />
    <glyph glyph-name="uni278C" unicode="&#x278c;" horiz-adv-x="1715" 
d="M977 -78c180 24 407 99 407 377c0 122 -46 202 -170 254c81 35 146 98 146 235c0 232 -257 338 -442 338c-129 0 -282 -7 -394 -74c-80 -51 -123 -139 -138 -178l-2 -5c-18 -53 -16 -89 -21 -133c0 -46 36 -50 76 -50h38c93 -4 187 -5 279 -5c69 35 21 124 97 124
c32 0 48 -24 48 -52c0 -76 -45 -95 -103 -95h-28c-6 0 -11 1 -16 1h-13c-53 0 -60 -55 -60 -140v-15c0 -83 -1 -121 81 -121c9 0 20 0 27 3c57 0 123 -12 123 -88c0 -33 -21 -60 -60 -60c-89 0 -42 118 -117 118c-34 0 -65 -1 -99 -1l-249 -4c-29 -1 -42 -27 -42 -45
c4 -95 30 -199 86 -253c104 -101 260 -137 426 -137c36 0 78 2 120 6zM878 1299c515 0 763 -412 800 -798l5 -8c-38 -382 -314 -779 -823 -779c-422 0 -796 334 -796 791c0 455 390 794 814 794z" />
    <glyph glyph-name="uni278D" unicode="&#x278d;" horiz-adv-x="1715" 
d="M1398 365v1c-1 8 -1 14 -1 20c3 4 3 7 3 14c0 55 -11 62 -58 62c-5 0 -10 -1 -16 -1h-45c-10 0 -12 16 -12 35c0 7 0 15 1 23v13c0 4 1 10 1 14v5c-1 27 -1 55 -1 82c0 135 5 267 5 390v55c-6 4 -12 6 -17 7l1 1c-12 4 -23 8 -25 8h-147c-64 0 -134 -2 -196 -4l-92 -2
c-20 -3 -70 -3 -99 -5l-12 -20c-65 -110 -118 -194 -166 -267v1c-88 -130 -149 -226 -207 -374c-5 -79 -5 -156 -5 -269c22 -43 48 -42 92 -42h17c4 0 8 -1 13 -1c11 0 22 1 33 2h4c11 1 22 1 33 1l183 2c23 8 121 25 121 25v-25c0 -39 -2 -87 -2 -137c0 0 13 -16 18 -21
l20 -24c81 5 166 5 246 5c46 0 96 -1 143 -2c42 5 46 25 46 66c0 36 -1 68 -2 105v5h10c6 0 11 1 16 1h56c40 0 45 26 45 108c0 55 -4 112 -4 143zM662 420h-1c0 1 0 2 -1 4l-4 12l109 193l85 149c7 -28 8 -109 8 -177c0 -48 -2 -92 -2 -110v-48c0 -5 1 -9 1 -13l-7 -7
c-30 0 -53 -1 -81 -2h-10c-31 -1 -63 -1 -97 -1zM845 789l10 -1s-1 -1 -1 -2l-4 -8c-2 6 -3 9 -5 11zM870 1299c423 0 813 -339 813 -794c0 -457 -374 -791 -796 -791c-487 0 -765 418 -818 791c46 378 297 794 801 794z" />
    </font>
</defs>
</svg>
